# Blender 3.6.2
# www.blender.org
o toco
v -0.000000 0.092460 -0.985250
v 0.000000 0.103525 -0.996782
v 0.000000 2.625489 -0.985250
v 0.000000 2.614424 -0.996782
v 0.532666 0.092460 -0.828845
v 0.538901 0.103525 -0.838547
v 0.532666 2.625489 -0.828845
v 0.538901 2.614424 -0.838547
v 0.896215 0.092460 -0.409288
v 0.906705 0.103525 -0.414078
v 0.896215 2.625489 -0.409288
v 0.906705 2.614424 -0.414078
v 0.975222 0.092460 0.140216
v 0.986636 0.103525 0.141857
v 0.975222 2.625489 0.140216
v 0.986636 2.614424 0.141857
v 0.744602 0.092460 0.645202
v 0.753318 0.103525 0.652754
v 0.744602 2.625489 0.645202
v 0.753318 2.614424 0.652754
v 0.277577 0.092460 0.945341
v 0.280826 0.103525 0.956406
v 0.277577 2.625489 0.945341
v 0.280826 2.614424 0.956406
v -0.277577 0.092460 0.945341
v -0.280826 0.103525 0.956406
v -0.277577 2.625489 0.945341
v -0.280826 2.614424 0.956406
v -0.744602 0.092460 0.645202
v -0.753318 0.103525 0.652754
v -0.744602 2.625489 0.645202
v -0.753318 2.614424 0.652754
v -0.975222 0.092460 0.140216
v -0.986636 0.103525 0.141857
v -0.975222 2.625489 0.140216
v -0.986636 2.614424 0.141857
v -0.896215 0.092460 -0.409288
v -0.906705 0.103525 -0.414078
v -0.896215 2.625489 -0.409288
v -0.906705 2.614424 -0.414078
v -0.532666 0.092460 -0.828845
v -0.538901 0.103525 -0.838547
v -0.532666 2.625489 -0.828845
v -0.538901 2.614424 -0.838547
vn -0.5406 -0.0000 -0.8413
vn -0.0000 -0.0000 -1.0000
vn 0.9096 -0.0000 -0.4154
vn 0.9898 -0.0000 0.1423
vn 0.7557 -0.0000 0.6549
vn 0.2817 -0.0000 0.9595
vn -0.2817 -0.0000 0.9595
vn -0.7557 -0.0000 0.6549
vn -0.9898 -0.0000 0.1423
vn -0.9096 -0.0000 -0.4154
vn 0.5406 -0.0000 -0.8413
vn -0.0000 1.0000 -0.0000
vn -0.0000 -0.7216 -0.6923
vn 0.3743 -0.7216 -0.5824
vn 0.3743 0.7216 -0.5824
vn -0.0000 0.7216 -0.6923
vn 0.6298 -0.7216 -0.2876
vn 0.6298 0.7216 -0.2876
vn 0.6853 -0.7216 0.0985
vn 0.6853 0.7216 0.0985
vn 0.5232 -0.7216 0.4534
vn 0.5232 0.7216 0.4534
vn 0.1951 -0.7216 0.6643
vn 0.1951 0.7216 0.6643
vn -0.1951 -0.7216 0.6643
vn -0.1951 0.7216 0.6643
vn -0.5232 -0.7216 0.4534
vn -0.5232 0.7216 0.4534
vn -0.6853 -0.7216 0.0985
vn -0.6853 0.7216 0.0985
vn -0.6298 -0.7216 -0.2876
vn -0.6298 0.7216 -0.2876
vn -0.3743 -0.7216 -0.5824
vn -0.3743 0.7216 -0.5824
vn -0.0000 -1.0000 -0.0000
vt 0.007072 0.905075
vt 0.497837 0.905075
vt 0.497837 0.995091
vt 0.007072 0.995091
vt 0.007071 0.184942
vt 0.497837 0.184942
vt 0.497837 0.274959
vt 0.007072 0.274959
vt 0.007072 0.274959
vt 0.497837 0.274959
vt 0.497837 0.364975
vt 0.007072 0.364975
vt 0.007072 0.364975
vt 0.497837 0.364975
vt 0.497837 0.454992
vt 0.007072 0.454992
vt 0.007072 0.454992
vt 0.497837 0.454992
vt 0.497837 0.545008
vt 0.007072 0.545008
vt 0.007072 0.545008
vt 0.497837 0.545008
vt 0.497837 0.635025
vt 0.007072 0.635025
vt 0.007072 0.635025
vt 0.497837 0.635025
vt 0.497837 0.725041
vt 0.007072 0.725042
vt 0.007072 0.725042
vt 0.497837 0.725042
vt 0.497837 0.815058
vt 0.007072 0.815058
vt 0.007072 0.815058
vt 0.497837 0.815058
vt 0.497837 0.905075
vt 0.007072 0.905075
vt 0.007071 0.094925
vt 0.497837 0.094925
vt 0.497837 0.184942
vt 0.007072 0.184942
vt 0.618049 0.044947
vt 0.745042 0.007658
vt 0.872036 0.044947
vt 0.958710 0.144974
vt 0.977546 0.275982
vt 0.922564 0.396376
vt 0.811220 0.467932
vt 0.678865 0.467932
vt 0.567521 0.396376
vt 0.512539 0.275982
vt 0.531375 0.144974
vt 0.007071 0.004909
vt 0.497837 0.004909
vt 0.497837 0.094925
vt 0.007072 0.094925
vt 0.873522 0.518113
vt 0.745042 0.480388
vt 0.745042 0.483137
vt 0.872036 0.520426
vt 0.616562 0.042634
vt 0.745042 0.004909
vt 0.616562 0.518113
vt 0.618049 0.520426
vt 0.528874 0.143832
vt 0.528874 0.619311
vt 0.531375 0.620453
vt 0.509818 0.276373
vt 0.509817 0.751852
vt 0.512539 0.751461
vt 0.565443 0.398176
vt 0.565443 0.873655
vt 0.567521 0.871854
vt 0.678090 0.470570
vt 0.678090 0.946049
vt 0.678865 0.943411
vt 0.811994 0.470570
vt 0.811994 0.946049
vt 0.811220 0.943411
vt 0.924642 0.398176
vt 0.924642 0.873655
vt 0.922564 0.871855
vt 0.980267 0.276373
vt 0.980267 0.751852
vt 0.977546 0.751460
vt 0.961211 0.143832
vt 0.961211 0.619311
vt 0.958710 0.620453
vt 0.873522 0.042634
s 1
f 42/1/1 44/2/1 4/3/2 2/4/2
f 10/5/3 12/6/3 16/7/4 14/8/4
f 14/9/4 16/10/4 20/11/5 18/12/5
f 18/13/5 20/14/5 24/15/6 22/16/6
f 22/17/6 24/18/6 28/19/7 26/20/7
f 26/21/7 28/22/7 32/23/8 30/24/8
f 30/25/8 32/26/8 36/27/9 34/28/9
f 34/29/9 36/30/9 40/31/10 38/32/10
f 38/33/10 40/34/10 44/35/1 42/36/1
f 6/37/11 8/38/11 12/39/3 10/40/3
f 7/41/12 3/42/12 43/43/12 39/44/12 35/45/12 31/46/12 27/47/12 23/48/12 19/49/12 15/50/12 11/51/12
f 2/52/2 4/53/2 8/54/11 6/55/11
f 2/56/13 6/57/14 5/58/14 1/59/13
f 8/60/15 4/61/16 3/42/16 7/41/15
f 6/57/14 10/62/17 9/63/17 5/58/14
f 12/64/18 8/60/15 7/41/15 11/51/18
f 10/62/17 14/65/19 13/66/19 9/63/17
f 16/67/20 12/64/18 11/51/18 15/50/20
f 14/65/19 18/68/21 17/69/21 13/66/19
f 20/70/22 16/67/20 15/50/20 19/49/22
f 18/68/21 22/71/23 21/72/23 17/69/21
f 24/73/24 20/70/22 19/49/22 23/48/24
f 22/71/23 26/74/25 25/75/25 21/72/23
f 28/76/26 24/73/24 23/48/24 27/47/26
f 26/74/25 30/77/27 29/78/27 25/75/25
f 32/79/28 28/76/26 27/47/26 31/46/28
f 30/77/27 34/80/29 33/81/29 29/78/27
f 36/82/30 32/79/28 31/46/28 35/45/30
f 34/80/29 38/83/31 37/84/31 33/81/29
f 40/85/32 36/82/30 35/45/30 39/44/32
f 38/83/31 42/86/33 41/87/33 37/84/31
f 44/88/34 40/85/32 39/44/32 43/43/34
f 42/86/33 2/56/13 1/59/13 41/87/33
f 4/61/16 44/88/34 43/43/34 3/42/16
f 1/59/35 5/58/35 9/63/35 13/66/35 17/69/35 21/72/35 25/75/35 29/78/35 33/81/35 37/84/35 41/87/35
