# Blender 3.6.2
# www.blender.org
o Cube.002
v -1.202145 0.391917 0.559407
v -1.194520 0.381580 0.562205
v -1.192778 0.393001 0.572100
v -0.773996 1.657415 -0.114992
v -0.759745 1.662700 -0.103601
v -0.758870 1.668258 -0.122456
v 0.982680 0.090653 0.467625
v 0.991300 0.098367 0.460256
v 0.983384 0.100041 0.474493
v 0.430548 1.621898 -0.223344
v 0.414086 1.631840 -0.226267
v 0.419091 1.626080 -0.207877
v 0.858031 0.068883 -0.975009
v 0.867992 0.068844 -0.961775
v 0.857988 0.059366 -0.964353
v 0.091382 0.088619 -1.270115
v 0.092184 0.079888 -1.259211
v 0.072805 0.080176 -1.261953
v 0.072426 0.088877 -1.272450
v -0.042076 0.319035 0.923062
v -0.060186 0.321516 0.923971
v -0.060649 0.311294 0.917224
v -0.041109 0.308476 0.914904
v -0.056160 1.911873 -0.149368
v -0.038035 1.909386 -0.150767
v -0.042957 1.919669 -0.167611
v -0.061126 1.921804 -0.165212
v -1.010443 1.281254 0.536242
v -1.016889 1.263902 0.556330
v -1.006292 1.263187 0.566452
v -1.001017 1.277628 0.558113
v 0.853715 1.268768 -1.003247
v 0.843903 1.286650 -1.002361
v 0.856408 1.286736 -0.988620
v 0.863272 1.269968 -0.990027
v 0.910145 1.329470 0.034891
v 0.901008 1.343938 0.026462
v 0.892875 1.343190 0.042977
v 0.902206 1.328950 0.050375
v 0.020059 1.204816 0.609982
v 0.038495 1.204838 0.604977
v 0.038782 1.221962 0.593496
v 0.020059 1.220668 0.599482
v -0.033899 1.207756 -1.341842
v -0.051053 1.208580 -1.339613
v -0.058079 1.229132 -1.330784
v -0.037523 1.224968 -1.336760
v -0.189792 2.036096 -0.472224
v -0.203381 2.036467 -0.485566
v -0.205075 2.030955 -0.467503
v -0.282952 1.958562 -0.785888
v -0.301457 1.952706 -0.783018
v -0.293796 1.964923 -0.768841
v 0.566952 1.754562 -0.847096
v 0.579464 1.741404 -0.851471
v 0.570531 1.745631 -0.860572
v 0.706914 1.451375 -0.959982
v 0.692322 1.439639 -0.963822
v 0.678247 1.472860 -0.955595
v -0.112656 2.010118 -0.812374
v -0.112907 2.021659 -0.802579
v -0.093695 2.018441 -0.809446
v -0.035706 2.045190 -0.765027
v -0.039715 2.041516 -0.780320
v -0.053137 2.046770 -0.769496
v -1.201849 0.314407 0.117055
v -1.198050 0.311016 0.098241
v -1.193662 0.303294 0.108662
v -0.760844 1.670727 -0.131951
v -0.768785 1.658246 -0.141591
v -0.773921 1.657239 -0.118402
v -0.649483 0.086262 -1.172487
v -0.659816 0.096245 -1.170174
v -0.646193 0.094135 -1.180767
v -0.594494 1.321099 -0.959078
v -0.611411 1.335208 -0.953962
v -0.590757 1.339740 -0.954527
v -1.047402 1.265256 0.161553
v -1.040237 1.282666 0.157612
v -1.041687 1.270741 0.144046
v -0.421961 1.941150 -0.606769
v -0.412680 1.945415 -0.623088
v -0.426946 1.932952 -0.622954
v -0.347955 1.936679 -0.775660
v -0.362599 1.934899 -0.764782
v -0.349010 1.947087 -0.762137
vn -0.3613 0.8707 0.3336
vn 0.6923 0.7202 0.0445
vn 0.9973 0.0221 -0.0702
vn -0.1648 0.2011 0.9656
vn 0.3581 -0.0202 -0.9335
vn 0.1704 0.5479 -0.8190
vn -0.1257 -0.9895 0.0710
vn -0.7912 0.6083 0.0635
vn 0.4597 0.2942 0.8379
vn -0.3458 0.0511 -0.9369
vn -0.3194 0.9380 -0.1350
vn -0.9045 0.2083 -0.3722
vn 0.3482 0.7602 0.5486
vn -0.4484 0.4308 -0.7832
vn 0.4714 0.8510 0.2316
vn 0.0940 0.3997 -0.9118
vn -0.0873 0.7969 0.5978
vn -0.0543 -0.9905 0.1261
vn -0.7275 -0.3825 0.5696
vn -0.4918 0.8411 0.2251
vn 0.7762 -0.4091 0.4797
vn 0.4947 0.8586 0.1343
vn 0.6604 -0.5614 -0.4987
vn 0.0727 -0.7713 -0.6323
vn -0.0124 -0.5830 0.8124
vn 0.1602 0.8605 0.4837
vn -0.6077 0.6420 0.4674
vn 0.7070 0.3797 -0.5966
vn 0.6779 0.6377 0.3658
vn 0.2212 0.5396 0.8124
vn -0.1648 0.2997 -0.9397
vn -0.2333 0.9359 0.2637
vn -0.3306 0.7959 -0.5072
vn 0.6398 0.7079 -0.2993
vn 0.0461 0.2585 -0.9649
vn -0.1629 0.6364 -0.7540
vn 0.1551 0.9505 -0.2691
vn -0.8266 -0.5589 -0.0661
vn -0.7796 0.6090 -0.1462
vn -0.5894 -0.4555 -0.6672
vn -0.0816 0.2518 -0.9643
vn -0.9216 0.3349 -0.1959
vn -0.6487 0.7406 -0.1754
vn -0.4933 0.6703 -0.5544
vn -0.7873 -0.6076 0.1047
vn -0.4816 0.8228 0.3018
vn 0.8049 -0.0109 -0.5934
vn 0.6718 -0.7395 -0.0426
vn 0.6055 0.7412 0.2900
vn 0.8654 0.2136 0.4533
vn 0.2167 -0.5856 0.7811
vn -0.2831 0.8629 0.4186
vn 0.2247 -0.7399 -0.6341
vn -0.2773 -0.5678 0.7751
vn 0.5368 0.8146 0.2197
vn -0.0091 0.9359 0.3522
vn -0.0803 -0.9918 0.0998
vn 0.1722 0.3175 0.9325
vn 0.0011 -0.0618 -0.9981
vn -0.7439 0.1620 0.6483
vn 0.3218 0.4779 -0.8173
vn 0.4345 0.8843 0.1712
vn 0.1563 0.7336 0.6613
vn -0.2077 0.5435 -0.8133
vn -0.5261 0.2349 -0.8173
vn 0.3927 0.5548 0.7335
vn -0.0054 0.5288 0.8488
vn 0.8940 0.4432 -0.0654
vn 0.3246 0.2780 -0.9040
vn -0.4477 0.8875 0.1095
vn -0.3314 0.7679 -0.5482
vn 0.0334 0.9981 0.0512
vn -0.3268 0.7183 -0.6141
vn -0.0680 0.8451 -0.5302
vn 0.0012 0.2592 -0.9658
vn 0.4114 0.4571 -0.7885
vn 0.3613 0.8520 -0.3788
vn -0.5359 0.8142 0.2235
vn -0.0897 -0.7398 -0.6669
vn -0.9107 0.4067 0.0725
vn -0.6232 0.7322 -0.2746
vn -0.3466 0.4029 -0.8470
vn -0.3743 0.1768 -0.9103
vn -0.8654 0.4499 -0.2205
vn -0.7402 0.6546 -0.1537
vn -0.7114 -0.6773 -0.1873
vn -0.9561 0.1669 -0.2408
vn -0.9830 0.1828 0.0189
vt 0.489679 0.348958
vt 0.381068 0.274546
vt 0.380417 0.272798
vt 0.516776 0.214550
vt 0.531115 0.299969
vt 0.694046 0.622229
vt 0.728597 0.618853
vt 0.777581 0.639778
vt 0.788303 0.746179
vt 0.693342 0.762282
vt 0.554607 0.636074
vt 0.691503 0.622169
vt 0.690791 0.763129
vt 0.544015 0.779084
vt 0.063480 0.077273
vt 0.315128 0.034104
vt 0.276504 0.203180
vt 0.183720 0.229349
vt 0.462202 0.517130
vt 0.728943 0.453779
vt 0.691507 0.619992
vt 0.554323 0.634016
vt 0.732392 0.454259
vt 0.928846 0.576430
vt 0.894502 0.600337
vt 0.728761 0.615588
vt 0.694670 0.619574
vt 0.460743 0.519410
vt 0.553062 0.635489
vt 0.542566 0.779932
vt 0.460623 0.943818
vt 0.279832 0.206741
vt 0.376918 0.272752
vt 0.377096 0.273299
vt 0.294327 0.253918
vt 0.543735 0.781066
vt 0.690549 0.765391
vt 0.714806 0.979373
vt 0.462044 0.945887
vt 0.162693 0.447398
vt 0.356845 0.428941
vt 0.352957 0.579322
vt 0.063906 0.547615
vt 0.896273 0.603112
vt 0.933507 0.578497
vt 0.947354 0.571174
vt 0.982701 0.595942
vt 0.944562 0.659382
vt 0.890133 0.615861
vt 0.495331 0.389883
vt 0.358562 0.425532
vt 0.163283 0.444799
vt 0.173886 0.283606
vt 0.293297 0.256352
vt 0.378971 0.277005
vt 0.488591 0.352734
vt 0.693592 0.765168
vt 0.790135 0.749349
vt 0.917422 0.765555
vt 0.718902 0.977147
vt 0.360826 0.428582
vt 0.497093 0.393320
vt 0.505281 0.400057
vt 0.357236 0.576251
vt 0.780516 0.640152
vt 0.887419 0.618049
vt 0.942801 0.663650
vt 0.919929 0.761225
vt 0.791757 0.745728
vt 0.886821 0.615168
vt 0.778878 0.638152
vt 0.734548 0.618160
vt 0.892207 0.603850
vt 0.318407 0.035105
vt 0.515311 0.210946
vt 0.378355 0.269918
vt 0.279108 0.203368
vt 0.161597 0.445760
vt 0.062008 0.545478
vt 0.062008 0.078853
vt 0.182424 0.230830
vt 0.172397 0.282404
vt 0.183949 0.231254
vt 0.456705 0.516424
vt 0.459437 0.513111
vt 0.459480 0.950103
vt 0.456705 0.947252
vt 0.922480 0.767602
vt 0.925059 0.761875
vt 0.276671 0.205028
vt 0.715055 0.984763
vt 0.721002 0.982686
vt 0.730076 0.449557
vt 0.736362 0.451226
vt 0.947477 0.663780
vt 0.932785 0.573125
vt 0.174165 0.281147
vt 0.291747 0.254174
vt 0.987598 0.598486
vt 0.987240 0.592946
vt 0.945521 0.566724
vt 0.950853 0.567303
s 0
f 81/1/1 69/2/1 6/3/1 27/4/1 50/5/1
f 34/6/2 57/7/2 55/8/2 10/9/2 37/10/2
f 14/11/3 35/12/3 36/13/3 8/14/3
f 21/15/4 40/16/4 30/17/4 3/18/4
f 16/19/5 44/20/5 32/21/5 13/22/5
f 47/23/6 51/24/6 60/25/6 58/26/6 33/27/6
f 17/28/7 15/29/7 7/30/7 23/31/7
f 28/32/8 4/33/8 71/34/8 79/35/8
f 9/36/9 39/37/9 41/38/9 20/39/9
f 74/40/10 75/41/10 45/42/10 19/43/10
f 61/44/11 53/45/11 86/46/11 82/47/11 49/48/11 65/49/11
f 85/50/12 76/51/12 73/52/12 67/53/12 80/54/12 70/55/12 83/56/12
f 38/57/13 12/58/13 25/59/13 42/60/13
f 77/61/14 84/62/14 52/63/14 46/64/14
f 54/65/15 63/66/15 48/67/15 26/68/15 11/69/15
f 64/70/16 56/71/16 59/72/16 62/73/16
f 43/74/17 24/75/17 5/76/17 31/77/17
f 72/78/18 18/79/18 22/80/18 2/81/18 68/82/18
f 1/83/19 2/81/19 3/18/19
f 4/33/20 5/76/20 6/3/20
f 7/30/21 8/14/21 9/36/21
f 10/9/22 11/69/22 12/58/22
f 13/22/23 14/11/23 15/29/23
f 16/19/24 17/28/24 18/84/24 19/85/24
f 20/39/25 21/86/25 22/87/25 23/31/25
f 24/88/26 25/59/26 26/68/26 27/89/26
f 28/32/27 29/90/27 30/17/27 31/77/27
f 32/21/28 33/27/28 34/6/28 35/12/28
f 36/13/29 37/10/29 38/57/29 39/37/29
f 40/91/30 41/38/30 42/60/30 43/92/30
f 44/20/31 45/93/31 46/94/31 47/23/31
f 48/67/32 49/48/32 50/95/32
f 51/24/33 52/96/33 53/45/33
f 54/65/34 55/8/34 56/71/34
f 57/7/35 58/26/35 59/72/35
f 60/25/36 61/44/36 62/73/36
f 63/66/37 64/70/37 65/49/37
f 66/97/38 67/53/38 68/82/38
f 69/2/39 70/55/39 71/34/39
f 72/78/40 73/52/40 74/40/40
f 75/41/41 76/51/41 77/61/41
f 78/98/42 79/35/42 80/54/42
f 81/99/43 82/47/43 83/100/43
f 84/101/44 85/102/44 86/46/44
f 68/82/45 2/81/45 1/83/45 66/97/45
f 31/77/46 5/76/46 4/33/46 28/32/46
f 35/12/47 14/11/47 13/22/47 32/21/47
f 7/30/48 15/29/48 14/11/48 8/14/48
f 54/65/49 11/69/49 10/9/49 55/8/49
f 39/37/50 9/36/50 8/14/50 36/13/50
f 23/31/51 7/30/51 9/36/51 20/39/51
f 27/4/52 6/3/52 5/76/52 24/75/52
f 15/29/53 17/28/53 16/19/53 13/22/53
f 2/81/54 22/80/54 21/15/54 3/18/54
f 11/69/55 26/68/55 25/59/55 12/58/55
f 50/95/56 27/89/56 26/68/56 48/67/56
f 17/28/57 23/31/57 22/87/57 18/84/57
f 40/91/58 21/86/58 20/39/58 41/38/58
f 44/20/59 16/19/59 19/85/59 45/93/59
f 3/18/60 30/17/60 29/90/60 1/83/60
f 57/7/61 34/6/61 33/27/61 58/26/61
f 12/58/62 38/57/62 37/10/62 10/9/62
f 24/88/63 43/92/63 42/60/63 25/59/63
f 51/24/64 47/23/64 46/94/64 52/96/64
f 77/61/65 46/64/65 45/42/65 75/41/65
f 38/57/66 42/60/66 41/38/66 39/37/66
f 43/74/67 31/77/67 30/17/67 40/16/67
f 34/6/68 37/10/68 36/13/68 35/12/68
f 47/23/69 33/27/69 32/21/69 44/20/69
f 81/99/70 50/95/70 49/48/70 82/47/70
f 86/46/71 53/45/71 52/96/71 84/101/71
f 65/49/72 49/48/72 48/67/72 63/66/72
f 53/45/73 61/44/73 60/25/73 51/24/73
f 61/44/74 65/49/74 64/70/74 62/73/74
f 62/73/75 59/72/75 58/26/75 60/25/75
f 59/72/76 56/71/76 55/8/76 57/7/76
f 63/66/77 54/65/77 56/71/77 64/70/77
f 6/3/78 69/2/78 71/34/78 4/33/78
f 18/79/79 72/78/79 74/40/79 19/43/79
f 28/32/80 79/35/80 78/98/80 29/90/80
f 85/102/81 83/100/81 82/47/81 86/46/81
f 84/62/82 77/61/82 76/51/82 85/50/82
f 75/41/83 74/40/83 73/52/83 76/51/83
f 70/55/84 80/54/84 79/35/84 71/34/84
f 69/2/85 81/1/85 83/56/85 70/55/85
f 72/78/86 68/82/86 67/53/86 73/52/86
f 80/54/87 67/53/87 66/97/87 78/98/87
f 1/83/88 29/90/88 78/98/88 66/97/88
