# Blender 3.6.2
# www.blender.org
o Vert.003
v 0.000490 -0.001230 0.002495
v 0.000000 0.002732 -0.003265
v -0.000490 -0.001219 0.002525
v -0.054785 0.285742 -0.139556
v -0.053537 0.283470 -0.143023
v -0.041017 0.578563 -0.421302
v -0.042263 0.581808 -0.418748
v -0.019104 0.740558 -0.729056
v -0.020349 0.744697 -0.728195
v -0.000336 0.701792 -0.956414
v -0.000000 0.699858 -0.945394
v 0.000336 0.701823 -0.956420
v 0.053537 0.283470 -0.143023
v 0.054785 0.285723 -0.139584
v 0.042388 0.578825 -0.415986
v 0.042010 0.583707 -0.422275
v 0.041017 0.578563 -0.421302
v 0.020349 0.744731 -0.728188
v 0.019104 0.740558 -0.729056
v -0.000488 -0.000496 0.004468
v 0.000000 0.006311 0.006269
v 0.000488 -0.000485 0.004497
v -0.054785 0.286783 -0.137966
v -0.053538 0.289054 -0.134500
v -0.042263 0.583325 -0.417554
v -0.041018 0.586570 -0.415000
v -0.020349 0.746397 -0.727841
v -0.019105 0.750534 -0.726980
v -0.000331 0.704052 -0.956834
v 0.000331 0.704022 -0.956829
v 0.000000 0.709868 -0.947046
v 0.053538 0.289054 -0.134500
v 0.054785 0.286801 -0.137939
v 0.042387 0.580400 -0.414746
v 0.041018 0.586570 -0.415000
v 0.042013 0.585163 -0.421132
v 0.019105 0.750534 -0.726980
v 0.020349 0.746363 -0.727848
vn -0.9857 0.1421 0.0909
vn -0.9824 0.1866 0.0012
vn -0.9809 0.1038 -0.1646
vn -0.9870 -0.0298 -0.1580
vn 0.9899 0.0791 0.1176
vn 0.9912 0.0972 0.0899
vn 0.9820 -0.1832 0.0465
vn 0.9866 -0.1523 -0.0590
vn 0.9954 0.0580 0.0763
vn 0.9936 -0.0569 0.0974
vn -0.9954 0.0579 0.0763
vn -0.9913 0.0965 0.0898
vn -0.9822 -0.1818 0.0468
vn -0.9936 -0.0568 0.0974
vn -0.0000 -0.7935 -0.6086
vn -0.0000 -0.5777 -0.8163
vn -0.0000 -0.9861 -0.1662
vn -0.0000 -0.9834 0.1817
vn 0.9858 0.1415 0.0900
vn 0.9872 -0.0291 -0.1570
vn -0.0000 0.7933 0.6089
vn -0.0000 0.5777 0.8162
vn -0.9880 0.0953 0.1213
vn -0.9878 -0.1537 -0.0243
vn -0.0000 0.9863 0.1652
vn -0.0000 -0.4457 -0.8952
vn -0.0000 0.9828 -0.1849
vn -0.0000 0.4457 0.8952
vn -0.9887 0.0785 0.1276
vn -0.9884 -0.1307 -0.0767
vn 0.0262 0.8247 0.5650
vn -0.0440 0.9838 0.1740
vn -0.9509 0.2161 0.2215
vn 0.0260 0.2539 -0.9669
vn -0.0441 -0.8582 0.5114
vn -0.9637 -0.2372 -0.1229
vn 0.9446 0.2341 0.2301
vn 0.9554 0.2066 0.2112
vn 0.9578 0.2670 0.1066
vn 0.9548 0.2960 0.0283
vn -0.9438 0.2354 0.2321
vn -0.9584 0.2648 0.1064
vn -0.9554 0.2938 0.0288
vn 0.9809 0.1040 -0.1643
vn 0.9582 -0.1015 -0.2675
vn 0.9429 0.0130 -0.3329
vn 0.9575 -0.2534 -0.1376
vn 0.9561 -0.2918 0.0251
vn 0.9452 -0.2963 0.1371
vn -0.9423 0.0120 -0.3346
vn -0.9576 -0.1027 -0.2692
vn -0.9568 -0.2898 0.0255
vn -0.9459 -0.2942 0.1368
vn -0.0000 0.9372 -0.3488
vn -0.0000 0.1828 0.9832
vn 0.9299 0.2894 0.2271
vn 0.9825 0.1865 0.0010
vn -0.9290 0.2904 0.2295
s 1
f 14//1 1//2 22//3 33//4
f 7//5 9//6 27//7 25//8
f 9//6 10//9 29//10 27//7
f 12//11 18//12 38//13 30//14
f 26//15 35//15 32//16 24//16
f 28//17 37//17 35//15 26//15
f 31//18 37//17 28//17
f 4//19 7//5 25//8 23//20
f 6//21 5//22 13//22 17//21
f 18//12 16//23 36//24 38//13
f 8//25 6//21 17//21 19//25
f 24//16 32//16 21//26
f 11//27 8//25 19//25
f 5//22 2//28 13//22
f 15//29 14//1 33//4 34//30
f 1//31 2//31 3//31
f 10//32 11//32 12//32
f 15//29 16//23 17//33
f 20//34 21//34 22//34
f 29//35 30//35 31//35
f 34//30 35//36 36//24
f 5//37 6//38 7//5 4//19
f 6//38 8//39 9//6 7//5
f 8//39 11//40 10//9 9//6
f 14//1 15//29 17//33 13//41
f 16//23 18//12 19//42 17//33
f 18//12 12//11 11//43 19//42
f 20//44 23//20 24//45 21//46
f 23//20 25//8 26//47 24//45
f 25//8 27//7 28//48 26//47
f 27//7 29//10 31//49 28//48
f 21//50 32//51 33//4 22//3
f 32//51 35//36 34//30 33//4
f 35//36 37//52 38//13 36//24
f 37//52 31//53 30//14 38//13
f 36//24 16//23 15//29 34//30
f 22//54 1//54 3//54 20//54
f 12//55 30//55 29//55 10//55
f 2//56 5//37 4//19 3//57
f 1//2 14//1 13//41 2//58
f 3//57 4//19 23//20 20//44
o Vert.004
v 0.001676 -0.002883 0.000045
v -0.002101 -0.000271 -0.000471
v 0.001554 -0.002876 0.000680
v -0.097702 0.153441 0.015097
v -0.099753 0.151943 0.013793
v -0.276991 0.346530 -0.034445
v -0.275528 0.348670 -0.033275
v -0.471839 0.453352 -0.092984
v -0.471464 0.456081 -0.092059
v -0.615412 0.427790 -0.137890
v -0.608273 0.426514 -0.136515
v -0.615319 0.427810 -0.138323
v -0.084291 0.151943 -0.055098
v -0.081898 0.153429 -0.055405
v -0.261527 0.346704 -0.087341
v -0.265628 0.349923 -0.088006
v -0.265146 0.346530 -0.087227
v -0.465583 0.456104 -0.118243
v -0.466322 0.453352 -0.117567
v 0.002804 -0.002399 0.000959
v 0.004034 0.002090 0.000905
v 0.002964 -0.002392 0.000335
v -0.096680 0.154128 0.015327
v -0.094269 0.155625 0.015025
v -0.274760 0.349671 -0.033103
v -0.272937 0.351810 -0.033535
v -0.471236 0.457202 -0.092008
v -0.470503 0.459930 -0.092684
v -0.615682 0.429280 -0.137954
v -0.615583 0.429260 -0.138379
v -0.609336 0.433115 -0.136753
v -0.078807 0.155625 -0.053868
v -0.080840 0.154139 -0.055167
v -0.260730 0.347742 -0.087161
v -0.261091 0.351810 -0.086317
v -0.264892 0.350883 -0.087843
v -0.464985 0.459930 -0.117268
v -0.465364 0.457180 -0.118194
vn -0.1237 0.1650 0.9785
vn -0.2285 0.2149 0.9495
vn -0.3918 0.1140 0.9130
vn -0.3704 -0.0219 0.9286
vn 0.3315 0.0791 -0.9401
vn 0.3048 0.0972 -0.9475
vn 0.2604 -0.1832 -0.9480
vn 0.1584 -0.1523 -0.9756
vn 0.2925 0.0580 -0.9545
vn 0.3127 -0.0569 -0.9482
vn -0.1435 0.0579 0.9880
vn -0.1294 0.0965 0.9869
vn -0.1694 -0.1818 0.9686
vn -0.1225 -0.0568 0.9908
vn -0.5939 -0.7935 -0.1333
vn -0.7733 -0.6098 -0.1736
vn -0.1621 -0.9861 -0.0364
vn 0.1773 -0.9834 0.0398
vn 0.3054 0.1644 -0.9379
vn 0.0629 -0.0211 -0.9978
vn 0.5941 0.7933 0.1333
vn 0.7730 0.6102 0.1735
vn -0.0980 0.0953 0.9906
vn -0.2400 -0.1537 0.9585
vn 0.1612 0.9863 0.0362
vn -0.8350 -0.5174 -0.1874
vn -0.1804 0.9828 -0.0405
vn 0.8347 0.5179 0.1873
vn -0.0920 0.0785 0.9927
vn -0.2913 -0.1307 0.9476
vn 0.5570 0.8247 0.0982
vn 0.1601 0.9838 0.0810
vn 0.0079 0.2161 0.9763
vn -0.9377 0.2539 -0.2371
vn 0.4894 -0.8583 0.1546
vn -0.3309 -0.2372 0.9134
vn 0.4333 0.2631 -0.8620
vn 0.4153 0.2066 -0.8859
vn 0.3138 0.2670 -0.9112
vn 0.2367 0.2960 -0.9254
vn 0.0256 0.2645 0.9640
vn -0.1061 0.2648 0.9585
vn -0.1811 0.2938 0.9386
vn 0.0363 0.1142 -0.9928
vn -0.0543 -0.0975 -0.9937
vn -0.1205 0.0143 -0.9926
vn 0.0754 -0.2534 -0.9644
vn 0.2339 -0.2918 -0.9274
vn 0.3408 -0.2963 -0.8922
vn -0.5346 0.0132 0.8450
vn -0.4752 -0.0988 0.8743
vn -0.1847 -0.2898 0.9391
vn -0.0737 -0.2942 0.9529
vn -0.3403 0.9372 -0.0764
vn 0.9593 0.1828 0.2152
vn 0.4268 0.3499 -0.8339
vn 0.1989 0.2148 -0.9562
vn 0.0323 0.3512 0.9357
s 1
f 52//59 39//60 60//61 71//62
f 45//63 47//64 65//65 63//66
f 47//64 48//67 67//68 65//65
f 50//69 56//70 76//71 68//72
f 64//73 73//73 70//74 62//74
f 66//75 75//75 73//73 64//73
f 69//76 75//75 66//75
f 42//77 45//63 63//66 61//78
f 44//79 43//80 51//80 55//79
f 56//70 54//81 74//82 76//71
f 46//83 44//79 55//79 57//83
f 62//74 70//74 59//84
f 49//85 46//83 57//83
f 43//80 40//86 51//80
f 53//87 52//59 71//62 72//88
f 39//89 40//89 41//89
f 48//90 49//90 50//90
f 53//87 54//81 55//91
f 58//92 59//92 60//92
f 67//93 68//93 69//93
f 72//88 73//94 74//82
f 43//95 44//96 45//63 42//77
f 44//96 46//97 47//64 45//63
f 46//97 49//98 48//67 47//64
f 52//59 53//87 55//91 51//99
f 54//81 56//70 57//100 55//91
f 56//70 50//69 49//101 57//100
f 58//102 61//78 62//103 59//104
f 61//78 63//66 64//105 62//103
f 63//66 65//65 66//106 64//105
f 65//65 67//68 69//107 66//106
f 59//108 70//109 71//62 60//61
f 70//109 73//94 72//88 71//62
f 73//94 75//110 76//71 74//82
f 75//110 69//111 68//72 76//71
f 74//82 54//81 53//87 72//88
f 60//112 39//112 41//112 58//112
f 50//113 68//113 67//113 48//113
f 40//114 43//95 42//77 41//115
f 39//60 52//59 51//99 40//116
f 41//115 42//77 61//78 58//102
o Vert.001
v -0.001942 -0.002139 -0.000709
v 0.002270 0.001081 0.001373
v -0.001550 -0.002130 -0.001403
v 0.120092 0.212995 0.020606
v 0.121978 0.211149 0.022933
v 0.310226 0.450978 0.148696
v 0.308974 0.453616 0.146756
v 0.515020 0.582636 0.293391
v 0.514945 0.586000 0.292163
v 0.665230 0.551130 0.402079
v 0.657425 0.549558 0.397677
v 0.664951 0.551155 0.402549
v 0.076938 0.211149 0.097392
v 0.074021 0.212980 0.096813
v 0.271445 0.451192 0.204460
v 0.275978 0.455159 0.206842
v 0.275719 0.450978 0.205743
v 0.497821 0.586028 0.320461
v 0.498948 0.582636 0.319960
v -0.002902 -0.001542 -0.002219
v -0.004360 0.003990 -0.002637
v -0.003332 -0.001534 -0.001552
v 0.118987 0.213841 0.019938
v 0.116051 0.215688 0.019347
v 0.308144 0.454849 0.146254
v 0.305844 0.457486 0.146045
v 0.514699 0.587381 0.292014
v 0.513577 0.590743 0.292517
v 0.665520 0.552967 0.402259
v 0.665237 0.552942 0.402718
v 0.658574 0.557693 0.398372
v 0.071011 0.215688 0.093807
v 0.072877 0.213856 0.096121
v 0.270584 0.452471 0.203938
v 0.271336 0.457486 0.203093
v 0.275181 0.456343 0.206364
v 0.497504 0.590743 0.319087
v 0.497584 0.587354 0.320318
vn 0.4307 0.1512 -0.8897
vn 0.5119 0.1983 -0.8358
vn 0.6540 0.1082 -0.7487
vn 0.6461 -0.0266 -0.7628
vn -0.6130 0.0791 0.7861
vn -0.5899 0.0972 0.8016
vn -0.5480 -0.1832 0.8162
vn -0.4601 -0.1523 0.8747
vn -0.5805 0.0580 0.8122
vn -0.5976 -0.0569 0.7998
vn 0.4499 0.0579 -0.8912
vn 0.4362 0.0965 -0.8947
vn 0.4684 -0.1818 -0.8646
vn 0.4309 -0.0567 -0.9006
vn 0.5208 -0.7935 0.3150
vn 0.6902 -0.5910 0.4175
vn 0.1422 -0.9861 0.0860
vn -0.1555 -0.9834 -0.0940
vn -0.5874 0.1506 0.7952
vn -0.3766 -0.0259 0.9260
vn -0.5210 0.7933 -0.3151
vn -0.6901 0.5912 -0.4174
vn 0.4076 0.0953 -0.9082
vn 0.5320 -0.1537 -0.8327
vn -0.1414 0.9863 -0.0855
vn 0.7527 -0.4754 0.4553
vn 0.1582 0.9828 0.0957
vn -0.7527 0.4756 -0.4553
vn 0.4025 0.0785 -0.9120
vn 0.5773 -0.1307 -0.8060
vn -0.4970 0.8247 -0.2700
vn -0.1261 0.9838 -0.1275
vn 0.3026 0.2161 -0.9283
vn 0.8138 0.2540 0.5227
vn -0.4148 -0.8582 -0.3024
vn 0.6039 -0.2372 -0.7609
vn -0.6854 0.2459 0.6854
vn -0.6752 0.2066 0.7081
vn -0.5870 0.2670 0.7643
vn -0.5184 0.2960 0.8023
vn 0.2867 0.2472 -0.9256
vn 0.4051 0.2648 -0.8751
vn 0.4699 0.2938 -0.8324
vn -0.3599 0.1084 0.9267
vn -0.2658 -0.0998 0.9588
vn -0.2022 0.0135 0.9792
vn -0.3778 -0.2534 0.8905
vn -0.5164 -0.2918 0.8051
vn -0.6065 -0.2963 0.7378
vn 0.7746 0.0125 -0.6324
vn 0.7270 -0.1011 -0.6792
vn 0.4734 -0.2898 -0.8318
vn 0.3725 -0.2942 -0.8802
vn 0.2985 0.9372 0.1805
vn -0.8413 0.1828 -0.5088
vn -0.6735 0.3137 0.6693
vn -0.5024 0.1982 0.8416
vn 0.2775 0.3149 -0.9077
s 1
f 90//117 77//118 98//119 109//120
f 83//121 85//122 103//123 101//124
f 85//122 86//125 105//126 103//123
f 88//127 94//128 114//129 106//130
f 102//131 111//131 108//132 100//132
f 104//133 113//133 111//131 102//131
f 107//134 113//133 104//133
f 80//135 83//121 101//124 99//136
f 82//137 81//138 89//138 93//137
f 94//128 92//139 112//140 114//129
f 84//141 82//137 93//137 95//141
f 100//132 108//132 97//142
f 87//143 84//141 95//141
f 81//138 78//144 89//138
f 91//145 90//117 109//120 110//146
f 77//147 78//147 79//147
f 86//148 87//148 88//148
f 91//145 92//139 93//149
f 96//150 97//150 98//150
f 105//151 106//151 107//151
f 110//146 111//152 112//140
f 81//153 82//154 83//121 80//135
f 82//154 84//155 85//122 83//121
f 84//155 87//156 86//125 85//122
f 90//117 91//145 93//149 89//157
f 92//139 94//128 95//158 93//149
f 94//128 88//127 87//159 95//158
f 96//160 99//136 100//161 97//162
f 99//136 101//124 102//163 100//161
f 101//124 103//123 104//164 102//163
f 103//123 105//126 107//165 104//164
f 97//166 108//167 109//120 98//119
f 108//167 111//152 110//146 109//120
f 111//152 113//168 114//129 112//140
f 113//168 107//169 106//130 114//129
f 112//140 92//139 91//145 110//146
f 98//170 77//170 79//170 96//170
f 88//171 106//171 105//171 86//171
f 78//172 81//153 80//135 79//173
f 77//118 90//117 89//157 78//174
f 79//173 80//135 99//136 96//160
