# Blender 3.6.2
# www.blender.org
o saco
v 0.000001 -0.258956 -0.493315
v 0.332506 -0.253600 -0.499035
v 0.656874 -0.283862 0.000000
v 0.660256 -0.276468 -0.259683
v 0.665133 -0.234793 -0.515516
v 0.969962 -0.015122 0.748778
v 0.000001 0.217356 -0.493315
v 0.000001 0.398444 0.000000
v 0.000001 0.355303 -0.262250
v 0.332506 0.211999 -0.499035
v 0.338711 0.366787 0.000000
v 0.337748 0.337167 -0.263240
v 0.665133 0.193192 -0.515516
v 0.656874 0.242261 0.000000
v 0.660256 0.234868 -0.259683
v -0.332504 -0.253600 -0.499035
v -0.656873 -0.283862 0.000000
v -0.660255 -0.276468 -0.259683
v -0.665132 -0.234793 -0.515516
v -0.969961 -0.015122 0.748778
v -0.332504 0.211999 -0.499035
v -0.338710 0.366787 0.000000
v -0.337747 0.337167 -0.263240
v -0.665132 0.193192 -0.515516
v -0.656873 0.242261 0.000000
v -0.660255 0.234868 -0.259683
v 0.000001 -0.258956 0.493315
v 0.332506 -0.253600 0.499035
v 0.660256 -0.276468 0.259683
v 0.665133 -0.234793 0.515516
v 0.969962 -0.015122 -0.748778
v 0.000001 0.217356 0.493315
v 0.000001 0.355303 0.262250
v 0.332506 0.211999 0.499035
v 0.337748 0.337167 0.263240
v 0.665133 0.193192 0.515516
v 0.660256 0.234868 0.259683
v -0.332504 -0.253600 0.499035
v -0.660255 -0.276468 0.259683
v -0.665132 -0.234793 0.515516
v -0.969961 -0.015122 -0.748778
v -0.332504 0.211999 0.499035
v -0.337747 0.337167 0.263240
v -0.665132 0.193192 0.515516
v -0.660255 0.234868 0.259683
v 0.837983 -0.043628 -0.631772
v 0.838009 -0.043628 -0.631884
v 0.837996 -0.043628 -0.631828
v 0.815773 0.043368 0.000000
v 0.808546 -0.124332 0.000000
v 0.842445 -0.041785 0.000000
v 0.844989 0.030814 -0.503134
v 0.837701 -0.109030 -0.503636
v 0.877009 -0.040980 -0.500930
v 0.654636 -0.118143 -0.616016
v 0.653953 0.039284 -0.622554
v 0.651659 -0.041169 -0.644523
v 0.000001 -0.128903 -0.578618
v 0.000001 0.047903 -0.585018
v 0.000001 -0.041796 -0.603661
v 0.814799 -0.122231 -0.252427
v 0.822098 0.041675 -0.252084
v 0.849560 -0.041666 -0.250795
v 0.326641 -0.126362 -0.588325
v 0.326217 0.045882 -0.594789
v 0.324937 -0.041643 -0.614267
v -0.838007 -0.043628 -0.631884
v -0.837982 -0.043628 -0.631772
v -0.837995 -0.043628 -0.631828
v -0.808545 -0.124332 0.000000
v -0.815772 0.043368 0.000000
v -0.842444 -0.041785 0.000000
v -0.837700 -0.109030 -0.503636
v -0.844988 0.030814 -0.503134
v -0.877007 -0.040980 -0.500930
v -0.653952 0.039284 -0.622554
v -0.654635 -0.118143 -0.616016
v -0.651658 -0.041169 -0.644523
v -0.822097 0.041675 -0.252084
v -0.814798 -0.122231 -0.252427
v -0.849559 -0.041666 -0.250795
v -0.326216 0.045882 -0.594789
v -0.326640 -0.126362 -0.588325
v -0.324936 -0.041643 -0.614267
v 0.838009 -0.043628 0.631884
v 0.837983 -0.043628 0.631772
v 0.837996 -0.043628 0.631828
v 0.837701 -0.109030 0.503636
v 0.844989 0.030814 0.503134
v 0.877009 -0.040980 0.500930
v 0.653953 0.039284 0.622554
v 0.654636 -0.118143 0.616017
v 0.651659 -0.041169 0.644523
v 0.000001 0.047903 0.585018
v 0.000001 -0.128903 0.578618
v 0.000001 -0.041796 0.603661
v 0.822098 0.041675 0.252084
v 0.814799 -0.122231 0.252427
v 0.849560 -0.041666 0.250795
v 0.326217 0.045882 0.594789
v 0.326641 -0.126362 0.588325
v 0.324937 -0.041643 0.614267
v -0.837982 -0.043628 0.631772
v -0.838007 -0.043628 0.631884
v -0.837995 -0.043628 0.631828
v -0.844988 0.030814 0.503134
v -0.837700 -0.109030 0.503636
v -0.877007 -0.040980 0.500930
v -0.654635 -0.118143 0.616017
v -0.653952 0.039284 0.622554
v -0.651658 -0.041169 0.644523
v -0.814798 -0.122231 0.252427
v -0.822097 0.041675 0.252084
v -0.849559 -0.041666 0.250795
v -0.326640 -0.126362 0.588325
v -0.326216 0.045882 0.594789
v -0.324936 -0.041643 0.614267
vn 0.7157 -0.6984 -0.0000
vn 0.8322 -0.5545 -0.0000
vn 0.8093 -0.5872 -0.0130
vn 0.6846 -0.7286 0.0227
vn -0.0000 0.6960 -0.7181
vn 0.0343 0.7347 -0.6776
vn -0.0417 0.3708 -0.9278
vn -0.0000 0.3509 -0.9364
vn 0.3381 0.7788 -0.5284
vn 0.1070 0.4472 -0.8880
vn 0.5724 0.8200 -0.0000
vn 0.8776 0.4794 -0.0000
vn 0.8600 0.5099 0.0202
vn 0.5192 0.8473 -0.1120
vn 0.7784 0.5733 -0.2556
vn 0.3522 -0.7658 -0.5380
vn 0.0955 -0.5276 -0.8441
vn 0.3164 -0.5557 -0.7688
vn 0.7244 -0.6506 -0.2280
vn 0.0417 0.3708 -0.9278
vn -0.0343 0.7347 -0.6776
vn -0.0000 -0.5617 -0.8273
vn 0.0199 -0.5881 -0.8085
vn 0.0377 -0.4485 -0.8930
vn -0.0000 -0.4257 -0.9048
vn -0.0000 1.0000 -0.0000
vn 0.2043 0.9789 -0.0000
vn 0.1512 0.9535 -0.2608
vn -0.0000 0.9467 -0.3222
vn 0.5192 0.8473 0.1120
vn 0.8600 0.5099 -0.0202
vn -0.0199 -0.5881 -0.8085
vn -0.0377 -0.4485 -0.8930
vn -0.7157 -0.6984 -0.0000
vn -0.6846 -0.7286 0.0227
vn -0.8093 -0.5872 -0.0130
vn -0.8322 -0.5545 -0.0000
vn -0.1070 0.4472 -0.8880
vn -0.3381 0.7788 -0.5284
vn -0.5724 0.8200 -0.0000
vn -0.5192 0.8473 -0.1120
vn -0.8600 0.5099 0.0202
vn -0.8776 0.4794 -0.0000
vn -0.7784 0.5733 -0.2556
vn -0.3522 -0.7658 -0.5380
vn -0.7244 -0.6506 -0.2280
vn -0.3164 -0.5557 -0.7688
vn -0.0955 -0.5276 -0.8441
vn -0.5656 0.4578 -0.6859
vn 0.3381 0.7788 0.5284
vn 0.1070 0.4472 0.8880
vn 0.5656 0.4578 0.6859
vn 0.7784 0.5733 0.2556
vn -0.1512 0.9535 -0.2608
vn -0.2043 0.9789 -0.0000
vn -0.8600 0.5099 -0.0202
vn -0.5192 0.8473 0.1120
vn 0.7244 -0.6506 0.2280
vn 0.3522 -0.7658 0.5380
vn -0.0000 0.6960 0.7181
vn -0.0000 0.3509 0.9364
vn -0.0417 0.3708 0.9278
vn 0.0343 0.7347 0.6776
vn 0.6846 -0.7286 -0.0227
vn 0.8093 -0.5872 0.0130
vn 0.3164 -0.5557 0.7688
vn 0.0955 -0.5276 0.8441
vn -0.0343 0.7347 0.6776
vn 0.0417 0.3708 0.9278
vn -0.0000 -0.5617 0.8273
vn -0.0000 -0.4257 0.9048
vn 0.0377 -0.4485 0.8930
vn 0.0199 -0.5881 0.8085
vn -0.0000 0.9467 0.3222
vn 0.1512 0.9535 0.2608
vn -0.0199 -0.5881 0.8085
vn -0.0377 -0.4485 0.8930
vn -0.3522 -0.7658 0.5380
vn -0.7244 -0.6506 0.2280
vn -0.3381 0.7788 0.5284
vn -0.1070 0.4472 0.8880
vn -0.8093 -0.5872 0.0130
vn -0.6846 -0.7286 -0.0227
vn -0.7784 0.5733 0.2556
vn -0.0955 -0.5276 0.8441
vn -0.3164 -0.5557 0.7688
vn -0.5656 0.4578 0.6859
vn -0.1512 0.9535 0.2608
vn -0.0000 -1.0000 -0.0000
vn 0.8445 -0.4778 -0.2418
vn 0.8808 -0.4675 -0.0751
vn 0.9217 0.3777 -0.0882
vn 0.8821 0.3854 -0.2709
vn 0.5656 0.4578 -0.6859
vn -0.0118 -0.3327 -0.9430
vn 0.0590 -0.3441 -0.9371
vn 0.0693 0.2616 -0.9627
vn -0.0080 0.2516 -0.9678
vn 0.9072 -0.4177 0.0500
vn 0.9216 -0.3882 -0.0000
vn 0.9520 0.3061 -0.0000
vn 0.9415 0.3324 0.0553
vn -0.0575 -0.0386 -0.9976
vn -0.0000 -0.0372 -0.9993
vn -0.8821 0.3854 -0.2709
vn -0.9217 0.3777 -0.0882
vn -0.8808 -0.4675 -0.0751
vn -0.8445 -0.4778 -0.2418
vn 0.0080 0.2516 -0.9678
vn -0.0693 0.2616 -0.9627
vn -0.0590 -0.3441 -0.9371
vn 0.0118 -0.3327 -0.9430
vn -0.9415 0.3324 0.0553
vn -0.9520 0.3061 -0.0000
vn -0.9216 -0.3882 -0.0000
vn -0.9072 -0.4177 0.0500
vn 0.0575 -0.0386 -0.9976
vn 0.8821 0.3854 0.2709
vn 0.9217 0.3777 0.0882
vn 0.8808 -0.4675 0.0751
vn 0.8445 -0.4778 0.2418
vn -0.0080 0.2516 0.9678
vn 0.0693 0.2616 0.9627
vn 0.0590 -0.3441 0.9371
vn -0.0118 -0.3327 0.9430
vn 0.9415 0.3324 -0.0553
vn 0.9072 -0.4177 -0.0500
vn -0.0575 -0.0386 0.9976
vn -0.0000 -0.0372 0.9993
vn -0.8445 -0.4778 0.2418
vn -0.8808 -0.4675 0.0751
vn -0.9217 0.3777 0.0882
vn -0.8821 0.3854 0.2709
vn 0.0118 -0.3327 0.9430
vn -0.0590 -0.3441 0.9371
vn -0.0693 0.2616 0.9627
vn 0.0080 0.2516 0.9678
vn -0.9072 -0.4177 -0.0500
vn -0.9415 0.3324 -0.0553
vn 0.0575 -0.0386 0.9976
vt 0.796386 0.676007
vt 0.796386 0.636355
vt 0.858772 0.636150
vt 0.858366 0.675470
vt 0.471785 0.299934
vt 0.472219 0.208312
vt 0.526084 0.208352
vt 0.525379 0.299934
vt 0.476191 0.116865
vt 0.529858 0.116215
vt 0.526084 0.208352
vt 0.294556 0.120913
vt 0.294556 0.054947
vt 0.385413 0.055070
vt 0.385664 0.121068
vt 0.385413 0.055070
vt 0.476367 0.053094
vt 0.675013 0.674185
vt 0.644773 0.671932
vt 0.637101 0.633746
vt 0.672231 0.636680
vt 0.526084 0.391515
vt 0.472219 0.391555
vt 0.678135 0.797279
vt 0.677483 0.859739
vt 0.646629 0.860057
vt 0.647381 0.797279
vt 0.294556 0.299934
vt 0.294556 0.212060
vt 0.383713 0.211125
vt 0.383101 0.299934
vt 0.203448 0.121068
vt 0.203699 0.055070
vt 0.294556 0.054947
vt 0.677483 0.734819
vt 0.646629 0.734501
vt 0.796386 0.918551
vt 0.858366 0.919088
vt 0.858772 0.958409
vt 0.796386 0.958203
vt 0.647381 0.797279
vt 0.646629 0.734501
vt 0.529858 0.483652
vt 0.476191 0.483003
vt 0.294556 0.478954
vt 0.385664 0.478800
vt 0.385413 0.544797
vt 0.294556 0.544920
vt 0.476367 0.546774
vt 0.385413 0.544797
vt 0.675013 0.920373
vt 0.672231 0.957879
vt 0.637101 0.960813
vt 0.644773 0.922626
vt 0.531875 0.544103
vt 0.112921 0.116865
vt 0.059254 0.116215
vt 0.057238 0.055764
vt 0.112746 0.053094
vt 0.383713 0.388742
vt 0.294556 0.387808
vt 0.203699 0.544798
vt 0.203448 0.478800
vt 0.644773 0.922626
vt 0.646629 0.860057
vt 0.858772 0.636150
vt 0.920541 0.636679
vt 0.917759 0.674185
vt 0.117327 0.299934
vt 0.063733 0.299934
vt 0.063028 0.208352
vt 0.116894 0.208312
vt 0.063028 0.208352
vt 0.059254 0.116215
vt 0.734406 0.675470
vt 0.734000 0.636150
vt 0.112746 0.053094
vt 0.203699 0.055070
vt 0.920541 0.636679
vt 0.955671 0.633745
vt 0.948000 0.671932
vt 0.116894 0.391556
vt 0.063028 0.391515
vt 0.914637 0.797279
vt 0.945392 0.797279
vt 0.946143 0.860058
vt 0.915290 0.859739
vt 0.206011 0.299934
vt 0.205399 0.211125
vt 0.672231 0.636679
vt 0.734000 0.636150
vt 0.915290 0.734819
vt 0.946143 0.734501
vt 0.917759 0.920374
vt 0.920541 0.957879
vt 0.112921 0.483003
vt 0.059254 0.483652
vt 0.063028 0.391515
vt 0.734000 0.958408
vt 0.734406 0.919088
vt 0.112746 0.546774
vt 0.948000 0.922626
vt 0.955671 0.960813
vt 0.920541 0.957879
vt 0.112746 0.546774
vt 0.057238 0.544104
vt 0.059254 0.483652
vt 0.205399 0.388742
vt 0.946143 0.860058
vt 0.948000 0.922626
vt 0.640366 0.613083
vt 0.670785 0.617175
vt 0.476447 0.023858
vt 0.521758 0.023047
vt 0.531875 0.055764
vt 0.476366 0.053094
vt 0.625456 0.670494
vt 0.617096 0.639730
vt 0.563840 0.069143
vt 0.558769 0.115865
vt 0.529858 0.116215
vt 0.733793 0.616111
vt 0.796386 0.616296
vt 0.294556 0.026094
vt 0.385303 0.025929
vt 0.670946 0.617172
vt 0.476213 0.023863
vt 0.626567 0.734294
vt 0.625464 0.670970
vt 0.558742 0.116555
vt 0.555109 0.208374
vt 0.627215 0.797279
vt 0.554328 0.299934
vt 0.521759 0.576820
vt 0.476447 0.576009
vt 0.670785 0.977383
vt 0.640366 0.981475
vt 0.558769 0.484002
vt 0.563840 0.530725
vt 0.617096 0.954829
vt 0.625456 0.924065
vt 0.385303 0.573938
vt 0.294556 0.573773
vt 0.796386 0.978262
vt 0.733793 0.978447
vt 0.476213 0.576004
vt 0.670946 0.977386
vt 0.555109 0.391493
vt 0.558742 0.483312
vt 0.625464 0.923589
vt 0.626567 0.860264
vt 0.067354 0.023047
vt 0.112665 0.023858
vt 0.921988 0.617175
vt 0.952406 0.613083
vt 0.030343 0.115865
vt 0.025272 0.069143
vt 0.975677 0.639729
vt 0.967317 0.670493
vt 0.203809 0.025929
vt 0.858979 0.616111
vt 0.112899 0.023863
vt 0.921826 0.617172
vt 0.034003 0.208374
vt 0.030370 0.116555
vt 0.967308 0.670969
vt 0.966205 0.734294
vt 0.034784 0.299934
vt 0.965557 0.797279
vt 0.952406 0.981476
vt 0.921988 0.977384
vt 0.112665 0.576010
vt 0.067354 0.576820
vt 0.967317 0.924065
vt 0.975677 0.954829
vt 0.025273 0.530725
vt 0.030343 0.484002
vt 0.858979 0.978447
vt 0.203809 0.573938
vt 0.921826 0.977386
vt 0.112899 0.576004
vt 0.966205 0.860264
vt 0.967309 0.923589
vt 0.030370 0.483312
vt 0.034003 0.391493
s 1
f 3/1/1 50/2/2 98/3/3 29/4/4
f 7/5/5 10/6/6 65/7/7 59/8/8
f 10/6/6 13/9/9 56/10/10 65/11/7
f 14/12/11 49/13/12 62/14/13 15/15/14
f 15/15/14 62/16/13 52/17/15 13/9/9
f 5/18/16 55/19/17 47/20/18 53/21/19
f 7/5/5 59/8/8 82/22/20 21/23/21
f 1/24/22 16/25/23 83/26/24 58/27/25
f 8/28/26 11/29/27 12/30/28 9/31/29
f 9/31/29 12/30/28 10/6/6 7/5/5
f 11/29/27 14/12/11 15/15/14 12/30/28
f 12/30/28 15/15/14 13/9/9 10/6/6
f 14/12/11 37/32/30 97/33/31 49/34/12
f 2/35/32 64/36/33 55/19/17 5/18/16
f 17/37/34 39/38/35 112/39/36 70/40/37
f 1/24/22 58/41/25 64/42/33 2/35/32
f 21/23/21 82/22/20 76/43/38 24/44/39
f 25/45/40 26/46/41 79/47/42 71/48/43
f 26/46/41 24/44/39 74/49/44 79/50/42
f 19/51/45 73/52/46 67/53/47 77/54/48
f 24/44/39 76/43/38 68/55/49 74/49/44
f 36/56/50 91/57/51 86/58/52 89/59/53
f 8/28/26 9/31/29 23/60/54 22/61/55
f 9/31/29 7/5/5 21/23/21 23/60/54
f 22/61/55 23/60/54 26/46/41 25/45/40
f 23/60/54 21/23/21 24/44/39 26/46/41
f 25/45/40 71/48/43 113/62/56 45/63/57
f 16/25/23 19/51/45 77/64/48 83/65/24
f 29/4/4 98/66/3 88/67/58 30/68/59
f 32/69/60 94/70/61 100/71/62 34/72/63
f 34/72/63 100/73/62 91/74/51 36/56/50
f 3/1/1 4/75/64 61/76/65 50/2/2
f 37/32/30 36/56/50 89/77/53 97/78/31
f 30/68/59 88/79/58 85/80/66 92/81/67
f 32/69/60 42/82/68 116/83/69 94/70/61
f 27/84/70 95/85/71 115/86/72 38/87/73
f 8/28/26 33/88/74 35/89/75 11/29/27
f 33/88/74 32/69/60 34/72/63 35/89/75
f 11/29/27 35/89/75 37/32/30 14/12/11
f 35/89/75 34/72/63 36/56/50 37/32/30
f 4/75/64 5/18/16 53/90/19 61/91/65
f 28/92/76 30/68/59 92/81/67 101/93/77
f 39/38/35 40/94/78 107/95/79 112/39/36
f 27/84/70 28/92/76 101/93/77 95/85/71
f 42/82/68 44/96/80 110/97/81 116/98/69
f 17/37/34 70/40/37 80/99/82 18/100/83
f 45/63/57 113/62/56 106/101/84 44/96/80
f 40/94/78 109/102/85 104/103/86 107/104/79
f 44/96/80 106/105/84 103/106/87 110/107/81
f 8/28/26 22/61/55 43/108/88 33/88/74
f 33/88/74 43/108/88 42/82/68 32/69/60
f 22/61/55 25/45/40 45/63/57 43/108/88
f 43/108/88 45/63/57 44/96/80 42/82/68
f 18/100/83 80/99/82 73/52/46 19/51/45
f 38/87/73 115/109/72 109/110/85 40/94/78
f 3/1/89 29/4/89 30/68/89 28/92/89 27/84/89 38/87/89 40/94/89 39/38/89 17/37/89 18/100/89 19/51/89 16/25/89 1/24/89 2/35/89 5/18/89 4/75/89
f 53/21/19 47/20/18 48/111/90 54/112/91
f 54/113/92 48/114/93 46/115/94 52/116/15
f 47/20/18 55/19/17 57/117/95 48/118/96
f 48/119/97 57/120/98 56/121/10 46/115/94
f 50/2/2 61/76/65 63/122/99 51/123/100
f 51/124/101 63/125/102 62/14/13 49/13/12
f 61/91/65 53/90/19 54/126/91 63/122/99
f 63/125/102 54/127/92 52/17/15 62/16/13
f 55/19/17 64/36/33 66/128/103 57/129/95
f 57/130/98 66/131/103 65/11/7 56/10/10
f 64/42/33 58/41/25 60/132/104 66/128/103
f 66/131/103 60/133/104 59/8/8 65/7/7
f 74/49/44 68/55/49 69/134/105 75/135/106
f 75/136/107 69/137/108 67/53/47 73/52/46
f 68/55/49 76/43/38 78/138/109 69/139/110
f 69/140/111 78/141/112 77/54/48 67/53/47
f 71/48/43 79/47/42 81/142/113 72/143/114
f 72/144/115 81/145/116 80/99/82 70/40/37
f 79/50/42 74/49/44 75/146/106 81/142/113
f 81/145/116 75/147/107 73/52/46 80/99/82
f 76/43/38 82/22/20 84/148/117 78/149/109
f 78/150/112 84/151/117 83/65/24 77/64/48
f 82/22/20 59/8/8 60/133/104 84/148/117
f 84/151/117 60/132/104 58/27/25 83/26/24
f 89/59/53 86/58/52 87/152/118 90/153/119
f 90/154/120 87/155/121 85/80/66 88/79/58
f 86/58/52 91/57/51 93/156/122 87/157/123
f 87/158/124 93/159/125 92/81/67 85/80/66
f 49/34/12 97/33/31 99/160/126 51/124/101
f 51/123/100 99/161/127 98/3/3 50/2/2
f 97/78/31 89/77/53 90/162/119 99/160/126
f 99/161/127 90/163/120 88/67/58 98/66/3
f 91/74/51 100/73/62 102/164/128 93/165/122
f 93/166/125 102/167/128 101/93/77 92/81/67
f 100/71/62 94/70/61 96/168/129 102/164/128
f 102/167/128 96/169/129 95/85/71 101/93/77
f 107/104/79 104/103/86 105/170/130 108/171/131
f 108/172/132 105/173/133 103/106/87 106/105/84
f 104/103/86 109/102/85 111/174/134 105/175/135
f 105/176/136 111/177/137 110/107/81 103/106/87
f 70/40/37 112/39/36 114/178/138 72/144/115
f 72/143/114 114/179/139 113/62/56 71/48/43
f 112/39/36 107/95/79 108/180/131 114/178/138
f 114/179/139 108/181/132 106/101/84 113/62/56
f 109/110/85 115/109/72 117/182/140 111/183/134
f 111/184/137 117/185/140 116/98/69 110/97/81
f 115/86/72 95/85/71 96/169/129 117/182/140
f 117/185/140 96/168/129 94/70/61 116/83/69
f 13/9/9 52/116/15 46/115/94 56/121/10
