# Blender 3.6.2
# www.blender.org
o BonecoAlvo
v 81.908318 27.028702 -30.483377
v 78.759605 27.028702 -30.478792
v 81.908318 27.521557 -30.483377
v 78.759605 27.521557 -30.478792
v 81.750610 28.014414 -30.483377
v 78.917305 28.014414 -30.478792
v 81.466331 28.507271 -30.483377
v 79.201591 28.507271 -30.478792
v 81.466331 29.000128 -30.483377
v 79.201591 29.000128 -30.478792
v 81.466331 29.492985 -30.483377
v 79.201591 29.492985 -30.478792
v 81.750610 29.985840 -30.483377
v 78.917305 29.985840 -30.478792
v 81.965897 30.478697 -30.483377
v 78.702019 30.478697 -30.478792
v 81.967537 30.971554 -30.483377
v 78.700378 30.971554 -30.478792
v 81.921173 31.464411 -30.483377
v 78.746750 31.464411 -30.478792
v 80.800797 31.971481 -30.505089
v 79.867126 31.971481 -30.500889
v 80.800797 32.334560 -30.505089
v 79.867126 32.334560 -30.500889
v 81.021385 33.073727 -30.483379
v 79.646530 33.073727 -30.478800
v 81.790962 26.998852 -31.008995
v 81.790962 27.491709 -31.008995
v 78.948723 26.971653 -31.016548
v 78.948723 27.464510 -31.016548
v 81.633255 27.984566 -31.008995
v 79.106430 27.957365 -31.016548
v 81.348976 28.477421 -31.008995
v 79.390709 28.450224 -31.016548
v 81.348976 28.970278 -31.008995
v 79.390709 28.943079 -31.016548
v 81.348976 29.463137 -31.008995
v 79.390709 29.435936 -31.016548
v 81.633255 29.955992 -31.008995
v 79.106430 29.928793 -31.016548
v 81.848541 30.448851 -31.008995
v 78.891144 30.421650 -31.016548
v 81.850182 30.941706 -31.008995
v 78.889503 30.914507 -31.016548
v 81.803818 31.434561 -31.008995
v 78.935867 31.407362 -31.016548
v 80.693283 31.944134 -30.986658
v 80.040413 31.919209 -30.993580
v 80.693298 32.307209 -30.986658
v 80.040443 32.282291 -30.993582
v 80.904060 33.043873 -31.008995
v 79.835724 33.016674 -31.016556
v 80.524246 24.078768 -30.734369
v 80.504021 24.078768 -30.774059
v 80.472519 24.078768 -30.805557
v 80.432831 24.078768 -30.825783
v 80.388832 24.078768 -30.832750
v 80.344833 24.078768 -30.825783
v 80.305145 24.078768 -30.805557
v 80.273651 24.078768 -30.774059
v 80.253426 24.078768 -30.734369
v 80.246452 24.078768 -30.690372
v 80.253426 24.078768 -30.646376
v 80.273651 24.078768 -30.606686
v 80.305145 24.078768 -30.575188
v 80.344833 24.078768 -30.554964
v 80.388832 24.078768 -30.547995
v 80.432831 24.078768 -30.554964
v 80.472519 24.078768 -30.575188
v 80.504021 24.078768 -30.606686
v 80.524246 24.078768 -30.646376
v 80.531212 24.078768 -30.690372
v 80.524246 27.055809 -30.734369
v 80.504021 27.055809 -30.774059
v 80.472519 27.055809 -30.805557
v 80.432831 27.055809 -30.825783
v 80.388832 27.055809 -30.832750
v 80.344833 27.055809 -30.825783
v 80.305145 27.055809 -30.805557
v 80.273651 27.055809 -30.774059
v 80.253426 27.055809 -30.734369
v 80.246452 27.055809 -30.690372
v 80.253426 27.055809 -30.646376
v 80.273651 27.055809 -30.606686
v 80.305145 27.055809 -30.575188
v 80.344833 27.055809 -30.554964
v 80.388832 27.055809 -30.547995
v 80.432831 27.055809 -30.554964
v 80.472519 27.055809 -30.575188
v 80.504021 27.055809 -30.606686
v 80.524246 27.055809 -30.646376
v 80.531212 27.055809 -30.690372
v 80.388832 24.078768 -30.690372
v 80.388832 27.055809 -30.690372
v 80.994202 32.738430 -30.459232
v 79.673721 32.738430 -30.454222
v 79.880539 32.676060 -31.042103
v 80.865936 32.705791 -31.033840
v 80.925247 33.579201 -30.462761
v 79.742668 33.579201 -30.457811
v 79.946930 33.517601 -31.038370
v 80.798576 33.546974 -31.030214
v 80.690895 33.850731 -30.547024
v 80.691177 33.850292 -30.546534
v 79.992683 33.850292 -30.542801
v 79.993027 33.850708 -30.543291
v 80.595680 33.826008 -30.974314
v 80.595619 33.826500 -30.973820
v 80.146675 33.804371 -30.979973
v 80.146667 33.803844 -30.980461
v 81.348976 28.970278 -31.008995
v 81.348976 29.463137 -31.008995
v 80.040443 32.282291 -30.993582
v 79.880539 32.676060 -31.042103
v 78.948723 27.464510 -31.016548
v 79.106430 27.957365 -31.016548
v 81.848541 30.448851 -31.008995
v 81.850182 30.941706 -31.008995
v 78.889503 30.914507 -31.016548
v 78.935867 31.407362 -31.016548
v 79.390709 28.450224 -31.016548
v 81.803818 31.434561 -31.008995
v 79.835724 33.016674 -31.016556
v 79.390709 29.435936 -31.016548
v 79.106430 29.928793 -31.016548
v 79.946930 33.517601 -31.038370
v 81.633255 27.984566 -31.008995
v 81.348976 28.477421 -31.008995
v 80.693298 32.307209 -30.986658
v 80.865936 32.705791 -31.033840
v 81.633255 29.955992 -31.008995
v 78.891144 30.421650 -31.016548
v 80.040413 31.919209 -30.993580
v 78.948723 26.971653 -31.016548
v 79.390709 28.943079 -31.016548
v 80.904060 33.043873 -31.008995
v 80.798576 33.546974 -31.030214
v 80.693283 31.944134 -30.986658
v 81.790962 27.491709 -31.008995
v 81.790962 26.998852 -31.008995
v 80.595680 33.826008 -30.974314
v 80.146667 33.803844 -30.980461
vn 0.9598 -0.2806 0.0001
vn 0.8025 -0.2731 -0.5305
vn 0.8034 0.0594 -0.5925
vn 0.9968 0.0800 0.0001
vn 0.8101 -0.0000 -0.5863
vn 0.8119 -0.1867 -0.5532
vn 0.9608 -0.2771 -0.0000
vn 1.0000 -0.0000 -0.0000
vn 0.1939 -0.9300 0.3123
vn -0.0883 -0.9859 0.1422
vn -0.0000 -1.0000 -0.0000
vn 0.0020 0.0050 1.0000
vn -0.6253 0.1834 -0.7585
vn -0.5961 0.2716 -0.7556
vn -0.9125 0.4092 -0.0000
vn -0.9608 0.2771 -0.0000
vn -0.6866 -0.1832 -0.7036
vn -0.6808 -0.3611 -0.6373
vn -0.8920 -0.4520 -0.0000
vn -0.9766 -0.2149 -0.0000
vn -0.6679 -0.0000 -0.7443
vn -1.0000 -0.0000 -0.0000
vn 0.7742 -0.4059 -0.4856
vn 0.8104 -0.2058 -0.5486
vn 0.9766 -0.2149 -0.0000
vn 0.8920 -0.4520 -0.0000
vn 0.7703 0.2210 -0.5982
vn 0.9608 0.2771 -0.0000
vn -0.3242 0.7268 -0.6056
vn -0.4123 0.9110 -0.0000
vn 0.3713 0.8276 -0.4210
vn 0.4123 0.9110 -0.0000
vn -0.6844 -0.1401 -0.7156
vn -0.9608 -0.2771 -0.0000
vn 0.9653 -0.2612 -0.0000
vn 0.8111 -0.1977 -0.5506
vn -0.6855 -0.1592 -0.7105
vn -0.6678 -0.0000 -0.7443
vn -1.0000 -0.0000 -0.0001
vn -0.9653 -0.2613 -0.0001
vn -0.0000 -0.0000 -1.0000
vn -0.0000 -0.0000 -0.0000
vn -0.6562 0.0617 -0.7520
vn -0.6633 0.0261 -0.7479
vn -0.9990 0.0452 -0.0000
vn -0.9956 0.0936 -0.0000
vn -0.6484 0.0972 -0.7551
vn -0.9874 0.1579 -0.0000
vn 0.9398 0.3125 -0.1381
vn 0.7688 0.5330 -0.3534
vn 0.7931 0.1226 -0.5966
vn 0.9874 0.1580 -0.0000
vn -0.9598 -0.2806 -0.0002
vn -0.6873 -0.2487 -0.6825
vn 0.7331 0.3344 -0.5922
vn 0.9125 0.4091 -0.0000
vn -0.9968 0.0800 -0.0002
vn -0.6592 0.0470 -0.7505
vn 0.8067 0.0334 -0.5900
vn 0.9990 0.0452 -0.0000
vn 1.0000 -0.0000 0.0001
vn -0.8366 0.1879 -0.5146
vn -0.8162 0.5243 -0.2428
vn 0.9511 -0.0000 -0.3090
vn 0.8090 -0.0000 -0.5878
vn 0.5878 -0.0000 -0.8090
vn 0.3090 -0.0000 -0.9510
vn -0.3090 -0.0000 -0.9511
vn -0.5878 -0.0000 -0.8090
vn -0.8090 -0.0000 -0.5878
vn -0.9510 -0.0000 -0.3091
vn -0.9510 -0.0000 0.3091
vn -0.8090 -0.0000 0.5878
vn -0.5878 -0.0000 0.8090
vn -0.3090 -0.0000 0.9510
vn -0.0000 -0.0000 1.0000
vn 0.3090 -0.0000 0.9510
vn 0.5878 -0.0000 0.8090
vn 0.8090 -0.0000 0.5878
vn 0.9511 -0.0000 0.3090
vn -0.0000 1.0000 -0.0000
vn 0.8012 0.0753 -0.5937
vn 0.9956 0.0936 -0.0000
vn -0.0191 0.9964 -0.0827
vn 0.7715 0.6019 -0.2064
vn -0.7441 0.5843 -0.3238
vn -0.0072 0.9677 -0.2518
vn -0.0129 0.9239 -0.3825
vn -0.0243 0.6933 -0.7202
vn 0.0025 0.3008 0.9537
vn 0.0026 0.3165 0.9486
vn 0.0035 0.7537 0.6572
vn 0.9932 0.0457 -0.1069
vn -0.9855 -0.1315 0.1072
vn -0.9776 -0.0711 0.1981
vn 0.9782 -0.0620 0.1982
vn 0.9673 -0.1627 0.1946
vn -0.9596 -0.0960 0.2644
vn 0.0080 0.9999 -0.0063
vn 0.9937 0.0310 -0.1073
vn -0.9861 0.1266 0.1073
vn 0.4119 -0.0798 -0.9077
vn 0.9505 -0.1436 0.2756
vn -0.9694 -0.1552 0.1902
vn 0.9131 -0.1284 0.3869
vn -0.0070 0.9999 -0.0086
vn -0.9565 -0.1794 -0.2302
vn 0.9409 0.2538 0.2244
vn -0.9910 0.0336 -0.1292
vn -0.4304 -0.1102 -0.8959
vn -0.9589 -0.2036 -0.1978
vn 0.9760 0.0887 0.1990
vn -0.6708 -0.3549 -0.6512
vn 0.6610 -0.3475 -0.6651
vn -0.6727 -0.2931 -0.6794
vn 0.6252 -0.4400 0.6446
vn 0.8653 0.1585 0.4755
vn -0.9867 0.0493 0.1551
vn 0.0037 0.0032 -1.0000
vt 0.858724 0.014411
vt 0.853064 0.012603
vt 0.854717 0.008998
vt 0.860029 0.011269
vt 0.852607 0.084294
vt 0.851489 0.074965
vt 0.862028 0.073222
vt 0.863148 0.082392
vt 0.392621 0.157485
vt 0.443916 0.005784
vt 0.477692 0.002656
vt 0.416674 0.181892
vt 0.000000 0.000000
vt 0.951998 0.075088
vt 0.948992 0.070172
vt 0.955641 0.069962
vt 0.954196 0.072993
vt 0.968728 0.057977
vt 0.964942 0.065690
vt 0.958062 0.060576
vt 0.960870 0.052768
vt 0.956339 0.075259
vt 0.954331 0.071793
vt 0.851819 0.064280
vt 0.852065 0.054471
vt 0.861441 0.053390
vt 0.861716 0.062811
vt 0.853587 0.093729
vt 0.864548 0.091713
vt 0.988199 0.029746
vt 0.975959 0.042731
vt 0.968162 0.038566
vt 0.980061 0.025395
vt 0.852509 0.037937
vt 0.849768 0.021566
vt 0.857287 0.021849
vt 0.860180 0.037843
vt 0.960980 0.072473
vt 0.955746 0.067752
vt 0.857248 0.017964
vt 0.851195 0.016681
vt 0.989675 0.025131
vt 0.982411 0.020892
vt 0.972807 0.050577
vt 0.964255 0.045540
vt 0.946853 0.061312
vt 0.958909 0.063348
vt 0.862482 0.006629
vt 0.857358 0.004134
vt 0.870298 0.122000
vt 0.859508 0.123953
vt 0.858401 0.114363
vt 0.868981 0.112437
vt 0.984412 0.015886
vt 0.991537 0.020097
vt 0.856425 0.104440
vt 0.867053 0.102498
vt 0.986181 0.011460
vt 0.993183 0.015646
vt 0.851935 0.045886
vt 0.860847 0.045290
vt 0.948926 0.045372
vt 0.963248 0.052921
vt 0.996868 0.009551
vt 0.989730 0.005265
vt 0.477911 0.000000
vt 0.483223 0.000000
vt 0.483223 0.159367
vt 0.477911 0.159367
vt 0.488536 0.000000
vt 0.488536 0.159367
vt 0.493848 0.000000
vt 0.493848 0.159367
vt 0.499160 0.000000
vt 0.499160 0.159367
vt 0.504472 0.000000
vt 0.504472 0.159367
vt 0.509785 0.000000
vt 0.509785 0.159367
vt 0.515097 0.000000
vt 0.515097 0.159367
vt 0.520409 0.000000
vt 0.520409 0.159367
vt 0.525721 0.000000
vt 0.525721 0.159367
vt 0.531034 0.000000
vt 0.531034 0.159367
vt 0.536346 0.000000
vt 0.536346 0.159367
vt 0.541658 0.000000
vt 0.541658 0.159367
vt 0.546970 0.000000
vt 0.546970 0.159367
vt 0.552283 0.000000
vt 0.552283 0.159367
vt 0.557595 0.000000
vt 0.557595 0.159367
vt 0.562907 0.000000
vt 0.562907 0.159367
vt 0.568219 0.000000
vt 0.568219 0.159367
vt 0.573531 0.000000
vt 0.573531 0.159367
vt 0.578844 0.000000
vt 0.578844 0.159367
vt 0.584156 0.000000
vt 0.584156 0.159367
vt 0.704280 0.027372
vt 0.713712 0.045883
vt 0.650559 0.066403
vt 0.689590 0.012682
vt 0.671079 0.003250
vt 0.650559 0.000000
vt 0.630039 0.003250
vt 0.611528 0.012682
vt 0.596838 0.027372
vt 0.587406 0.045883
vt 0.584156 0.066403
vt 0.587406 0.086923
vt 0.596838 0.105434
vt 0.611528 0.120124
vt 0.630039 0.129556
vt 0.650559 0.132806
vt 0.671079 0.129556
vt 0.689590 0.120124
vt 0.704280 0.105434
vt 0.713712 0.086923
vt 0.716962 0.066403
vt 0.846518 0.086923
vt 0.837086 0.105434
vt 0.783365 0.066403
vt 0.822396 0.120124
vt 0.803885 0.129556
vt 0.783365 0.132806
vt 0.762845 0.129556
vt 0.744334 0.120124
vt 0.729644 0.105434
vt 0.720212 0.086923
vt 0.720212 0.045883
vt 0.729644 0.027372
vt 0.744334 0.012682
vt 0.762845 0.003250
vt 0.783365 0.000000
vt 0.803885 0.003250
vt 0.822396 0.012682
vt 0.837086 0.027372
vt 0.846518 0.045883
vt 0.849768 0.066403
vt 0.999992 0.004366
vt 0.992753 0.000005
vt 0.864561 0.002683
vt 0.859608 0.000003
vt 0.864562 0.002683
vt 0.864564 0.002691
vt 0.859600 0.000005
vt 0.859608 0.000003
vt 0.992741 0.000007
vt 0.992753 0.000005
vt 0.999992 0.004366
vt 0.999996 0.004378
vt 0.859600 0.000005
vt 0.999996 0.004378
vt 0.992741 0.000007
vt 0.864564 0.002691
s 1
f 95/1/1 98/2/2 51/3/3 25/4/4
f 35/5/5 37/6/6 11/7/7 9/8/8
f 29/9/9 27/10/10 1/11/11 2/12/11
s 0
f 2/13/12 1/13/12 3/13/12 5/13/12 7/13/12 9/13/12 11/13/12 13/13/12 15/13/12 17/13/12 19/13/12 21/13/12 23/13/12 95/13/12 25/13/12 99/13/12 104/13/12 103/13/12 106/13/12 105/13/12 100/13/12 26/13/12 96/13/12 24/13/12 22/13/12 20/13/12 18/13/12 16/13/12 14/13/12 12/13/12 10/13/12 8/13/12 6/13/12 4/13/12
s 1
f 34/14/13 32/15/14 6/16/15 8/17/16
f 42/18/17 40/19/18 14/20/19 16/21/20
f 36/22/21 34/14/13 8/17/16 10/23/22
f 39/24/23 41/25/24 15/26/25 13/27/26
f 33/28/27 35/5/5 9/8/8 7/29/28
f 48/30/29 46/31/29 20/32/30 22/33/30
f 45/34/31 47/35/31 21/36/32 19/37/32
f 40/19/18 38/38/33 12/39/34 14/20/19
f 95/1/1 23/40/35 49/41/36 98/2/2
f 50/42/37 48/30/38 22/33/39 24/43/40
f 49/41/41 47/35/42 138/35/42 129/41/42
f 46/31/43 44/44/44 18/45/45 20/32/46
f 32/15/14 30/46/47 4/47/48 6/16/15
f 99/48/49 25/4/4 51/3/3 102/49/50
f 1/50/8 27/51/5 28/52/51 3/53/52
f 38/38/33 36/22/21 10/23/22 12/39/34
f 37/6/6 39/24/23 13/27/26 11/7/7
f 96/54/53 97/55/54 50/42/37 24/43/40
f 31/56/55 33/28/27 7/29/28 5/57/56
f 97/55/54 96/54/53 26/58/57 52/59/58
f 28/52/51 31/56/55 5/57/56 3/53/52
f 41/25/24 43/60/59 17/61/60 15/26/25
f 4/47/48 30/46/47 29/62/21 2/63/22
f 44/44/44 42/18/17 16/21/20 18/45/45
f 47/35/5 49/41/36 23/40/35 21/36/61
f 101/64/62 52/59/58 26/58/57 100/65/63
f 53/66/64 54/67/65 74/68/65 73/69/64
f 54/67/65 55/70/66 75/71/66 74/68/65
f 55/70/66 56/72/67 76/73/67 75/71/66
f 56/72/67 57/74/41 77/75/41 76/73/67
f 57/74/41 58/76/68 78/77/68 77/75/41
f 58/76/68 59/78/69 79/79/69 78/77/68
f 59/78/69 60/80/70 80/81/70 79/79/69
f 60/80/70 61/82/71 81/83/71 80/81/70
f 61/82/71 62/84/22 82/85/22 81/83/71
f 62/84/22 63/86/72 83/87/72 82/85/22
f 63/86/72 64/88/73 84/89/73 83/87/72
f 64/88/73 65/90/74 85/91/74 84/89/73
f 65/90/74 66/92/75 86/93/75 85/91/74
f 66/92/75 67/94/76 87/95/76 86/93/75
f 67/94/76 68/96/77 88/97/77 87/95/76
f 68/96/77 69/98/78 89/99/78 88/97/77
f 69/98/78 70/100/79 90/101/79 89/99/78
f 70/100/79 71/102/80 91/103/80 90/101/79
f 71/102/80 72/104/8 92/105/8 91/103/80
f 72/104/8 53/106/64 73/107/64 92/105/8
f 54/108/11 53/109/11 93/110/11
f 55/111/11 54/108/11 93/110/11
f 56/112/11 55/111/11 93/110/11
f 57/113/11 56/112/11 93/110/11
f 58/114/11 57/113/11 93/110/11
f 59/115/11 58/114/11 93/110/11
f 60/116/11 59/115/11 93/110/11
f 61/117/11 60/116/11 93/110/11
f 62/118/11 61/117/11 93/110/11
f 63/119/11 62/118/11 93/110/11
f 64/120/11 63/119/11 93/110/11
f 65/121/11 64/120/11 93/110/11
f 66/122/11 65/121/11 93/110/11
f 67/123/11 66/122/11 93/110/11
f 68/124/11 67/123/11 93/110/11
f 69/125/11 68/124/11 93/110/11
f 70/126/11 69/125/11 93/110/11
f 71/127/11 70/126/11 93/110/11
f 72/128/11 71/127/11 93/110/11
f 53/109/11 72/128/11 93/110/11
f 73/129/81 74/130/81 94/131/81
f 74/130/81 75/132/81 94/131/81
f 75/132/81 76/133/81 94/131/81
f 76/133/81 77/134/81 94/131/81
f 77/134/81 78/135/81 94/131/81
f 78/135/81 79/136/81 94/131/81
f 79/136/81 80/137/81 94/131/81
f 80/137/81 81/138/81 94/131/81
f 81/138/81 82/128/81 94/131/81
f 82/128/81 83/139/81 94/131/81
f 83/139/81 84/140/81 94/131/81
f 84/140/81 85/141/81 94/131/81
f 85/141/81 86/142/81 94/131/81
f 86/142/81 87/143/81 94/131/81
f 87/143/81 88/144/81 94/131/81
f 88/144/81 89/145/81 94/131/81
f 89/145/81 90/146/81 94/131/81
f 90/146/81 91/147/81 94/131/81
f 91/147/81 92/148/81 94/131/81
f 92/148/81 73/129/81 94/131/81
f 43/60/59 45/34/82 19/37/83 17/61/60
f 109/149/84 106/150/84 103/151/84 108/152/84
f 103/153/85 104/154/85 99/48/49 102/49/50 107/155/85 108/156/85
f 101/64/62 100/65/63 105/157/86 106/158/86 109/159/86 110/160/86
f 107/161/87 110/162/88 109/149/89 108/152/89
f 105/163/90 104/164/91 103/151/92 106/150/92
f 41/25/42 39/24/93 131/24/94 117/25/42
f 32/15/95 34/14/42 121/14/42 116/15/96
f 107/155/87 102/49/97 137/49/98 141/155/99
f 38/38/42 40/19/100 125/19/101 124/38/42
f 52/59/102 101/64/103 126/64/104 123/59/105
f 101/64/103 110/160/81 142/160/106 126/64/104
f 51/3/107 98/2/108 130/2/109 136/3/110
f 110/162/88 107/161/87 141/161/99 142/162/81
f 29/62/42 30/46/42 115/46/42 134/62/42
f 102/49/97 51/3/107 136/3/110 137/49/98
f 33/28/42 31/56/111 127/56/112 128/28/42
f 47/35/42 45/34/113 122/34/114 138/35/42
f 40/19/100 42/18/42 132/18/42 125/19/101
f 45/34/113 43/60/42 118/60/42 122/34/114
f 37/6/42 35/5/42 111/5/42 112/6/42
f 48/30/42 50/42/42 113/42/42 133/30/42
f 44/44/42 46/31/115 120/31/116 119/44/42
f 36/22/42 38/38/42 124/38/42 135/22/42
f 46/31/115 48/30/42 133/30/42 120/31/116
f 43/60/42 41/25/42 117/25/42 118/60/42
f 42/18/42 44/44/42 119/44/42 132/18/42
f 31/56/111 28/52/42 139/52/42 127/56/112
f 34/14/42 36/22/42 135/22/42 121/14/42
f 39/24/93 37/6/42 112/6/42 131/24/94
f 50/42/42 97/55/117 114/55/118 113/42/42
f 27/10/42 29/9/42 134/9/42 140/10/42
f 35/5/42 33/28/42 128/28/42 111/5/42
f 28/52/42 27/51/42 140/51/42 139/52/42
f 98/2/108 49/41/41 129/41/42 130/2/109
f 97/55/117 52/59/102 123/59/105 114/55/118
f 30/46/42 32/15/95 116/15/96 115/46/42
s 0
f 142/13/119 110/13/119 109/13/119 108/13/119 141/13/119 137/13/119 136/13/119 130/13/119 129/13/119 138/13/119 122/13/119 118/13/119 117/13/119 131/13/119 112/13/119 111/13/119 128/13/119 127/13/119 139/13/119 140/13/119 134/13/119 115/13/119 116/13/119 121/13/119 135/13/119 124/13/119 125/13/119 132/13/119 119/13/119 120/13/119 133/13/119 113/13/119 114/13/119 123/13/119 126/13/119
