# This file uses centimeters as units for non-parametric coordinates.

mtllib entrada.mtl
g default
v 14.281159 -0.206410 21.420444
v 14.281159 19.780543 21.420444
v 14.281159 -0.206410 21.844024
v 14.281159 19.780543 21.844024
v -14.132669 -0.206410 21.844024
v -14.132669 19.780543 21.844024
v -14.132669 -0.206410 21.420444
v -14.132669 19.780543 21.420444
v -12.713921 -0.206410 21.844024
v -12.713921 -0.206410 21.420444
v -12.713921 19.780543 21.420444
v -12.713921 19.780543 21.844024
v -8.081774 -0.206410 21.844024
v -8.081774 -0.206410 21.420444
v -8.081774 19.780543 21.420444
v -8.081774 19.780543 21.844024
v 14.281159 9.187956 21.420444
v 14.281159 9.187956 21.844024
v -8.081774 9.187956 21.844024
v -12.713921 9.187956 21.844024
v -14.132669 9.187956 21.844024
v -14.132669 9.187956 21.420444
v -12.713921 9.187956 21.420444
v -8.081774 9.187956 21.420444
v -12.713921 10.017477 21.844024
v -8.081774 10.017477 21.844024
v 14.281159 10.017477 21.844024
v 14.281159 10.017477 21.420444
v -8.081774 10.017477 21.420444
v -12.713920 10.017477 21.420444
v -14.132669 10.017477 21.420444
v -14.132669 10.017477 21.844024
v -13.466401 -0.206410 21.420444
v -13.466402 -0.206410 21.844024
v -13.466402 9.187956 21.844024
v -13.466401 10.017477 21.844024
v -13.466402 19.780543 21.844024
v -13.466401 19.780543 21.420444
v -13.466401 10.017477 21.420444
v -13.466401 9.187956 21.420444
v -7.277039 -0.206410 21.844024
v -7.277039 -0.206410 21.420444
v -7.277039 9.187956 21.420444
v -7.277038 10.017477 21.420444
v -7.277039 19.780543 21.420444
v -7.277039 19.780543 21.844024
v -7.277039 10.017477 21.844024
v -7.277038 9.187956 21.844024
v -12.713921 9.187956 21.191825
v -8.081774 9.187956 21.191825
v -12.713920 10.017477 21.191825
v -8.081774 10.017477 21.191825
v -13.466401 9.187956 21.191825
v -13.466401 10.017477 21.191825
v -13.466401 -0.206410 21.191825
v -12.713921 -0.206410 21.191825
v -8.081774 -0.206410 21.191825
v -7.277039 9.187956 21.191825
v -7.277039 -0.206410 21.191825
v -7.277038 10.017477 21.191825
vt 0.375000 0.000000
vt 0.625000 0.000000
vt 0.375000 0.250000
vt 0.625000 0.250000
vt 0.375000 0.500000
vt 0.625000 0.500000
vt 0.375000 0.750000
vt 0.625000 0.750000
vt 0.375000 1.000000
vt 0.625000 1.000000
vt 0.875000 0.000000
vt 0.875000 0.250000
vt 0.125000 0.000000
vt 0.125000 0.250000
vt 0.200000 0.250000
vt 0.375000 0.425000
vt 0.200000 0.000000
vt 0.375000 0.825000
vt 0.625000 0.825000
vt 0.800000 0.000000
vt 0.625000 0.425000
vt 0.800000 0.250000
vt 0.270000 0.250000
vt 0.375000 0.355000
vt 0.270000 0.000000
vt 0.375000 0.895000
vt 0.625000 0.895000
vt 0.730000 0.000000
vt 0.625000 0.355000
vt 0.730000 0.250000
vt 0.525000 0.000000
vt 0.525000 1.000000
vt 0.525000 0.250000
vt 0.525000 0.355000
vt 0.525000 0.425000
vt 0.525000 0.500000
vt 0.525000 0.750000
vt 0.525000 0.825000
vt 0.525000 0.895000
vt 0.535000 0.425000
vt 0.535000 0.355000
vt 0.535000 0.250000
vt 0.535000 0.000000
vt 0.535000 1.000000
vt 0.535000 0.895000
vt 0.535000 0.825000
vt 0.535000 0.750000
vt 0.535000 0.500000
vt 0.190232 0.000000
vt 0.375000 0.815232
vt 0.190232 0.250000
vt 0.375000 0.434768
vt 0.525000 0.434768
vt 0.535000 0.434768
vt 0.625000 0.434768
vt 0.809768 0.250000
vt 0.625000 0.815232
vt 0.809768 0.000000
vt 0.535000 0.815232
vt 0.525000 0.815232
vt 0.278493 0.250000
vt 0.375000 0.346507
vt 0.278493 0.000000
vt 0.375000 0.903493
vt 0.525000 0.903493
vt 0.535000 0.903493
vt 0.625000 0.903493
vt 0.721507 0.000000
vt 0.625000 0.346507
vt 0.721507 0.250000
vt 0.535000 0.346507
vt 0.525000 0.346507
vt 0.525000 0.895000
vt 0.525000 0.825000
vt 0.535000 0.825000
vt 0.535000 0.895000
vt 0.525000 0.815232
vt 0.535000 0.815232
vt 0.375000 0.815232
vt 0.375000 0.825000
vt 0.375000 0.895000
vt 0.525000 0.903493
vt 0.375000 0.903493
vt 0.535000 0.903493
vn 1.000000 0.000000 0.000000
vn 1.000000 0.000000 0.000000
vn 1.000000 0.000000 0.000000
vn 1.000000 0.000000 0.000000
vn 0.000000 0.000000 1.000000
vn 0.000000 0.000000 1.000000
vn 0.000000 0.000000 1.000000
vn 0.000000 0.000000 1.000000
vn -1.000000 0.000000 0.000000
vn -1.000000 0.000000 0.000000
vn -1.000000 0.000000 0.000000
vn -1.000000 0.000000 0.000000
vn 0.000000 0.000000 -1.000000
vn 0.000000 0.000000 -1.000000
vn 0.000000 0.000000 -1.000000
vn 0.000000 0.000000 -1.000000
vn 0.000000 1.000000 0.000000
vn 0.000000 1.000000 0.000000
vn 0.000000 1.000000 0.000000
vn 0.000000 1.000000 0.000000
vn 0.000000 -1.000000 0.000000
vn 0.000000 -1.000000 0.000000
vn 0.000000 -1.000000 0.000000
vn 0.000000 -1.000000 0.000000
vn 0.000000 -1.000000 0.000000
vn 0.000000 -1.000000 0.000000
vn 0.000000 -1.000000 0.000000
vn 0.000000 -1.000000 0.000000
vn 0.000000 0.000000 -1.000000
vn 0.000000 0.000000 -1.000000
vn 0.000000 0.000000 -1.000000
vn 0.000000 0.000000 -1.000000
vn 0.000000 1.000000 -0.000001
vn 0.000000 1.000000 -0.000001
vn 0.000000 1.000000 0.000000
vn 0.000000 1.000000 0.000000
vn 0.000000 0.000000 1.000000
vn 0.000000 0.000000 1.000000
vn 0.000000 0.000000 1.000000
vn 0.000000 0.000000 1.000000
vn 0.000000 -1.000000 0.000000
vn 0.000000 -1.000000 0.000000
vn 0.000000 -1.000000 0.000000
vn 0.000000 -1.000000 0.000000
vn 0.000000 0.000000 -1.000000
vn 0.000000 0.000000 -1.000000
vn 0.000000 0.000000 -1.000000
vn 0.000000 0.000000 -1.000000
vn 0.000000 1.000000 0.000000
vn 0.000000 1.000000 0.000000
vn 0.000000 1.000000 -0.000000
vn 0.000000 1.000000 -0.000000
vn 0.000000 0.000000 1.000000
vn 0.000000 0.000000 1.000000
vn 0.000000 0.000000 1.000000
vn 0.000000 0.000000 1.000000
vn 1.000000 0.000000 0.000000
vn 1.000000 0.000000 0.000000
vn 1.000000 0.000000 0.000000
vn 1.000000 0.000000 0.000000
vn 0.000000 0.000000 1.000000
vn 0.000000 0.000000 1.000000
vn 0.000000 0.000000 1.000000
vn 0.000000 0.000000 1.000000
vn 0.000000 0.000000 1.000000
vn 0.000000 0.000000 1.000000
vn 0.000000 0.000000 1.000000
vn 0.000000 0.000000 1.000000
vn 0.000000 0.000000 1.000000
vn 0.000000 0.000000 1.000000
vn 0.000000 0.000000 1.000000
vn 0.000000 0.000000 1.000000
vn -1.000000 0.000000 0.000000
vn -1.000000 0.000000 0.000000
vn -1.000000 0.000000 0.000000
vn -1.000000 0.000000 0.000000
vn 0.000000 0.000000 -1.000000
vn 0.000000 0.000000 -1.000000
vn 0.000000 0.000000 -1.000000
vn 0.000000 0.000000 -1.000000
vn 0.000000 0.000000 -1.000000
vn 0.000000 0.000000 -1.000000
vn 0.000000 0.000000 -1.000000
vn 0.000000 0.000000 -1.000000
vn 0.000000 0.000000 -1.000000
vn 0.000000 0.000000 -1.000000
vn 0.000000 0.000000 -1.000000
vn 0.000000 0.000000 -1.000000
vn 0.000000 0.000000 -1.000000
vn 0.000000 0.000000 -1.000000
vn 0.000000 0.000000 -1.000000
vn 0.000000 0.000000 -1.000000
vn 0.000000 0.000000 -1.000000
vn 0.000000 0.000000 -1.000000
vn 0.000000 0.000000 -1.000000
vn 0.000000 0.000000 -1.000000
vn 0.000000 0.000000 -1.000000
vn 0.000000 0.000000 -1.000000
vn 0.000000 0.000000 -1.000000
vn 0.000000 0.000000 -1.000000
vn 0.000000 -1.000000 0.000000
vn 0.000000 -1.000000 0.000000
vn 0.000000 -1.000000 0.000000
vn 0.000000 -1.000000 0.000000
vn 0.000000 1.000000 0.000000
vn 0.000000 1.000000 0.000000
vn 0.000000 1.000000 0.000000
vn 0.000000 1.000000 0.000000
vn -1.000000 0.000000 0.000000
vn -1.000000 0.000000 0.000000
vn -1.000000 0.000000 0.000000
vn -1.000000 0.000000 0.000000
vn 0.000000 1.000000 0.000000
vn 0.000000 1.000000 0.000000
vn -1.000000 0.000000 0.000000
vn -1.000000 0.000000 0.000000
vn 1.000000 0.000000 0.000000
vn 1.000000 0.000000 0.000000
vn 1.000000 0.000000 0.000000
vn 1.000000 0.000000 0.000000
vn 0.000000 -1.000000 0.000000
vn 0.000000 -1.000000 0.000000
vn -1.000000 0.000000 0.000000
vn -1.000000 0.000000 0.000000
vn -1.000000 0.000000 0.000000
vn -1.000000 0.000000 0.000000
vn 1.000000 -0.000000 0.000000
vn 1.000000 0.000000 0.000000
vn 1.000000 0.000000 0.000000
vn 1.000000 -0.000000 0.000000
vn 0.000000 -1.000000 0.000000
vn 0.000000 -1.000000 0.000000
vn 1.000000 -0.000001 0.000000
vn 1.000000 -0.000001 0.000000
vn 0.000000 1.000000 0.000000
vn 0.000000 1.000000 0.000000
s 1
g Entrada
usemtl lambert2SG
f 1/1/1 17/31/2 18/33/3 3/3/4
s 2
f 3/3/5 18/33/6 48/72/7 41/62/8
s 3
f 5/5/9 21/36/10 22/37/11 7/7/12
s 4
usemtl lambert7SG
f 42/64/13 43/65/14 17/32/15 1/9/16
s 5
usemtl lambert2SG
f 2/2/17 45/68/18 46/70/19 4/4/20
s 6
f 41/61/21 42/63/22 1/1/23 3/3/24
f 7/13/25 33/49/26 34/51/27 5/14/28
s 4
usemtl lambert7SG
f 7/7/29 22/37/30 40/60/31 33/50/32
s 5
usemtl lambert2SG
f 37/56/33 38/58/34 8/11/35 6/12/36
s 2
f 34/52/37 35/53/38 21/36/39 5/5/40
s 6
f 9/15/41 10/17/42 14/25/43 13/23/44
s off
usemtl lambert6SG
f 10/18/45 23/38/46 24/39/47 14/26/48
s 5
usemtl lambert2SG
f 16/30/49 15/28/50 11/20/51 12/22/52
s 2
f 13/24/53 19/34/54 20/35/55 9/16/56
s 1
f 27/42/57 28/43/58 2/2/59 4/4/60
s 2
f 46/69/61 47/71/62 27/42/63 4/4/64
f 25/40/65 26/41/66 16/29/67 12/21/68
f 32/48/69 36/54/70 37/55/71 6/6/72
s 3
f 31/47/73 32/48/74 6/6/75 8/8/76
s 4
usemtl lambert7SG
f 38/57/77 39/59/78 31/47/79 8/8/80
f 29/45/81 30/46/82 11/19/83 15/27/84
f 28/44/85 44/66/86 45/67/87 2/10/88
s 2
usemtl lambert2SG
f 20/35/55 19/34/54 26/41/66 25/40/65
f 47/71/62 48/72/7 18/33/6 27/42/63
s 1
f 18/33/3 17/31/2 28/43/58 27/42/57
s 4
usemtl lambert7SG
f 17/32/15 43/65/14 44/66/86 28/44/85
s 13
usemtl lambert5SG
f 50/73/89 49/74/90 51/75/91 52/76/92
s 4
usemtl lambert7SG
f 39/59/78 40/60/31 22/37/30 31/47/79
s 3
usemtl lambert2SG
f 22/37/11 21/36/10 32/48/74 31/47/73
s 2
f 21/36/39 35/53/38 36/54/70 32/48/69
s 6
f 34/51/27 33/49/26 10/17/42 9/15/41
s 2
f 9/16/56 20/35/55 35/53/38 34/52/37
f 36/54/70 35/53/38 20/35/55 25/40/65
f 37/55/71 36/54/70 25/40/65 12/21/68
s 5
f 12/22/52 11/20/51 38/58/34 37/56/33
s 4
usemtl lambert7SG
f 30/46/82 39/59/78 38/57/77 11/19/83
s 13
usemtl lambert5SG
f 49/74/90 53/77/93 54/78/94 51/75/91
f 55/79/95 53/77/93 49/74/90 56/80/96
s 6
usemtl lambert2SG
f 13/23/44 14/25/43 42/63/22 41/61/21
s 13
usemtl lambert5SG
f 57/81/97 50/73/89 58/82/98 59/83/99
f 60/84/100 58/82/98 50/73/89 52/76/92
s 4
usemtl lambert7SG
f 45/67/87 44/66/86 29/45/81 15/27/84
s 5
usemtl lambert2SG
f 46/70/19 45/68/18 15/28/50 16/30/49
s 2
f 26/41/66 47/71/62 46/69/61 16/29/67
f 19/34/54 48/72/7 47/71/62 26/41/66
f 41/62/8 48/72/7 19/34/54 13/24/53
s off
usemtl lambert5SG
f 24/39/101 23/38/102 49/74/103 50/73/104
s 14
f 30/46/105 29/45/106 52/76/107 51/75/108
s 15
f 40/60/109 39/59/110 54/78/111 53/77/112
s 14
f 39/59/113 30/46/105 51/75/108 54/78/114
s 15
f 33/50/115 40/60/109 53/77/112 55/79/116
s off
f 23/38/117 10/18/118 56/80/119 49/74/120
s 6
usemtl lambert2SG
f 10/18/42 33/50/26 55/79/121 56/80/122
s off
usemtl lambert5SG
f 14/26/123 24/39/124 50/73/125 57/81/126
s 16
f 43/65/127 42/64/128 59/83/129 58/82/130
s 6
usemtl lambert2SG
f 42/64/22 14/26/43 57/81/131 59/83/132
s 16
usemtl lambert5SG
f 44/66/133 43/65/127 58/82/130 60/84/134
s 14
f 29/45/106 44/66/135 60/84/136 52/76/107
