# Blender 3.6.2
# www.blender.org
o lod1_tronco
v 0.000000 0.346238 -0.280789
v 0.000000 14.790985 -0.101079
v 0.267046 0.346238 -0.086769
v 0.096132 14.790985 -0.031235
v 0.165044 0.346238 0.227163
v 0.059413 14.790985 0.081775
v -0.165044 0.346238 0.227163
v -0.059413 14.790985 0.081775
v -0.267046 0.346238 -0.086769
v -0.096132 14.790985 -0.031235
vn -0.0000 0.0124 -0.9999
vn 0.9510 0.0124 -0.3090
vn 0.5877 0.0124 0.8090
vn -0.5877 0.0124 0.8090
vn -0.0000 1.0000 -0.0000
vn -0.9510 0.0124 -0.3090
vn -0.0000 -1.0000 -0.0000
vt 0.130149 0.976447
vt 0.075271 0.058550
vt 0.155034 0.058550
vt 0.187961 0.976447
vt 0.234797 0.058550
vt 0.245773 0.976447
vt 0.314561 0.058550
vt 0.303585 0.976447
vt 0.374559 0.827793
vt 0.403886 0.868157
vt 0.374559 0.908522
vt 0.327108 0.893104
vt 0.327108 0.843211
vt 0.394324 0.058550
vt 0.361397 0.976447
vt 0.474087 0.058550
vt 0.419209 0.976447
vt 0.405030 0.865885
vt 0.375703 0.825521
vt 0.328252 0.840939
vt 0.328252 0.890832
vt 0.375703 0.906250
s 1
f 1/1/1 2/2/1 4/3/2 3/4/2
f 3/4/2 4/3/2 6/5/3 5/6/3
f 5/6/3 6/5/3 8/7/4 7/8/4
f 4/9/5 2/10/5 10/11/5 8/12/5 6/13/5
f 7/8/4 8/7/4 10/14/6 9/15/6
f 9/15/6 10/14/6 2/16/1 1/17/1
f 1/18/7 3/19/7 5/20/7 7/21/7 9/22/7
o lod1_folhas
v -0.004300 5.778647 0.004804
v -0.091415 5.381381 0.292135
v -0.183191 5.114977 0.594839
v -0.097750 5.194711 0.313029
v -0.001468 5.455076 -0.004537
v 0.000928 5.778646 0.004179
v 0.281219 5.381380 0.111814
v 0.576506 5.114976 0.225207
v 0.301601 5.194710 0.119640
v -0.008184 5.455075 0.000680
v 0.000418 5.778646 -0.001383
v 0.108052 5.381380 -0.281674
v 0.221445 5.114976 -0.576961
v 0.115879 5.194710 -0.302055
v -0.003081 5.455075 0.007729
v 0.002152 15.247816 -0.000231
v 0.312033 14.836730 -0.022665
v 0.638494 14.561058 -0.046299
v 0.334567 14.643565 -0.024296
v -0.007921 14.912989 0.000498
v -0.000390 15.247815 -0.005050
v -0.000390 14.836729 -0.315742
v -0.000390 14.561057 -0.643057
v -0.000390 14.643564 -0.338334
v -0.000390 14.912988 0.005050
v -0.002653 15.247815 0.002676
v 0.019781 14.836729 0.312557
v 0.043415 14.561057 0.639018
v 0.021412 14.643564 0.335091
v -0.003382 14.912988 -0.007397
v -0.005574 15.247815 -0.002494
v -0.316266 14.836729 -0.002494
v -0.643581 14.561057 -0.002494
v -0.338858 14.643564 -0.002494
v 0.004526 14.912988 -0.002494
v 0.003021 15.013428 -0.001988
v 0.240788 14.564960 -0.243545
v 0.491277 14.264220 -0.498027
v 0.258078 14.354232 -0.261110
v -0.004708 14.648153 0.005864
v -0.004651 15.013428 0.002288
v -0.224355 14.564960 0.260383
v -0.455814 14.264220 0.532287
v -0.240331 14.354232 0.279150
v 0.002491 14.648153 -0.006103
v -0.005553 14.700014 0.000677
v -0.331406 14.261595 0.060781
v -0.674694 13.967592 0.124101
v -0.355101 14.055587 0.065152
v 0.005040 14.342923 -0.001277
v -0.000587 14.399713 0.006648
v 0.263786 13.906046 0.269924
v 0.542304 13.574996 0.547286
v 0.283010 13.674079 0.289068
v -0.009181 13.997623 -0.001911
v -0.005244 14.399713 -0.001825
v -0.287937 13.906046 -0.245324
v -0.585755 13.574996 -0.501851
v -0.308493 13.674079 -0.263030
v 0.003946 13.997623 0.006091
v 0.001630 14.399713 0.000071
v 0.264906 13.906046 -0.264302
v 0.542269 13.574996 -0.542820
v 0.284051 13.674079 -0.283526
v -0.006928 13.997623 0.008665
v -0.008481 13.953115 0.000024
v -0.352816 13.497429 -0.006714
v -0.715573 13.191848 -0.013813
v -0.377854 13.283308 -0.007204
v 0.002712 13.581961 0.000243
v -0.006164 13.953115 0.005602
v -0.037748 13.497428 0.348551
v -0.071022 13.191847 0.709849
v -0.040045 13.283307 0.373489
v -0.005137 13.581960 -0.005547
v -0.000182 13.953115 0.003307
v 0.342767 13.497428 0.034891
v 0.704065 13.191847 0.068164
v 0.367705 13.283307 0.037188
v -0.011331 13.581960 0.002280
v -0.000330 13.731312 0.008076
v 0.309986 13.135031 0.334876
v 0.636905 12.735168 0.679160
v 0.332551 12.854846 0.358639
v -0.010418 13.245644 -0.002547
v -0.005667 13.731312 -0.002310
v -0.338770 13.135031 -0.305850
v -0.689695 12.735168 -0.625630
v -0.362992 12.854846 -0.327922
v 0.005161 13.245644 0.007557
v 0.000201 13.250354 -0.006249
v 0.190033 12.673265 -0.398924
v 0.390021 12.286272 -0.812610
v 0.203837 12.402099 -0.427478
v -0.005970 12.780317 0.006516
v -0.007442 13.250353 -0.006532
v -0.385386 12.673264 -0.224222
v -0.783551 12.286271 -0.453559
v -0.412868 12.402098 -0.240051
v 0.004844 12.780316 0.000545
v -0.007965 13.250353 0.001564
v -0.225655 12.673264 0.379508
v -0.454991 12.286271 0.777673
v -0.241484 12.402098 0.406991
v -0.000888 12.780316 -0.010722
v -0.010596 12.717409 -0.001588
v -0.426258 12.152719 0.095213
v -0.864159 11.774040 0.197193
v -0.456483 11.887377 0.102252
v 0.002916 12.257471 -0.004735
v 0.000446 12.717409 -0.000968
v 0.408033 12.152719 -0.127529
v 0.837427 11.774040 -0.260862
v 0.437671 11.887377 -0.136733
v -0.012804 12.257471 0.003146
v -0.005561 12.717409 0.004550
v 0.091240 12.152719 0.420212
v 0.193220 11.774040 0.858113
v 0.098278 11.887377 0.450437
v -0.008708 12.257471 -0.008962
v 0.000060 12.127377 -0.006909
v 0.181207 11.505970 -0.440217
v 0.372046 11.089258 -0.896708
v 0.194379 11.213980 -0.471725
v -0.005829 11.621244 0.007176
v -0.008175 12.127375 -0.006767
v -0.427271 11.505968 -0.218728
v -0.868791 11.089257 -0.442031
v -0.457746 11.213978 -0.234142
v 0.005449 11.621243 0.000124
v 0.000704 12.127375 0.001557
v 0.434011 11.505968 0.182704
v 0.890502 11.089257 0.373543
v 0.465519 11.213978 0.195876
v -0.013382 11.621243 -0.004332
v 0.007018 11.748566 -0.004273
v 0.616271 10.866232 -0.275389
v 1.258122 10.274545 -0.561010
v 0.660574 10.451635 -0.295103
v -0.012787 11.029909 0.004540
v -0.001627 11.748564 -0.012148
v -0.228043 10.866230 -0.639387
v -0.466573 10.274542 -1.300186
v -0.244507 10.451633 -0.684998
v 0.005733 11.029907 0.008242
v -0.010229 11.748564 -0.003211
v -0.637468 10.866230 0.223206
v -1.298266 10.274542 0.461736
v -0.683078 10.451633 0.239670
v 0.010161 11.029907 -0.010571
v 0.005964 10.933380 0.005609
v 0.550315 10.086357 0.342496
v 1.123792 9.518350 0.697407
v 0.589899 9.688354 0.366993
v -0.011732 10.243484 -0.005342
v -0.005570 10.933377 0.004657
v -0.342457 10.086355 0.549009
v -0.697368 9.518348 1.122486
v -0.366954 9.688352 0.588592
v 0.005381 10.243483 -0.013038
v -0.004200 10.933377 -0.007501
v -0.522806 10.086355 -0.382814
v -1.069159 9.518348 -0.778207
v -0.560517 9.688352 -0.410105
v 0.012659 10.243483 0.004699
v -0.000910 10.117960 0.011625
v 0.120549 9.168823 0.718609
v 0.248506 8.532337 1.463420
v 0.129381 8.722836 0.770018
v -0.004859 9.344893 -0.011358
v 0.009589 10.117958 0.004694
v 0.723498 9.168821 -0.065399
v 1.475604 8.532335 -0.139242
v 0.775411 8.722835 -0.070495
v -0.013619 9.344891 0.006973
v 0.002546 10.117958 -0.006639
v -0.067547 9.168821 -0.720549
v -0.141391 8.532335 -1.472654
v -0.072644 8.722835 -0.772461
v 0.004825 9.344891 0.016568
v -0.010212 9.179008 0.011449
v -0.461025 8.081618 0.707620
v -0.935959 7.345715 1.441040
v -0.493807 7.565969 0.758243
v 0.004443 8.285190 -0.011182
v 0.004144 9.179007 0.013786
v 0.665947 8.081615 0.513691
v 1.363159 7.345712 1.040343
v 0.714071 7.565967 0.550042
v -0.017369 8.285188 -0.002465
v -0.008673 9.179007 -0.003466
v -0.704844 8.081615 -0.454279
v -1.438264 7.345712 -0.929213
v -0.755467 7.565967 -0.487061
v 0.013958 8.285188 0.011189
v -0.008886 8.186541 0.009401
v -0.378117 7.287741 0.579589
v -0.767104 6.685010 1.180285
v -0.404967 6.865406 0.621051
v 0.003117 7.454473 -0.009134
v 0.005244 8.186539 -0.001096
v 0.414683 7.287738 -0.543135
v 0.846028 6.685008 -1.114175
v 0.444456 6.865404 -0.582550
v -0.008066 7.454471 0.016524
v -0.001413 7.262822 0.007139
v 0.089105 6.680097 0.438151
v 0.184466 6.289325 0.892223
v 0.095687 6.406282 0.469493
v -0.004356 6.788196 -0.006872
v 0.004872 7.262821 0.002650
v 0.441294 6.680096 -0.056510
v 0.901067 6.289323 -0.118836
v 0.473029 6.406281 -0.060812
v -0.009315 6.788194 0.004573
v 0.000294 7.262821 -0.004145
v -0.058866 6.680096 -0.440567
v -0.121191 6.289323 -0.900340
v -0.063168 6.406281 -0.472302
v 0.002217 6.788194 0.010042
v 0.001167 6.446372 0.003802
v 0.250389 6.001467 0.229532
v 0.512945 5.703116 0.467339
v 0.268511 5.792412 0.245946
v -0.006935 6.083999 -0.003535
v -0.004701 6.446371 0.002216
v -0.230431 6.001466 0.251438
v -0.468238 5.703115 0.513994
v -0.246845 5.792411 0.269560
v 0.002636 6.083998 -0.005886
v -0.002839 6.446371 -0.003935
v -0.235111 6.001466 -0.247071
v -0.479811 5.703115 -0.503216
v -0.252001 5.792411 -0.264751
v 0.004712 6.083998 0.003968
vn 0.9570 -0.0000 0.2901
vn 0.3585 -0.0000 -0.9335
vn -0.9335 -0.0000 -0.3585
vn -0.0722 -0.0000 -0.9974
vn -1.0000 -0.0000 -0.0000
vn 0.9974 -0.0000 -0.0722
vn -0.0000 -0.0000 1.0000
vn -0.7127 -0.0000 -0.7015
vn 0.7615 -0.0000 0.6482
vn 0.1814 -0.0000 0.9834
vn 0.7056 -0.0000 -0.7086
vn -0.6526 -0.0000 0.7577
vn -0.7086 -0.0000 -0.7056
vn -0.0196 -0.0000 0.9998
vn 0.9958 -0.0000 0.0917
vn 0.0917 -0.0000 -0.9958
vn 0.7252 -0.0000 -0.6886
vn -0.6735 -0.0000 0.7391
vn -0.9003 -0.0000 -0.4352
vn -0.4991 -0.0000 0.8665
vn 0.8665 -0.0000 0.4991
vn 0.2268 -0.0000 0.9739
vn -0.2965 -0.0000 -0.9550
vn 0.9739 -0.0000 -0.2268
vn -0.9226 -0.0000 -0.3857
vn -0.4513 -0.0000 0.8924
vn 0.3857 -0.0000 -0.9226
vn -0.4066 -0.0000 -0.9136
vn -0.9406 -0.0000 0.3395
vn 0.3395 -0.0000 0.9406
vn 0.5262 -0.0000 -0.8503
vn 0.8503 -0.0000 0.5262
vn -0.5863 -0.0000 0.8101
vn 0.9856 -0.0000 -0.1693
vn -0.0977 -0.0000 -0.9952
vn -0.9952 -0.0000 0.0977
vn 0.8394 -0.0000 0.5435
vn 0.6027 -0.0000 -0.7979
vn -0.5435 -0.0000 0.8394
vn -0.7979 -0.0000 -0.6027
vn 0.9787 -0.0000 -0.2055
vn -0.1343 -0.0000 -0.9909
vn -0.9909 -0.0000 0.1343
vn 0.6713 -0.0000 -0.7412
vn 0.7412 -0.0000 0.6713
vn -0.7231 -0.0000 0.6908
vt 0.781179 0.558354
vt 0.785714 0.501593
vt 0.765015 0.538145
vt 0.758385 0.595842
vt 0.791013 0.626210
vt 0.783317 0.561495
vt 0.787852 0.504734
vt 0.767152 0.541286
vt 0.760522 0.598983
vt 0.793150 0.629351
vt 0.778816 0.558366
vt 0.783351 0.501605
vt 0.762651 0.538158
vt 0.756022 0.595854
vt 0.788649 0.626222
vt 0.784946 0.569596
vt 0.789639 0.510860
vt 0.768219 0.548684
vt 0.761359 0.608389
vt 0.795121 0.639812
vt 0.781824 0.551098
vt 0.786517 0.492362
vt 0.765098 0.530186
vt 0.758237 0.589891
vt 0.792000 0.621314
vt 0.780967 0.556240
vt 0.785660 0.497505
vt 0.764240 0.535329
vt 0.757380 0.595033
vt 0.791143 0.626457
vt 0.779828 0.555359
vt 0.784521 0.496624
vt 0.763101 0.534448
vt 0.756240 0.594152
vt 0.790003 0.625576
vt 0.780421 0.547863
vt 0.785541 0.483786
vt 0.762174 0.525050
vt 0.754689 0.590183
vt 0.791522 0.624464
vt 0.784489 0.554892
vt 0.789608 0.490815
vt 0.766241 0.532079
vt 0.758757 0.597212
vt 0.795590 0.631493
vt 0.789851 0.547801
vt 0.809601 0.488145
vt 0.777824 0.521899
vt 0.755583 0.582009
vt 0.782593 0.623120
vt 0.788643 0.561714
vt 0.794279 0.491179
vt 0.768556 0.536602
vt 0.760318 0.608300
vt 0.800863 0.646036
vt 0.785259 0.567252
vt 0.790894 0.496717
vt 0.765172 0.542140
vt 0.756933 0.613838
vt 0.797478 0.651574
vt 0.782464 0.551532
vt 0.788100 0.480998
vt 0.762377 0.526420
vt 0.754139 0.598118
vt 0.794684 0.635855
vt 0.781138 0.549018
vt 0.786340 0.483910
vt 0.762596 0.525838
vt 0.754992 0.592020
vt 0.792417 0.626853
vt 0.783273 0.549445
vt 0.788475 0.484337
vt 0.764732 0.526265
vt 0.757127 0.592447
vt 0.794553 0.627280
vt 0.782421 0.549275
vt 0.787623 0.484166
vt 0.763879 0.526095
vt 0.756274 0.592277
vt 0.793700 0.627110
vt 0.790568 0.559265
vt 0.797375 0.474068
vt 0.766305 0.528933
vt 0.756354 0.615534
vt 0.805327 0.661114
vt 0.788839 0.558919
vt 0.795646 0.473723
vt 0.764577 0.528587
vt 0.754626 0.615188
vt 0.803599 0.660768
vt 0.786790 0.552845
vt 0.793378 0.470391
vt 0.763308 0.523490
vt 0.753678 0.607304
vt 0.801074 0.651417
vt 0.784912 0.555153
vt 0.791500 0.472698
vt 0.761431 0.525797
vt 0.751800 0.609611
vt 0.799197 0.653724
vt 0.786383 0.555569
vt 0.792971 0.473115
vt 0.762901 0.526213
vt 0.753271 0.610027
vt 0.800667 0.654140
vt 0.785411 0.555190
vt 0.791857 0.474507
vt 0.762434 0.526465
vt 0.753010 0.608478
vt 0.799388 0.651644
vt 0.789422 0.560822
vt 0.795868 0.480139
vt 0.766445 0.532097
vt 0.757021 0.614110
vt 0.803400 0.657276
vt 0.785301 0.555738
vt 0.791747 0.475055
vt 0.762324 0.527013
vt 0.752900 0.609026
vt 0.799279 0.652191
vt 0.789140 0.554649
vt 0.796234 0.465863
vt 0.763856 0.523039
vt 0.753485 0.613289
vt 0.804522 0.660790
vt 0.783749 0.564190
vt 0.788938 0.499248
vt 0.765255 0.541069
vt 0.757670 0.607082
vt 0.795000 0.641826
vt 0.789455 0.553074
vt 0.796549 0.464288
vt 0.764171 0.521464
vt 0.753800 0.611714
vt 0.804837 0.659215
vt 0.786647 0.552260
vt 0.794014 0.460048
vt 0.760387 0.519430
vt 0.749616 0.613162
vt 0.802622 0.662495
vt 0.786325 0.553332
vt 0.793692 0.461120
vt 0.760065 0.520502
vt 0.749294 0.614234
vt 0.802300 0.663568
vt 0.784910 0.554185
vt 0.792277 0.461974
vt 0.758650 0.521356
vt 0.747879 0.615087
vt 0.800885 0.664421
vt 0.787868 0.556328
vt 0.794940 0.467807
vt 0.762659 0.524812
vt 0.752319 0.614793
vt 0.803203 0.662152
vt 0.788495 0.555317
vt 0.795568 0.466796
vt 0.763286 0.523802
vt 0.752947 0.613782
vt 0.803831 0.661141
vt 0.787854 0.557462
vt 0.794926 0.468941
vt 0.762645 0.525946
vt 0.752305 0.615927
vt 0.803189 0.663286
vt 0.786839 0.550522
vt 0.794764 0.451330
vt 0.758591 0.515207
vt 0.747005 0.616036
vt 0.804024 0.669104
vt 0.787264 0.555154
vt 0.795190 0.455961
vt 0.759016 0.519839
vt 0.747430 0.620667
vt 0.804449 0.673736
vt 0.785631 0.551417
vt 0.793557 0.452224
vt 0.757383 0.516102
vt 0.745797 0.616931
vt 0.802816 0.669999
vt 0.792415 0.547521
vt 0.801578 0.432834
vt 0.759754 0.506689
vt 0.746359 0.623267
vt 0.812284 0.684625
vt 0.792932 0.547624
vt 0.802095 0.432937
vt 0.760271 0.506793
vt 0.746876 0.623371
vt 0.812801 0.684728
vt 0.793547 0.548884
vt 0.802711 0.434197
vt 0.760887 0.508053
vt 0.747492 0.624630
vt 0.813416 0.685988
vt 0.786978 0.553344
vt 0.794483 0.459412
vt 0.760228 0.519902
vt 0.749257 0.615383
vt 0.803251 0.665637
vt 0.785619 0.554455
vt 0.793124 0.460523
vt 0.758869 0.521013
vt 0.747898 0.616494
vt 0.801892 0.666749
vt 0.787493 0.558264
vt 0.794146 0.475005
vt 0.763783 0.528622
vt 0.754058 0.613254
vt 0.801918 0.657798
vt 0.788116 0.555152
vt 0.794769 0.471893
vt 0.764405 0.525510
vt 0.754681 0.610142
vt 0.802540 0.654686
vt 0.791455 0.557542
vt 0.798107 0.474282
vt 0.767744 0.527899
vt 0.758020 0.612532
vt 0.805879 0.657076
vt 0.781523 0.557793
vt 0.786602 0.494225
vt 0.763420 0.535162
vt 0.755995 0.599778
vt 0.792535 0.633787
vt 0.782573 0.555562
vt 0.787652 0.491995
vt 0.764470 0.532931
vt 0.757045 0.597547
vt 0.793585 0.631556
vt 0.782056 0.556346
vt 0.787135 0.492778
vt 0.763953 0.533715
vt 0.756528 0.598331
vt 0.793069 0.632340
s 1
f 12/23/8 13/24/8 14/25/8 15/26/8 11/27/8
f 17/28/9 18/29/9 19/30/9 20/31/9 16/32/9
f 22/33/10 23/34/10 24/35/10 25/36/10 21/37/10
f 27/38/11 28/39/11 29/40/11 30/41/11 26/42/11
f 32/43/12 33/44/12 34/45/12 35/46/12 31/47/12
f 37/48/13 38/49/13 39/50/13 40/51/13 36/52/13
f 42/53/14 43/54/14 44/55/14 45/56/14 41/57/14
f 47/58/15 48/59/15 49/60/15 50/61/15 46/62/15
f 52/63/16 53/64/16 54/65/16 55/66/16 51/67/16
f 57/68/17 58/69/17 59/70/17 60/71/17 56/72/17
f 62/73/18 63/74/18 64/75/18 65/76/18 61/77/18
f 67/78/19 68/79/19 69/80/19 70/81/19 66/82/19
f 72/83/20 73/84/20 74/85/20 75/86/20 71/87/20
f 77/88/21 78/89/21 79/90/21 80/91/21 76/92/21
f 82/93/22 83/94/22 84/95/22 85/96/22 81/97/22
f 87/98/23 88/99/23 89/100/23 90/101/23 86/102/23
f 92/103/24 93/104/24 94/105/24 95/106/24 91/107/24
f 97/108/25 98/109/25 99/110/25 100/111/25 96/112/25
f 102/113/26 103/114/26 104/115/26 105/116/26 101/117/26
f 107/118/27 108/119/27 109/120/27 110/121/27 106/122/27
f 112/123/28 113/124/28 114/125/28 115/126/28 111/127/28
f 117/128/29 118/129/29 119/130/29 120/131/29 116/132/29
f 122/133/30 123/134/30 124/135/30 125/136/30 121/137/30
f 127/138/31 128/139/31 129/140/31 130/141/31 126/142/31
f 132/143/32 133/144/32 134/145/32 135/146/32 131/147/32
f 137/148/33 138/149/33 139/150/33 140/151/33 136/152/33
f 142/153/34 143/154/34 144/155/34 145/156/34 141/157/34
f 147/158/35 148/159/35 149/160/35 150/161/35 146/162/35
f 152/163/36 153/164/36 154/165/36 155/166/36 151/167/36
f 157/168/37 158/169/37 159/170/37 160/171/37 156/172/37
f 162/173/38 163/174/38 164/175/38 165/176/38 161/177/38
f 167/178/39 168/179/39 169/180/39 170/181/39 166/182/39
f 172/183/40 173/184/40 174/185/40 175/186/40 171/187/40
f 177/188/41 178/189/41 179/190/41 180/191/41 176/192/41
f 182/193/42 183/194/42 184/195/42 185/196/42 181/197/42
f 187/198/43 188/199/43 189/200/43 190/201/43 186/202/43
f 192/203/44 193/204/44 194/205/44 195/206/44 191/207/44
f 197/208/45 198/209/45 199/210/45 200/211/45 196/212/45
f 202/213/46 203/214/46 204/215/46 205/216/46 201/217/46
f 207/218/44 208/219/44 209/220/44 210/221/44 206/222/44
f 212/223/47 213/224/47 214/225/47 215/226/47 211/227/47
f 217/228/48 218/229/48 219/230/48 220/231/48 216/232/48
f 222/233/49 223/234/49 224/235/49 225/236/49 221/237/49
f 227/238/50 228/239/50 229/240/50 230/241/50 226/242/50
f 232/243/51 233/244/51 234/245/51 235/246/51 231/247/51
f 237/248/52 238/249/52 239/250/52 240/251/52 236/252/52
f 242/253/53 243/254/53 244/255/53 245/256/53 241/257/53
