# Blender 3.6.2
# www.blender.org
o Cube.003
v -0.081981 2.601346 -0.382601
v -0.094344 2.601346 -0.393206
v -0.094344 2.601346 -0.447600
v -0.081981 2.601346 -0.459963
v 0.094344 2.601346 -0.393206
v 0.081981 2.601346 -0.382601
v 0.081981 2.601346 -0.459963
v 0.094344 2.601346 -0.447600
v -0.094344 2.753353 0.000000
v -0.081981 2.742748 0.000000
v -0.081981 2.816617 0.000000
v -0.094344 2.804254 0.000000
v 0.094344 2.804254 0.000000
v 0.081981 2.816617 0.000000
v 0.081981 2.742748 0.000000
v 0.094344 2.753353 0.000000
v -0.094344 2.804254 -0.403745
v -0.081981 2.816617 -0.408865
v -0.094344 2.760398 -0.447600
v -0.081981 2.765519 -0.459963
v 0.094344 2.760398 -0.447600
v 0.081981 2.765519 -0.459963
v 0.094344 2.804254 -0.403745
v 0.081981 2.816617 -0.408865
v -0.094344 2.702185 -0.393136
v -0.081981 2.691650 -0.382601
v -0.081981 2.742748 -0.331504
v -0.094344 2.753283 -0.342038
v 0.094344 2.753283 -0.342038
v 0.081981 2.742748 -0.331504
v 0.081981 2.691650 -0.382601
v 0.094344 2.702185 -0.393136
v -0.081981 2.601346 0.382601
v -0.094344 2.601346 0.393206
v -0.094344 2.601346 0.447600
v -0.081981 2.601346 0.459963
v 0.094344 2.601346 0.393206
v 0.081981 2.601346 0.382601
v 0.081981 2.601346 0.459963
v 0.094344 2.601346 0.447600
v -0.094344 2.804254 0.403745
v -0.081981 2.816617 0.408865
v -0.094344 2.760398 0.447600
v -0.081981 2.765519 0.459963
v 0.094344 2.760398 0.447600
v 0.081981 2.765519 0.459963
v 0.094344 2.804254 0.403745
v 0.081981 2.816617 0.408865
v -0.094344 2.702185 0.393136
v -0.081981 2.691650 0.382601
v -0.081981 2.742748 0.331503
v -0.094344 2.753283 0.342038
v 0.094344 2.753283 0.342038
v 0.081981 2.742748 0.331503
v 0.081981 2.691650 0.382601
v 0.094344 2.702185 0.393136
vn -0.0000 -0.0000 -1.0000
vn -0.0000 -0.0000 1.0000
vn -0.0000 0.7071 -0.7071
vn -0.7071 -0.0000 -0.7071
vn -0.7345 0.2597 -0.6269
vn 1.0000 -0.0000 -0.0000
vn -0.0000 -1.0000 -0.0000
vn -1.0000 -0.0000 -0.0000
vn -0.0000 -0.7071 0.7071
vn 0.7345 0.2597 -0.6269
vn 0.7071 -0.0000 -0.7071
vn -0.7345 0.6269 -0.2597
vn -0.7071 0.7071 -0.0000
vn 0.7071 0.7071 -0.0000
vn 0.7345 0.6269 -0.2597
vn -0.7696 -0.4515 0.4515
vn 0.7696 -0.4515 0.4515
vn -0.6499 -0.7601 0.0001
vn 0.6499 -0.0003 0.7600
vn -0.6499 -0.0003 0.7600
vn 0.6499 -0.7601 0.0001
vn -0.0000 1.0000 -0.0000
vn -0.0000 0.7071 0.7071
vn -0.7071 -0.0000 0.7071
vn -0.7345 0.2597 0.6269
vn -0.0000 -0.7071 -0.7071
vn 0.7345 0.2597 0.6269
vn 0.7071 -0.0000 0.7071
vn -0.7345 0.6269 0.2597
vn 0.7345 0.6269 0.2597
vn -0.7696 -0.4515 -0.4515
vn 0.7696 -0.4515 -0.4515
vn -0.6499 -0.7601 -0.0001
vn 0.6499 -0.0003 -0.7600
vn -0.6499 -0.0003 -0.7600
vn 0.6499 -0.7601 -0.0001
vt 0.845740 0.297923
vt 0.843840 0.273253
vt 0.851455 0.280050
vt 0.846475 0.289001
vt 0.847537 0.289259
vt 0.851066 0.287031
vt 0.843861 0.284581
vt 0.847616 0.290836
vt 0.092287 0.507255
vt 0.095634 0.503353
vt 0.111701 0.503353
vt 0.115603 0.507255
vt 0.115603 0.559008
vt 0.111701 0.562910
vt 0.095634 0.562910
vt 0.092287 0.559008
vt 0.841614 0.254437
vt 0.853278 0.271582
vt 0.847225 0.292504
vt 0.844775 0.274840
vt 0.861924 0.288029
vt 0.852685 0.285593
vt 0.847567 0.288417
vt 0.847187 0.287525
vt 0.851377 0.281019
vt 0.856575 0.278140
vt 0.748947 0.081279
vt 0.842852 0.029625
vt 0.841763 0.286344
vt 0.857628 0.296203
vt 0.864449 0.000173
vt 0.862909 0.316747
vt 0.847321 0.291226
vt 0.841864 0.281708
vt 0.835688 0.279840
vt 0.864299 0.339242
vt 0.831769 0.368558
vt 0.838466 0.266405
vt 0.818042 0.387584
vt 0.748947 0.114429
vt 0.022298 0.628935
vt 0.017774 0.618315
vt 0.021413 0.634821
vt 0.023111 0.636969
vt 0.018858 0.630370
vt 0.022694 0.634771
vt 0.026389 0.642424
vt 0.024847 0.647167
vt 0.026287 0.639331
vt 0.020454 0.641580
vt 0.022940 0.633109
vt 0.026153 0.637766
vt 0.018347 0.664600
vt 0.013306 0.503353
vt 0.081584 0.510461
vt 0.018580 0.646754
vt 0.018596 0.638086
vt 0.019847 0.626027
vt 0.019856 0.629263
vt 0.024725 0.644231
vt 0.034869 0.655898
vt 0.009085 0.724722
vt 0.000173 0.505772
vt 0.020878 0.678474
vt 0.022826 0.634535
vt 0.026487 0.641973
vt 0.030749 0.639951
vt 0.078369 0.833428
vt 0.006779 0.777357
vt 0.039967 0.648094
vt 0.091940 0.829115
vt 0.091940 0.514311
s 1
f 4/1/1 20/2/1 22/3/1 7/4/1
f 6/5/2 31/6/2 26/7/2 1/8/2
f 15/9/2 16/10/2 13/11/2 14/12/2 11/13/2 12/14/2 9/15/2 10/16/2
f 18/17/3 24/18/3 22/3/3 20/2/3
f 3/19/4 19/20/5 20/2/5 4/1/4
f 29/21/6 32/22/6 5/23/6 8/24/6 21/25/6 23/26/6 13/27/6 16/28/6
f 27/29/7 30/30/7 15/31/7 10/32/7
f 3/19/7 4/1/7 7/4/7 8/24/7 5/23/7 6/5/7 1/8/7 2/33/7
f 25/34/8 28/35/8 9/36/8 12/37/8 17/38/8 19/20/8 3/19/8 2/33/8
f 30/30/9 27/29/9 26/7/9 31/6/9
f 21/25/10 8/24/11 7/4/11 22/3/10
f 17/38/12 12/37/13 11/39/13 18/17/12
f 13/27/14 23/26/15 24/18/15 14/40/14
f 26/7/16 27/29/16 28/35/16 25/34/16
f 30/30/17 31/6/17 32/22/17 29/21/17
f 19/20/5 17/38/12 18/17/12 20/2/5
f 23/26/15 21/25/10 22/3/10 24/18/15
f 27/29/18 10/32/18 9/36/18 28/35/18
f 5/23/19 32/22/19 31/6/19 6/5/19
f 25/34/20 2/33/20 1/8/20 26/7/20
f 29/21/21 16/28/21 15/31/21 30/30/21
f 11/39/22 14/40/22 24/18/22 18/17/22
f 36/41/2 39/42/2 46/43/2 44/44/2
f 38/45/1 33/46/1 50/47/1 55/48/1
f 42/49/23 44/44/23 46/43/23 48/50/23
f 35/51/24 36/41/24 44/44/25 43/52/25
f 53/53/6 16/54/6 13/55/6 47/56/6 45/57/6 40/58/6 37/59/6 56/60/6
f 51/61/7 10/62/7 15/63/7 54/64/7
f 35/51/7 34/65/7 33/46/7 38/45/7 37/59/7 40/58/7 39/42/7 36/41/7
f 49/66/8 34/65/8 35/51/8 43/52/8 41/67/8 12/68/8 9/69/8 52/70/8
f 54/64/26 55/48/26 50/47/26 51/61/26
f 45/57/27 46/43/27 39/42/28 40/58/28
f 41/67/29 42/49/29 11/71/13 12/68/13
f 13/55/14 14/72/14 48/50/30 47/56/30
f 50/47/31 49/66/31 52/70/31 51/61/31
f 54/64/32 53/53/32 56/60/32 55/48/32
f 43/52/25 44/44/25 42/49/29 41/67/29
f 47/56/30 48/50/30 46/43/27 45/57/27
f 51/61/33 52/70/33 9/69/33 10/62/33
f 37/59/34 38/45/34 55/48/34 56/60/34
f 49/66/35 50/47/35 33/46/35 34/65/35
f 53/53/36 54/64/36 15/63/36 16/54/36
f 11/71/22 42/49/22 48/50/22 14/72/22
