# Blender 3.6.2
# www.blender.org
o Cube.002
v -0.319971 1.669231 -0.885113
v -0.327309 1.674254 -0.885163
v -0.319971 1.672537 -0.886086
v -0.344731 2.116741 -0.923566
v -0.352637 2.115070 -0.922294
v -0.344731 2.120424 -0.923089
v -0.319971 1.674040 -0.824157
v -0.319971 1.677459 -0.823715
v -0.327309 1.679010 -0.824896
v -0.344731 2.125606 -0.857417
v -0.352637 2.120194 -0.857362
v -0.344731 2.122044 -0.856368
v 0.319971 1.669231 -0.885113
v 0.319971 1.672537 -0.886086
v 0.327309 1.674254 -0.885163
v 0.344731 2.120424 -0.923089
v 0.352637 2.115070 -0.922294
v 0.344731 2.116741 -0.923566
v 0.319971 1.674040 -0.824157
v 0.327309 1.679010 -0.824896
v 0.319971 1.677459 -0.823715
v 0.344731 2.125606 -0.857417
v 0.344731 2.122044 -0.856368
v 0.352637 2.120194 -0.857362
v -0.319971 1.669230 0.885113
v -0.327309 1.674254 0.885163
v -0.319971 1.672537 0.886086
v -0.344731 2.116741 0.923565
v -0.352637 2.115070 0.922294
v -0.344731 2.120424 0.923089
v -0.319971 1.674040 0.824157
v -0.319971 1.677459 0.823715
v -0.327309 1.679010 0.824896
v -0.344731 2.125606 0.857417
v -0.352637 2.120194 0.857362
v -0.344731 2.122044 0.856368
v 0.319971 1.669230 0.885113
v 0.319971 1.672537 0.886086
v 0.327309 1.674254 0.885163
v 0.344731 2.120424 0.923089
v 0.352637 2.115070 0.922294
v 0.344731 2.116741 0.923565
v 0.319971 1.674040 0.824157
v 0.327309 1.679010 0.824896
v 0.319971 1.677459 0.823715
v 0.344731 2.125606 0.857417
v 0.344731 2.122044 0.856368
v 0.352637 2.120194 0.857362
vn -0.0000 -0.9969 0.0787
vn -0.0000 -0.0841 -0.9965
vn 0.9984 -0.0570 0.0045
vn -0.0000 0.9969 -0.0787
vn -0.9984 -0.0570 0.0045
vn -0.0000 0.0732 0.9973
vn -0.1835 -0.2775 -0.9430
vn -0.1835 0.1262 -0.9749
vn -0.1835 -0.1262 0.9749
vn -0.1835 0.2775 0.9430
vn 0.1835 -0.2775 -0.9430
vn 0.1835 0.1262 -0.9749
vn 0.1835 -0.1262 0.9749
vn 0.1835 0.2775 0.9430
vn -0.5640 -0.8232 0.0650
vn -0.1422 -0.0911 -0.9856
vn -0.5640 0.8232 -0.0650
vn -0.1422 0.0646 0.9877
vn -0.0000 -0.1284 0.9917
vn -0.0000 0.2823 0.9593
vn 0.1422 0.0646 0.9877
vn 0.5640 -0.8232 0.0650
vn 0.5640 0.8232 -0.0650
vn 0.1422 -0.0911 -0.9856
vn -0.0000 -0.2823 -0.9593
vn -0.0000 0.1284 -0.9917
vn -0.0000 -0.9969 -0.0787
vn -0.0000 -0.0841 0.9965
vn 0.9984 -0.0570 -0.0045
vn -0.0000 0.9969 0.0787
vn -0.9984 -0.0570 -0.0045
vn -0.0000 0.0732 -0.9973
vn -0.1835 -0.2775 0.9430
vn -0.1835 0.1262 0.9749
vn -0.1835 -0.1262 -0.9749
vn -0.1835 0.2775 -0.9430
vn 0.1835 -0.2775 0.9430
vn 0.1835 0.1262 0.9749
vn 0.1835 -0.1262 -0.9749
vn 0.1835 0.2775 -0.9430
vn -0.5640 -0.8232 -0.0650
vn -0.1422 -0.0911 0.9856
vn -0.5640 0.8232 0.0650
vn -0.1422 0.0646 -0.9877
vn -0.0000 -0.1284 -0.9917
vn -0.0000 0.2823 -0.9593
vn 0.1422 0.0646 -0.9877
vn 0.5640 -0.8232 -0.0650
vn 0.5640 0.8232 0.0650
vn 0.1422 -0.0911 0.9856
vn -0.0000 -0.2823 0.9593
vn -0.0000 0.1283 0.9917
vt 0.376661 0.251418
vt 0.376661 0.373496
vt 0.498773 0.373496
vt 0.498773 0.251418
vt 0.501104 0.376314
vt 0.501104 0.498426
vt 0.624156 0.498426
vt 0.624156 0.376314
vt 0.501557 0.252106
vt 0.501557 0.372807
vt 0.623703 0.372807
vt 0.623703 0.252106
vt 0.626487 0.251418
vt 0.626487 0.373496
vt 0.748600 0.373496
vt 0.748600 0.251418
vt 0.501557 0.002280
vt 0.501557 0.122980
vt 0.623703 0.122980
vt 0.623703 0.002280
vt 0.501105 0.126487
vt 0.501105 0.248600
vt 0.624156 0.248600
vt 0.624156 0.126487
vt 0.375260 0.374365
vt 0.376661 0.374913
vt 0.624156 0.000173
vt 0.625087 0.001591
vt 0.122516 0.503353
vt 0.122516 0.505049
vt 0.124050 0.503537
vt 0.625087 0.123669
vt 0.624156 0.125087
vt 0.498773 0.374913
vt 0.500174 0.374365
vt 0.120614 0.504317
vt 0.119406 0.503353
vt 0.119406 0.505507
vt 0.126278 0.505037
vt 0.127824 0.505037
vt 0.126480 0.503353
vt 0.117505 0.504544
vt 0.116297 0.503353
vt 0.116297 0.505507
vt 0.375260 0.253664
vt 0.500534 0.499827
vt 0.622680 0.499827
vt 0.498773 0.250000
vt 0.376661 0.250000
vt 0.625087 0.248600
vt 0.625087 0.126487
vt 0.625087 0.498426
vt 0.625087 0.376314
vt 0.376661 0.751418
vt 0.498773 0.751418
vt 0.498773 0.873496
vt 0.376661 0.873496
vt 0.501104 0.876314
vt 0.624156 0.876314
vt 0.624156 0.998426
vt 0.501104 0.998426
vt 0.501557 0.752106
vt 0.623703 0.752106
vt 0.623703 0.872807
vt 0.501557 0.872807
vt 0.626487 0.751418
vt 0.748600 0.751418
vt 0.748600 0.873496
vt 0.626487 0.873496
vt 0.501557 0.502280
vt 0.623703 0.502280
vt 0.623703 0.622980
vt 0.501557 0.622980
vt 0.501105 0.626487
vt 0.624156 0.626487
vt 0.624156 0.748600
vt 0.501105 0.748600
vt 0.376661 0.874913
vt 0.375260 0.874365
vt 0.624156 0.500173
vt 0.625087 0.501591
vt 0.124397 0.503353
vt 0.125932 0.503537
vt 0.124397 0.505049
vt 0.625087 0.623669
vt 0.624156 0.625087
vt 0.500174 0.874365
vt 0.498773 0.874913
vt 0.122169 0.504317
vt 0.120961 0.505507
vt 0.120961 0.503353
vt 0.128171 0.505037
vt 0.128372 0.503353
vt 0.129716 0.505037
vt 0.119059 0.504544
vt 0.117852 0.505507
vt 0.117852 0.503353
vt 0.375260 0.753664
vt 0.500534 0.999827
vt 0.622680 0.999827
vt 0.498773 0.750000
vt 0.376661 0.750000
vt 0.625087 0.626487
vt 0.625087 0.748600
vt 0.625087 0.876314
vt 0.625087 0.998426
s 0
f 7/1/1 1/2/1 13/3/1 19/4/1
f 14/5/2 3/6/2 4/7/2 18/8/2
f 20/9/3 15/10/3 17/11/3 24/12/3
f 22/13/4 16/14/4 6/15/4 10/16/4
f 2/17/5 9/18/5 11/19/5 5/20/5
f 8/21/6 21/22/6 23/23/6 12/24/6
f 1/2/7 2/25/7 3/26/7
f 4/27/8 5/20/8 6/28/8
f 7/29/9 8/30/9 9/31/9
f 10/32/10 11/19/10 12/33/10
f 13/3/11 14/34/11 15/35/11
f 16/36/12 17/37/12 18/38/12
f 19/39/13 20/40/13 21/41/13
f 22/42/14 23/43/14 24/44/14
f 9/45/15 2/25/15 1/2/15 7/1/15
f 2/46/16 5/47/16 4/7/16 3/6/16
f 5/20/17 11/19/17 10/32/17 6/28/17
f 11/19/18 9/18/18 8/21/18 12/24/18
f 21/48/19 8/49/19 7/1/19 19/4/19
f 12/24/20 23/23/20 22/50/20 10/51/20
f 23/23/21 21/22/21 20/9/21 24/12/21
f 15/10/22 20/9/22 19/4/22 13/3/22
f 24/12/23 17/11/23 16/14/23 22/13/23
f 17/11/24 15/10/24 14/5/24 18/8/24
f 3/26/25 14/34/25 13/3/25 1/2/25
f 18/8/26 4/7/26 6/52/26 16/53/26
f 31/54/27 43/55/27 37/56/27 25/57/27
f 38/58/28 42/59/28 28/60/28 27/61/28
f 44/62/29 48/63/29 41/64/29 39/65/29
f 46/66/30 34/67/30 30/68/30 40/69/30
f 26/70/31 29/71/31 35/72/31 33/73/31
f 32/74/32 36/75/32 47/76/32 45/77/32
f 25/57/33 27/78/33 26/79/33
f 28/80/34 30/81/34 29/71/34
f 31/82/35 33/83/35 32/84/35
f 34/85/36 36/86/36 35/72/36
f 37/56/37 39/87/37 38/88/37
f 40/89/38 42/90/38 41/91/38
f 43/92/39 45/93/39 44/94/39
f 46/95/40 48/96/40 47/97/40
f 33/98/41 31/54/41 25/57/41 26/79/41
f 26/99/42 27/61/42 28/60/42 29/100/42
f 29/71/43 30/81/43 34/85/43 35/72/43
f 35/72/44 36/75/44 32/74/44 33/73/44
f 45/101/45 43/55/45 31/54/45 32/102/45
f 36/75/46 34/103/46 46/104/46 47/76/46
f 47/76/47 48/63/47 44/62/47 45/77/47
f 39/65/48 37/56/48 43/55/48 44/62/48
f 48/63/49 46/66/49 40/69/49 41/64/49
f 41/64/50 42/59/50 38/58/50 39/65/50
f 27/78/51 25/57/51 37/56/51 38/88/51
f 42/59/52 40/105/52 30/106/52 28/60/52
