# Blender 3.6.2
# www.blender.org
o Cylinder.011
v -0.654326 0.664146 -0.369773
v -0.501679 0.664146 -0.369773
v -0.654326 0.567176 -0.357006
v -0.501679 0.567176 -0.357006
v -0.654326 0.476815 -0.319577
v -0.501679 0.476815 -0.319577
v -0.654326 0.399219 -0.260036
v -0.501679 0.399219 -0.260036
v -0.654326 0.339678 -0.182441
v -0.501679 0.339678 -0.182441
v -0.654326 0.302249 -0.092079
v -0.501679 0.302249 -0.092079
v -0.654326 0.289483 0.004891
v -0.501679 0.289483 0.004891
v -0.654326 0.302249 0.101861
v -0.501679 0.302249 0.101861
v -0.654326 0.339678 0.192223
v -0.501679 0.339678 0.192223
v -0.654326 0.399219 0.269818
v -0.501679 0.399219 0.269818
v -0.654326 0.476815 0.329359
v -0.501679 0.476815 0.329359
v -0.654326 0.567176 0.366788
v -0.501679 0.567176 0.366788
v -0.654326 0.664146 0.379554
v -0.501679 0.664146 0.379554
v -0.654326 0.761116 0.366788
v -0.501679 0.761116 0.366788
v -0.654326 0.851478 0.329359
v -0.501679 0.851478 0.329359
v -0.654326 0.929073 0.269818
v -0.501679 0.929073 0.269818
v -0.654326 0.988614 0.192223
v -0.501679 0.988614 0.192223
v -0.654326 1.026043 0.101861
v -0.501679 1.026043 0.101861
v -0.654326 1.038810 0.004891
v -0.501679 1.038810 0.004891
v -0.654326 1.026043 -0.092079
v -0.501679 1.026043 -0.092079
v -0.654326 0.988614 -0.182441
v -0.501679 0.988614 -0.182441
v -0.654326 0.929073 -0.260036
v -0.501679 0.929073 -0.260036
v -0.654326 0.851478 -0.319577
v -0.501679 0.851478 -0.319577
v -0.654326 0.761116 -0.357006
v -0.501679 0.761116 -0.357006
vn -0.0000 -0.0000 -1.0000
vn -0.0000 -0.2588 -0.9659
vn -0.0000 -0.5000 -0.8660
vn -0.0000 -0.7071 -0.7071
vn -0.0000 -0.8660 -0.5000
vn -0.0000 -0.9659 -0.2588
vn -0.0000 -1.0000 -0.0000
vn -0.0000 -0.9659 0.2588
vn -0.0000 -0.8660 0.5000
vn -0.0000 -0.7071 0.7071
vn -0.0000 -0.5000 0.8660
vn -0.0000 -0.2588 0.9659
vn -0.0000 -0.0000 1.0000
vn -0.0000 0.2588 0.9659
vn -0.0000 0.5000 0.8660
vn -0.0000 0.7071 0.7071
vn -0.0000 0.8660 0.5000
vn -0.0000 0.9659 0.2588
vn -0.0000 1.0000 -0.0000
vn -0.0000 0.9659 -0.2588
vn -0.0000 0.8660 -0.5000
vn -0.0000 0.7071 -0.7071
vn -0.0000 0.5000 -0.8660
vn 1.0000 -0.0000 -0.0000
vn -0.0000 0.2588 -0.9659
vn -1.0000 -0.0000 -0.0000
s 1
f 1//1 2//1 4//2 3//2
f 3//2 4//2 6//3 5//3
f 5//3 6//3 8//4 7//4
f 7//4 8//4 10//5 9//5
f 9//5 10//5 12//6 11//6
f 11//6 12//6 14//7 13//7
f 13//7 14//7 16//8 15//8
f 15//8 16//8 18//9 17//9
f 17//9 18//9 20//10 19//10
f 19//10 20//10 22//11 21//11
f 21//11 22//11 24//12 23//12
f 23//12 24//12 26//13 25//13
f 25//13 26//13 28//14 27//14
f 27//14 28//14 30//15 29//15
f 29//15 30//15 32//16 31//16
f 31//16 32//16 34//17 33//17
f 33//17 34//17 36//18 35//18
f 35//18 36//18 38//19 37//19
f 37//19 38//19 40//20 39//20
f 39//20 40//20 42//21 41//21
f 41//21 42//21 44//22 43//22
f 43//22 44//22 46//23 45//23
f 4//24 2//24 48//24 46//24 44//24 42//24 40//24 38//24 36//24 34//24 32//24 30//24 28//24 26//24 24//24 22//24 20//24 18//24 16//24 14//24 12//24 10//24 8//24 6//24
f 45//23 46//23 48//25 47//25
f 47//25 48//25 2//1 1//1
f 1//26 3//26 5//26 7//26 9//26 11//26 13//26 15//26 17//26 19//26 21//26 23//26 25//26 27//26 29//26 31//26 33//26 35//26 37//26 39//26 41//26 43//26 45//26 47//26
o Cylinder.021
v -0.524955 0.664146 -0.035248
v -0.495266 0.664146 -0.035248
v -0.524955 0.644077 -0.029871
v -0.495266 0.644077 -0.029871
v -0.524955 0.629385 -0.015179
v -0.495266 0.629385 -0.015179
v -0.524955 0.624007 0.004891
v -0.495266 0.624007 0.004891
v -0.524955 0.629385 0.024960
v -0.495266 0.629385 0.024960
v -0.524955 0.644077 0.039652
v -0.495266 0.644077 0.039652
v -0.524955 0.664146 0.045030
v -0.495266 0.664146 0.045030
v -0.524955 0.684216 0.039652
v -0.495266 0.684216 0.039652
v -0.524955 0.698908 0.024960
v -0.495266 0.698908 0.024960
v -0.524955 0.704286 0.004891
v -0.495266 0.704286 0.004891
v -0.524955 0.698908 -0.015179
v -0.495266 0.698908 -0.015179
v -0.524955 0.684216 -0.029871
v -0.495266 0.684216 -0.029871
v -0.522639 0.638401 -0.114281
v -0.522639 0.626857 -0.111188
v -0.505563 0.626857 -0.111188
v -0.505563 0.638401 -0.114281
v -0.505563 0.544975 0.030636
v -0.522639 0.544975 0.030636
v -0.522639 0.548068 0.042180
v -0.505563 0.548068 0.042180
v -0.505563 0.689892 0.124062
v -0.522639 0.689892 0.124062
v -0.522639 0.701436 0.120969
v -0.505563 0.701436 0.120969
v -0.505563 0.783318 -0.020855
v -0.522639 0.783318 -0.020855
v -0.522639 0.780225 -0.032399
v -0.505563 0.780225 -0.032399
vn -0.0000 -0.9783 0.2072
vn -0.0000 -0.7071 -0.7071
vn -0.0000 -0.9659 -0.2588
vn -0.9996 -0.0269 0.0072
vn -0.0000 -0.7071 0.7071
vn -0.0000 -0.2588 0.9659
vn -0.0000 0.9508 -0.3097
vn -0.0000 0.7071 0.7071
vn -0.0000 0.9659 0.2588
vn -0.0000 -0.3097 -0.9508
vn 1.0000 -0.0000 -0.0000
vn -0.0000 0.7071 -0.7071
vn -0.0000 0.2588 -0.9659
vn -1.0000 -0.0000 -0.0000
vn -0.0000 -0.2588 -0.9659
vn -0.0000 -0.9659 0.2588
vn -0.0000 0.2588 0.9659
vn -0.0000 0.9659 -0.2588
vn -0.0000 -0.9508 0.3097
vn 0.9924 -0.1189 0.0319
vn -0.9996 0.0072 0.0269
vn -0.0000 0.2072 0.9783
vn -0.0000 0.3097 0.9508
vn 0.9924 0.0319 0.1189
vn -0.9996 0.0269 -0.0072
vn -0.0000 0.9783 -0.2072
vn 0.9924 0.1189 -0.0319
vn -0.9996 -0.0072 -0.0269
vn -0.0000 -0.2072 -0.9783
vn 0.9924 -0.0319 -0.1189
s 0
f 52//27 51//27 74//27 75//27
f 51//28 52//28 54//28 53//28
f 53//29 54//29 56//29 55//29
f 57//30 55//30 78//30 79//30
f 57//31 58//31 60//31 59//31
f 59//32 60//32 62//32 61//32
f 49//33 50//33 76//33 73//33
f 63//34 64//34 66//34 65//34
f 65//35 66//35 68//35 67//35
f 55//36 56//36 77//36 78//36
f 52//37 50//37 72//37 70//37 68//37 66//37 64//37 62//37 60//37 58//37 56//37 54//37
f 69//38 70//38 72//38 71//38
f 71//39 72//39 50//39 49//39
f 49//40 51//40 53//40 55//40 57//40 59//40 61//40 63//40 65//40 67//40 69//40 71//40
f 73//41 76//41 75//41 74//41
f 78//42 77//42 80//42 79//42
f 82//43 81//43 84//43 83//43
f 86//44 85//44 88//44 87//44
f 61//45 62//45 81//45 82//45
f 56//46 58//46 80//46 77//46
f 63//47 61//47 82//47 83//47
f 58//48 57//48 79//48 80//48
f 67//49 68//49 85//49 86//49
f 62//50 64//50 84//50 81//50
f 69//51 67//51 86//51 87//51
f 64//52 63//52 83//52 84//52
f 68//53 70//53 88//53 85//53
f 51//54 49//54 73//54 74//54
f 70//55 69//55 87//55 88//55
f 50//56 52//56 75//56 76//56
