# Blender 3.6.2
# www.blender.org
o Cylinder.015
v -1.074569 1.540138 -0.007647
v -1.074569 1.566677 -0.007647
v -1.068808 1.540138 -0.005776
v -1.068808 1.566677 -0.005776
v -1.065248 1.540138 -0.000875
v -1.065248 1.566677 -0.000875
v -1.065248 1.540138 0.005182
v -1.065248 1.566677 0.005182
v -1.068808 1.540138 0.010082
v -1.068808 1.566677 0.010082
v -1.074569 1.540138 0.011954
v -1.074569 1.566677 0.011954
v -1.080329 1.540138 0.010082
v -1.080329 1.566677 0.010082
v -1.083890 1.540138 0.005182
v -1.083890 1.566677 0.005182
v -1.083890 1.540138 -0.000875
v -1.083890 1.566677 -0.000875
v -1.080329 1.540138 -0.005776
v -1.080329 1.566677 -0.005776
v -1.102549 1.623449 -0.006938
v -1.102549 1.587261 -0.006938
v -1.108553 1.611978 -0.008889
v -1.108552 1.598732 -0.008889
v -1.091861 1.587261 -0.021648
v -1.091862 1.623449 -0.021649
v -1.095572 1.598732 -0.026755
v -1.095572 1.611978 -0.026755
v -1.102549 1.623449 0.011245
v -1.102549 1.587261 0.011245
v -1.108553 1.611978 0.013195
v -1.108552 1.598732 0.013195
v -1.091862 1.623449 0.025955
v -1.091861 1.587261 0.025955
v -1.095572 1.611978 0.031062
v -1.095572 1.598732 0.031062
v -1.074569 1.623449 0.031574
v -1.074569 1.587261 0.031573
v -1.074569 1.611978 0.037886
v -1.074569 1.598732 0.037886
v -1.057276 1.623449 0.025955
v -1.057276 1.587261 0.025955
v -1.053565 1.611978 0.031062
v -1.053566 1.598732 0.031062
v -1.046588 1.623449 0.011245
v -1.046588 1.587261 0.011245
v -1.040585 1.611978 0.013195
v -1.040585 1.598732 0.013195
v -1.074569 1.623449 -0.027267
v -1.074569 1.587261 -0.027267
v -1.074569 1.611978 -0.033580
v -1.074569 1.598732 -0.033579
v -1.057276 1.587261 -0.021648
v -1.057276 1.623449 -0.021649
v -1.053566 1.598732 -0.026755
v -1.053565 1.611978 -0.026755
v -1.046588 1.623449 -0.006938
v -1.046588 1.587261 -0.006938
v -1.040585 1.611978 -0.008889
v -1.040585 1.598732 -0.008889
v -1.071325 1.634790 -0.002311
v -1.066512 1.632532 -0.008937
v -1.074569 1.632532 -0.011555
v -1.074569 1.634790 -0.003365
v -1.069321 1.634790 0.000448
v -1.061532 1.632532 -0.002083
v -1.069321 1.634790 0.003858
v -1.061532 1.632532 0.006389
v -1.071325 1.634790 0.006617
v -1.066512 1.632532 0.013243
v -1.074569 1.634790 0.007671
v -1.074569 1.632532 0.015861
v -1.077812 1.634790 0.006617
v -1.082626 1.632532 0.013243
v -1.079817 1.634790 0.003858
v -1.087606 1.632532 0.006389
v -1.079817 1.634790 0.000448
v -1.087606 1.632532 -0.002083
v -1.077812 1.634790 -0.002311
v -1.082626 1.632532 -0.008937
vn -0.0000 -0.0000 -1.0000
vn 0.5878 -0.0000 -0.8090
vn 0.9511 -0.0000 -0.3090
vn 0.9511 -0.0000 0.3090
vn 0.5878 -0.0000 0.8090
vn -0.0000 -0.0000 1.0000
vn -0.5878 -0.0000 0.8090
vn -0.9511 -0.0000 0.3090
vn -0.9511 -0.0000 -0.3090
vn -0.6884 -0.6899 -0.2237
vn -0.6884 -0.6899 0.2237
vn -0.7796 -0.5728 0.2533
vn -0.7796 -0.5728 -0.2533
vn -0.5878 -0.0000 -0.8090
vn -0.0000 -1.0000 -0.0000
vn 0.7187 0.6549 -0.2335
vn 0.4442 0.6549 -0.6114
vn 0.2415 0.9117 -0.3324
vn 0.3908 0.9117 -0.1270
vn -0.4255 -0.6899 -0.5856
vn -0.4818 -0.5728 -0.6632
vn -0.4255 -0.6899 0.5856
vn -0.4818 -0.5728 0.6632
vn -0.0000 -0.6899 0.7239
vn -0.0000 -0.5728 0.8197
vn 0.4255 -0.6899 0.5856
vn 0.4818 -0.5728 0.6632
vn 0.6884 -0.6899 0.2237
vn 0.7796 -0.5728 0.2533
vn 0.4255 -0.6899 -0.5856
vn -0.0000 -0.6899 -0.7239
vn -0.0000 -0.5728 -0.8197
vn 0.4818 -0.5728 -0.6632
vn 0.6884 -0.6899 -0.2237
vn 0.7796 -0.5728 -0.2533
vn -0.7187 0.6549 -0.2335
vn -0.7187 0.6549 0.2335
vn -0.3908 0.9117 0.1270
vn -0.3908 0.9117 -0.1270
vn 0.7187 0.6549 0.2335
vn 0.3908 0.9117 0.1270
vn -0.0000 0.6549 -0.7557
vn -0.4442 0.6549 -0.6114
vn -0.2415 0.9117 -0.3324
vn -0.0000 0.9117 -0.4109
vn 0.0950 0.9869 -0.1307
vn -0.0000 0.9869 -0.1616
vn -0.0950 0.9869 -0.1307
vn -0.1537 0.9869 -0.0499
vn -0.1537 0.9869 0.0499
vn -0.0950 0.9869 0.1307
vn -0.0000 0.9869 0.1616
vn 0.0950 0.9869 0.1307
vn 0.1537 0.9869 0.0499
vn 0.1537 0.9869 -0.0499
vn 0.4442 0.6549 0.6114
vn 0.2415 0.9117 0.3324
vn -0.0000 0.6549 0.7557
vn -0.0000 0.9117 0.4109
vn -0.4442 0.6549 0.6114
vn -0.2415 0.9117 0.3324
vn -0.0000 0.2244 -0.9745
vn -0.5728 0.2244 -0.7884
vn -0.0000 -0.2244 -0.9745
vn -0.5728 -0.2244 -0.7884
vn 0.9268 0.2244 -0.3011
vn 0.5728 0.2244 -0.7884
vn 0.9268 -0.2244 -0.3011
vn 0.5728 -0.2244 -0.7884
vn 0.9268 0.2244 0.3011
vn 0.9268 -0.2244 0.3011
vn 0.5728 0.2244 0.7884
vn 0.5728 -0.2244 0.7884
vn -0.0000 0.2244 0.9745
vn -0.0000 -0.2244 0.9745
vn -0.5728 0.2244 0.7884
vn -0.5728 -0.2244 0.7884
vn -0.9268 0.2244 0.3011
vn -0.9268 -0.2244 0.3011
vn -0.9268 0.2244 -0.3011
vn -0.9268 -0.2244 -0.3011
vt 1.000000 0.500000
vt 1.000000 1.000000
vt 0.900000 1.000000
vt 0.900000 0.500000
vt 0.800000 1.000000
vt 0.800000 0.500000
vt 0.700000 1.000000
vt 0.700000 0.500000
vt 0.600000 1.000000
vt 0.600000 0.500000
vt 0.500000 1.000000
vt 0.500000 0.500000
vt 0.400000 1.000000
vt 0.400000 0.500000
vt 0.300000 1.000000
vt 0.300000 0.500000
vt 0.200000 1.000000
vt 0.200000 0.500000
vt 0.100000 1.000000
vt 0.100000 0.500000
vt -0.000000 1.000000
vt -0.000000 0.500000
vt 0.750000 0.490000
vt 0.891068 0.444164
vt 0.978254 0.324164
vt 0.978254 0.175836
vt 0.891068 0.055836
vt 0.750000 0.010000
vt 0.608932 0.055836
vt 0.521746 0.175836
vt 0.521746 0.324164
vt 0.608932 0.444164
vt 0.800000 1.000000
vt 0.500000 1.000000
vt 0.329423 0.359317
vt 0.250000 0.385123
vt 0.170577 0.359317
vt 0.121490 0.291755
vt 0.121490 0.208245
vt 0.170577 0.140683
vt 0.250000 0.114877
vt 0.329423 0.140683
vt 0.378510 0.208245
vt 0.378510 0.291755
vt 0.002598 1.000000
vt 0.100000 1.000000
vt 0.002598 1.000000
vt 0.100000 1.000000
vt 0.900000 1.000000
vt 0.800000 1.000000
vt 0.900000 1.000000
vt 0.700000 1.000000
vt 0.997402 1.000000
vt 0.997402 1.000000
vt 0.600000 1.000000
vt 0.500000 1.000000
vt 0.400000 1.000000
vt 0.400000 1.000000
vt 0.300000 1.000000
vt 0.200000 1.000000
vt 0.391068 0.444164
vt 0.250000 0.490000
vt 0.478254 0.324164
vt 0.478254 0.175836
vt 0.391068 0.055836
vt 0.250000 0.010000
vt 0.108932 0.055836
vt 0.021746 0.175836
vt 0.021746 0.324164
vt 0.108932 0.444164
s 1
f 1/1/1 2/2/1 4/3/2 3/4/2
f 3/4/2 4/3/2 6/5/3 5/6/3
f 5/6/3 6/5/3 8/7/4 7/8/4
f 7/8/4 8/7/4 10/9/5 9/10/5
f 9/10/5 10/9/5 12/11/6 11/12/6
f 11/12/6 12/11/6 14/13/7 13/14/7
f 13/14/7 14/13/7 16/15/8 15/16/8
f 15/16/8 16/15/8 18/17/9 17/18/9
f 18/17/10 16/15/11 30/15/12 22/17/13
f 17/18/9 18/17/9 20/19/14 19/20/14
f 19/20/14 20/19/14 2/21/1 1/22/1
f 1/23/15 3/24/15 5/25/15 7/26/15 9/27/15 11/28/15 13/29/15 15/30/15 17/31/15 19/32/15
f 57/5/16 54/3/17 62/3/18 66/33/19
f 20/19/20 18/17/10 22/17/13 25/19/21
f 16/15/11 14/13/22 34/13/23 30/15/12
f 14/13/22 12/11/24 38/34/25 34/13/23
f 12/11/24 10/9/26 42/9/27 38/34/25
f 10/9/26 8/7/28 46/7/29 42/9/27
f 4/3/30 2/2/31 50/2/32 53/3/33
f 8/7/28 6/5/34 58/5/35 46/7/29
f 21/17/36 29/15/37 76/15/38 78/17/39
f 45/7/40 57/5/16 66/5/19 68/7/41
f 49/21/42 26/19/43 80/19/44 63/21/45
f 61/35/46 64/36/47 79/37/48 77/38/49 75/39/50 73/40/51 71/41/52 69/42/53 67/43/54 65/44/55
f 6/5/34 4/3/30 53/3/33 58/5/35
f 41/9/56 45/7/40 68/7/41 70/9/57
f 37/34/58 41/9/56 70/9/57 72/11/59
f 33/13/60 37/34/58 72/11/59 74/13/61
f 29/15/37 33/13/60 74/13/61 76/15/38
f 2/21/31 20/19/20 25/19/21 50/21/32
f 26/19/43 49/21/42 51/45/62 28/46/63
f 28/46/63 51/45/62 52/47/64 27/48/65
f 27/48/65 52/47/64 50/21/32 25/19/21
f 54/3/17 57/5/16 59/5/66 56/49/67
f 56/49/67 59/5/66 60/50/68 55/51/69
f 55/51/69 60/50/68 58/5/35 53/3/33
f 57/5/16 45/7/40 47/7/70 59/5/66
f 59/5/66 47/7/70 48/52/71 60/50/68
f 60/50/68 48/52/71 46/7/29 58/5/35
f 49/2/42 54/3/17 56/49/67 51/53/62
f 51/53/62 56/49/67 55/51/69 52/54/64
f 52/54/64 55/51/69 53/3/33 50/2/32
f 45/7/40 41/9/56 43/55/72 47/7/70
f 47/7/70 43/55/72 44/9/73 48/52/71
f 48/52/71 44/9/73 42/9/27 46/7/29
f 41/9/56 37/34/58 39/34/74 43/55/72
f 43/55/72 39/34/74 40/56/75 44/9/73
f 44/9/73 40/56/75 38/34/25 42/9/27
f 37/34/58 33/13/60 35/57/76 39/34/74
f 39/34/74 35/57/76 36/58/77 40/56/75
f 40/56/75 36/58/77 34/13/23 38/34/25
f 33/13/60 29/15/37 31/15/78 35/57/76
f 35/57/76 31/15/78 32/59/79 36/58/77
f 36/58/77 32/59/79 30/15/12 34/13/23
f 29/15/37 21/17/36 23/60/80 31/15/78
f 31/15/78 23/60/80 24/60/81 32/59/79
f 32/59/79 24/60/81 22/17/13 30/15/12
f 21/17/36 26/19/43 28/46/63 23/60/80
f 23/60/80 28/46/63 27/48/65 24/60/81
f 24/60/81 27/48/65 25/19/21 22/17/13
f 26/19/43 21/17/36 78/17/39 80/19/44
f 62/61/18 63/62/45 64/36/47 61/35/46
f 66/63/19 62/61/18 61/35/46 65/44/55
f 68/64/41 66/63/19 65/44/55 67/43/54
f 70/65/57 68/64/41 67/43/54 69/42/53
f 72/66/59 70/65/57 69/42/53 71/41/52
f 74/67/61 72/66/59 71/41/52 73/40/51
f 76/68/38 74/67/61 73/40/51 75/39/50
f 78/69/39 76/68/38 75/39/50 77/38/49
f 80/70/44 78/69/39 77/38/49 79/37/48
f 63/62/45 80/70/44 79/37/48 64/36/47
f 54/3/17 49/2/42 63/2/45 62/3/18
