# Blender 3.6.2
# www.blender.org
mtllib tauba2.mtl
o Cube
v -0.695970 -0.028497 0.103117
v -0.695970 -0.027110 0.104504
v -0.697357 -0.027110 0.103117
v -0.695970 0.027110 0.104504
v -0.695970 0.028497 0.103117
v -0.697357 0.027110 0.103117
v -0.695970 -0.028497 -0.103117
v -0.697357 -0.027110 -0.103117
v -0.695970 -0.027110 -0.104504
v -0.695970 0.028497 -0.103117
v -0.695970 0.027110 -0.104504
v -0.697357 0.027110 -0.103117
v 0.382945 -0.028497 0.103117
v 0.384519 -0.027110 0.103735
v 0.381977 -0.027110 0.104504
v 0.382945 0.028497 0.103117
v 0.381977 0.027110 0.104504
v 0.384519 0.027110 0.103735
v 0.692771 -0.028497 -0.103117
v 0.695970 -0.027110 -0.104504
v 0.696202 -0.027110 -0.103735
v 0.692771 0.028497 -0.103117
v 0.696202 0.027110 -0.103735
v 0.695970 0.027110 -0.104504
vn -0.0000 -0.0000 1.0000
vn 0.5541 -0.0000 0.8324
vn -0.0000 1.0000 -0.0000
vn -1.0000 -0.0000 -0.0000
vn -0.0000 -0.0000 -1.0000
vn -0.5774 -0.5773 0.5774
vn -0.5774 0.5773 0.5774
vn -0.5774 -0.5773 -0.5774
vn -0.5774 0.5773 -0.5774
vn 0.2310 -0.6027 0.7638
vn 0.2310 0.6027 0.7638
vn 0.3558 -0.9284 -0.1076
vn 0.3558 0.9284 -0.1076
vn -0.7071 -0.7071 -0.0000
vn -0.7071 -0.0000 0.7071
vn -0.7071 0.7071 -0.0000
vn -0.7071 -0.0000 -0.7071
vn -0.0000 -0.7071 -0.7071
vn -0.0000 0.7071 -0.7071
vn 0.9572 -0.0000 -0.2894
vn 0.3918 -0.7071 0.5886
vn 0.3918 0.7071 0.5886
vn 0.2894 -0.0000 0.9572
vn -0.0000 -0.7071 0.7071
vn -0.0000 0.7071 0.7071
vn -0.0000 -1.0000 -0.0000
vt 0.344406 0.082331
vt 0.376248 0.051897
vt 0.981305 0.684953
vt 0.949463 0.715387
vt 0.986814 0.019526
vt 0.986193 0.052786
vt 0.719873 0.060107
vt 0.719923 0.015156
vt 0.013541 0.049305
vt 0.793048 0.864883
vt 0.671931 0.980644
vt 0.066331 0.347019
vt 0.864857 0.063068
vt 0.864205 0.102752
vt 0.719226 0.102705
vt 0.719877 0.063021
vt 0.826042 0.833349
vt 0.794200 0.863783
vt 0.012897 0.046325
vt 0.044739 0.015891
vt 0.865153 0.061580
vt 0.866324 0.062790
vt 0.865716 0.103041
vt 0.864497 0.104192
vt 0.719586 0.061580
vt 0.718367 0.062732
vt 0.718930 0.104192
vt 0.717758 0.102982
vt 0.719056 0.013672
vt 0.717758 0.015004
vt 0.719036 0.061580
vt 0.717758 0.060276
vt 0.985203 0.018022
vt 0.987301 0.019282
vt 0.984453 0.054376
vt 0.986760 0.053061
vt 0.047687 0.016669
vt 0.827194 0.832248
vt 0.948311 0.716488
vt 0.342711 0.082863
vt 0.376856 0.050228
vt 0.982457 0.683852
s 0
f 15/1/1 17/2/1 4/3/1 2/4/1
f 21/5/2 23/6/2 18/7/2 14/8/2
f 22/9/3 10/10/3 5/11/3 16/12/3
f 3/13/4 6/14/4 12/15/4 8/16/4
f 9/17/5 11/18/5 24/19/5 20/20/5
f 1/21/6 2/22/6 3/13/6
f 4/23/7 5/24/7 6/14/7
f 7/25/8 8/16/8 9/26/8
f 10/27/9 11/28/9 12/15/9
f 13/29/10 14/8/10 15/30/10
f 16/31/11 17/32/11 18/7/11
f 19/33/12 20/34/12 21/5/12
f 22/35/13 23/6/13 24/36/13
f 7/25/14 1/21/14 3/13/14 8/16/14
f 2/22/15 4/23/15 6/14/15 3/13/15
f 5/24/16 10/27/16 12/15/16 6/14/16
f 11/28/17 9/26/17 8/16/17 12/15/17
f 19/37/18 7/38/18 9/17/18 20/20/18
f 10/10/19 22/9/19 24/19/19 11/18/19
f 23/6/20 21/5/20 20/34/20 24/36/20
f 13/29/21 19/33/21 21/5/21 14/8/21
f 22/35/22 16/31/22 18/7/22 23/6/22
f 17/32/23 15/30/23 14/8/23 18/7/23
f 1/39/24 13/40/24 15/1/24 2/4/24
f 16/41/25 5/42/25 4/3/25 17/2/25
f 7/38/26 19/37/26 13/40/26 1/39/26
