# Blender 3.6.2
# www.blender.org
o tauba_1
v -1.009012 -0.051555 0.129326
v -1.009012 -0.049283 0.131598
v -1.011284 -0.049283 0.129326
v -1.009012 0.049283 0.131598
v -1.009012 0.051555 0.129326
v -1.011284 0.049283 0.129326
v -1.009012 -0.051555 -0.129326
v -1.011284 -0.049283 -0.129326
v -1.009012 -0.049283 -0.131598
v -1.009012 0.051555 -0.129326
v -1.009012 0.049283 -0.131598
v -1.011284 0.049283 -0.129326
v 1.009012 -0.051555 0.129326
v 1.011284 -0.049283 0.129326
v 1.009012 -0.049283 0.131598
v 1.009012 0.051555 0.129326
v 1.009012 0.049283 0.131598
v 1.011284 0.049283 0.129326
v 1.009012 -0.051555 -0.129326
v 1.009012 -0.049283 -0.131598
v 1.011284 -0.049283 -0.129326
v 1.009012 0.051555 -0.129326
v 1.011284 0.049283 -0.129326
v 1.009012 0.049283 -0.131598
vn -0.0000 -0.0000 1.0000
vn 1.0000 -0.0000 -0.0000
vn -0.0000 1.0000 -0.0000
vn -1.0000 -0.0000 -0.0000
vn -0.0000 -0.0000 -1.0000
vn -0.5773 -0.5773 0.5774
vn -0.5773 0.5773 0.5774
vn -0.5773 -0.5773 -0.5774
vn -0.5773 0.5773 -0.5774
vn 0.5773 -0.5773 0.5774
vn 0.5773 0.5773 0.5774
vn 0.5773 -0.5773 -0.5774
vn 0.5773 0.5773 -0.5774
vn -0.7071 -0.7071 -0.0000
vn -0.7071 -0.0000 0.7071
vn -0.7071 0.7071 -0.0000
vn -0.7071 -0.0000 -0.7071
vn -0.0000 -0.7071 -0.7071
vn -0.0000 0.7071 -0.7071
vn 0.7071 -0.0000 -0.7071
vn 0.7071 -0.7071 -0.0000
vn 0.7071 0.7071 -0.0000
vn 0.7071 -0.0000 0.7071
vn -0.0000 -0.7071 0.7071
vn -0.0000 0.7071 0.7071
vn -0.0000 -1.0000 -0.0000
vt 0.238725 0.044963
vt 0.273927 0.010061
vt 0.988512 0.730775
vt 0.953310 0.765677
vt 0.715510 0.208807
vt 0.716863 0.146687
vt 0.874505 0.146754
vt 0.873151 0.208873
vt 0.107706 0.174868
vt 0.822290 0.895582
vt 0.729916 0.987171
vt 0.015332 0.266457
vt 0.715510 0.142534
vt 0.716864 0.080415
vt 0.874505 0.080481
vt 0.873152 0.142601
vt 0.858640 0.859542
vt 0.823438 0.894444
vt 0.108854 0.173730
vt 0.144056 0.138828
vt 0.715088 0.144644
vt 0.713433 0.142922
vt 0.714731 0.079996
vt 0.716457 0.078371
vt 0.873558 0.144644
vt 0.875284 0.143019
vt 0.874927 0.078371
vt 0.876583 0.080093
vt 0.873558 0.210916
vt 0.875284 0.209292
vt 0.874927 0.144644
vt 0.876582 0.146366
vt 0.715088 0.210917
vt 0.713433 0.209194
vt 0.716457 0.144644
vt 0.714731 0.146269
vt 0.145203 0.137690
vt 0.859788 0.858404
vt 0.952162 0.766815
vt 0.237578 0.046101
vt 0.275075 0.008923
vt 0.989659 0.729637
s 1
f 15/1/1 17/2/1 4/3/1 2/4/1
f 21/5/2 23/6/2 18/7/2 14/8/2
f 22/9/3 10/10/3 5/11/3 16/12/3
f 3/13/4 6/14/4 12/15/4 8/16/4
f 9/17/5 11/18/5 24/19/5 20/20/5
f 1/21/6 2/22/6 3/13/6
f 4/23/7 5/24/7 6/14/7
f 7/25/8 8/16/8 9/26/8
f 10/27/9 11/28/9 12/15/9
f 13/29/10 14/8/10 15/30/10
f 16/31/11 17/32/11 18/7/11
f 19/33/12 20/34/12 21/5/12
f 22/35/13 23/6/13 24/36/13
f 7/25/14 1/21/14 3/13/14 8/16/14
f 2/22/15 4/23/15 6/14/15 3/13/15
f 5/24/16 10/27/16 12/15/16 6/14/16
f 11/28/17 9/26/17 8/16/17 12/15/17
f 19/37/18 7/38/18 9/17/18 20/20/18
f 10/10/19 22/9/19 24/19/19 11/18/19
f 23/6/20 21/5/20 20/34/20 24/36/20
f 13/29/21 19/33/21 21/5/21 14/8/21
f 22/35/22 16/31/22 18/7/22 23/6/22
f 17/32/23 15/30/23 14/8/23 18/7/23
f 1/39/24 13/40/24 15/1/24 2/4/24
f 16/41/25 5/42/25 4/3/25 17/2/25
f 7/38/26 19/37/26 13/40/26 1/39/26
