# Blender 3.6.2
# www.blender.org
o Cube
v -1.306803 -0.036837 0.279260
v -1.306803 -0.035084 0.281012
v -1.308556 -0.035084 0.279260
v -1.306803 0.035084 0.281012
v -1.306803 0.036837 0.279260
v -1.308556 0.035084 0.279260
v -1.306803 -0.036837 -0.279260
v -1.308556 -0.035084 -0.279260
v -1.306803 -0.035084 -0.281012
v -1.306803 0.036837 -0.279260
v -1.306803 0.035084 -0.281012
v -1.308556 0.035084 -0.279260
v 1.306803 -0.036837 0.279260
v 1.308556 -0.035084 0.279260
v 1.306803 -0.035084 0.281012
v 1.306803 0.036837 0.279260
v 1.306803 0.035084 0.281012
v 1.308556 0.035084 0.279260
v 1.306803 -0.036837 -0.279260
v 1.306803 -0.035084 -0.281012
v 1.308556 -0.035084 -0.279260
v 1.306803 0.036837 -0.279260
v 1.308556 0.035084 -0.279260
v 1.306803 0.035084 -0.281012
vn -0.0000 -0.0000 1.0000
vn 1.0000 -0.0000 -0.0000
vn -0.0000 1.0000 -0.0000
vn -1.0000 -0.0000 -0.0000
vn -0.0000 -0.0000 -1.0000
vn -0.5773 -0.5773 0.5774
vn -0.5773 0.5773 0.5774
vn -0.5773 -0.5773 -0.5774
vn -0.5773 0.5773 -0.5774
vn 0.5773 -0.5773 0.5774
vn 0.5773 0.5773 0.5774
vn 0.5773 -0.5773 -0.5774
vn 0.5773 0.5773 -0.5774
vn -0.7071 -0.7071 -0.0000
vn -0.7071 -0.0000 0.7071
vn -0.7071 0.7071 -0.0000
vn -0.7071 -0.0000 -0.7071
vn -0.0000 -0.7071 -0.7071
vn -0.0000 0.7071 -0.7071
vn 0.7071 -0.0000 -0.7071
vn 0.7071 -0.7071 -0.0000
vn 0.7071 0.7071 -0.0000
vn 0.7071 -0.0000 0.7071
vn -0.0000 -0.7071 0.7071
vn -0.0000 0.7071 0.7071
vn -0.0000 -1.0000 -0.0000
vt 0.577132 0.011897
vt 0.603340 0.011897
vt 0.603340 0.988103
vt 0.577132 0.988103
vt 0.925324 0.086937
vt 0.925089 0.114410
vt 0.716544 0.114379
vt 0.716779 0.086906
vt 0.339383 0.011897
vt 0.339383 0.988103
vt 0.130771 0.988103
vt 0.130771 0.011897
vt 0.716544 0.143819
vt 0.716779 0.116347
vt 0.925324 0.116378
vt 0.925089 0.143851
vt 0.366568 0.988103
vt 0.340359 0.988103
vt 0.340359 0.011897
vt 0.366568 0.011897
vt 0.716347 0.144819
vt 0.715556 0.144010
vt 0.715759 0.116158
vt 0.716579 0.115378
vt 0.925289 0.144819
vt 0.926109 0.144040
vt 0.925521 0.115378
vt 0.926312 0.116187
vt 0.716579 0.085937
vt 0.715759 0.086717
vt 0.716347 0.115378
vt 0.715556 0.114569
vt 0.925521 0.085938
vt 0.926312 0.086746
vt 0.925289 0.115378
vt 0.926109 0.114599
vt 0.367544 0.011897
vt 0.367544 0.988103
vt 0.576156 0.988103
vt 0.576156 0.011897
vt 0.604316 0.011897
vt 0.604316 0.988103
s 0
f 15/1/1 17/2/1 4/3/1 2/4/1
f 21/5/2 23/6/2 18/7/2 14/8/2
f 22/9/3 10/10/3 5/11/3 16/12/3
f 3/13/4 6/14/4 12/15/4 8/16/4
f 9/17/5 11/18/5 24/19/5 20/20/5
f 1/21/6 2/22/6 3/13/6
f 4/23/7 5/24/7 6/14/7
f 7/25/8 8/16/8 9/26/8
f 10/27/9 11/28/9 12/15/9
f 13/29/10 14/8/10 15/30/10
f 16/31/11 17/32/11 18/7/11
f 19/33/12 20/34/12 21/5/12
f 22/35/13 23/6/13 24/36/13
f 7/25/14 1/21/14 3/13/14 8/16/14
f 2/22/15 4/23/15 6/14/15 3/13/15
f 5/24/16 10/27/16 12/15/16 6/14/16
f 11/28/17 9/26/17 8/16/17 12/15/17
f 19/37/18 7/38/18 9/17/18 20/20/18
f 10/10/19 22/9/19 24/19/19 11/18/19
f 23/6/20 21/5/20 20/34/20 24/36/20
f 13/29/21 19/33/21 21/5/21 14/8/21
f 22/35/22 16/31/22 18/7/22 23/6/22
f 17/32/23 15/30/23 14/8/23 18/7/23
f 1/39/24 13/40/24 15/1/24 2/4/24
f 16/41/25 5/42/25 4/3/25 17/2/25
f 7/38/26 19/37/26 13/40/26 1/39/26
