# Blender 3.6.2
# www.blender.org
o carregador
v -0.410780 -0.911183 0.039545
v -0.410780 -0.224712 0.039545
v -0.410780 -0.911183 -0.029914
v -0.410780 -0.224712 -0.029914
v -0.270767 -0.911183 0.039545
v -0.270767 -0.224712 0.039545
v -0.270767 -0.911183 -0.029914
v -0.270767 -0.224712 -0.029914
v -0.344816 -0.911183 -0.029914
v -0.336731 -0.911183 -0.029914
v -0.340774 -0.911183 -0.027909
v -0.336731 -0.224712 -0.029914
v -0.344816 -0.224712 -0.029914
v -0.340774 -0.224712 -0.027909
v -0.336731 -0.911183 0.039545
v -0.344816 -0.911183 0.039545
v -0.340774 -0.911183 0.037540
v -0.344816 -0.224712 0.039545
v -0.336731 -0.224712 0.039545
v -0.340774 -0.224712 0.037540
v -0.419153 -0.934407 -0.034067
v -0.419153 -0.934407 0.043698
v -0.262394 -0.934407 0.043698
v -0.262394 -0.934407 -0.034067
v -0.340774 -0.934407 -0.031822
v -0.345299 -0.934407 -0.034067
v -0.336248 -0.934407 -0.034067
v -0.340774 -0.934407 0.041453
v -0.336248 -0.934407 0.043698
v -0.345299 -0.934407 0.043698
vn -1.0000 -0.0000 -0.0000
vn -0.0000 1.0000 -0.0000
vn 1.0000 -0.0000 -0.0000
vn 0.3437 0.0996 0.9338
vn -0.4232 0.3051 0.8531
vn 0.1597 0.1706 0.9723
vn -0.0000 -0.0000 1.0000
vn -0.0000 -0.0000 -1.0000
vn 0.4232 0.3051 -0.8531
vn 0.4232 0.3051 0.8531
vn -0.3437 0.0996 -0.9338
vn -0.4440 0.0414 -0.8951
vn -0.4444 -0.0000 -0.8958
vn 0.4440 0.0414 -0.8951
vn 0.3437 0.0996 -0.9338
vn 0.4444 -0.0000 -0.8958
vn -0.4440 0.0414 0.8951
vn -0.3437 0.0996 0.9338
vn -0.4444 -0.0000 0.8958
vn 0.4440 0.0414 0.8951
vn 0.4444 -0.0000 0.8958
vn -0.0000 -1.0000 -0.0000
vn -0.4394 0.1493 0.8858
vn -0.1597 0.1706 0.9723
vn -0.1597 0.1706 -0.9723
vn -0.4394 0.1493 -0.8858
vn 0.4394 0.1493 0.8858
vn -0.4232 0.3051 -0.8531
vn 0.1597 0.1706 -0.9723
vn 0.4394 0.1493 -0.8858
vt 0.375000 0.000000
vt 0.625000 0.000000
vt 0.625000 0.250000
vt 0.375000 0.250000
vt 0.625000 0.500000
vt 0.742783 0.500000
vt 0.750000 0.507217
vt 0.750000 0.742783
vt 0.742783 0.750000
vt 0.625000 0.750000
vt 0.375000 0.500000
vt 0.375000 0.750000
vt 0.375000 0.882217
vt 0.375000 1.000000
vt 0.625000 0.867783
vt 0.375000 0.867783
vt 0.750000 0.507217
vt 0.757217 0.500000
vt 0.875000 0.500000
vt 0.875000 0.750000
vt 0.757217 0.750000
vt 0.750000 0.742783
vt 0.375000 0.382217
vt 0.625000 0.382217
vt 0.625000 0.882217
vt 0.625000 1.000000
vt 0.375000 0.367783
vt 0.625000 0.367783
vt 0.257217 0.500000
vt 0.250000 0.507217
vt 0.250000 0.507217
vt 0.242783 0.500000
vt 0.250000 0.742783
vt 0.257217 0.750000
vt 0.242783 0.750000
vt 0.250000 0.742783
vt 0.125000 0.500000
vt 0.125000 0.750000
s 1
f 1/1/1 2/2/1 4/3/1 3/4/1
f 8/5/2 12/6/2 14/7/2 20/8/2 19/9/2 6/10/2
f 7/11/3 8/5/3 6/10/3 5/12/3
f 16/13/4 1/14/5 22/14/5 30/13/6
f 5/12/7 6/10/7 19/15/7 15/16/7
f 14/17/2 13/18/2 4/19/2 2/20/2 18/21/2 20/22/2
f 10/23/8 12/24/8 8/5/8 7/11/8
f 16/13/7 18/25/7 2/26/7 1/14/7
f 7/11/9 5/12/10 23/12/10 24/11/9
f 12/24/1 10/23/1 15/16/1 19/15/1
f 18/25/3 16/13/3 9/27/3 13/28/3
f 3/4/8 4/3/8 13/28/8 9/27/8
f 10/29/11 11/30/12 14/7/13 12/6/13
f 11/31/14 9/32/15 13/28/16 14/17/16
f 17/33/17 15/34/18 19/15/19 20/8/19
f 16/35/4 17/36/20 20/8/21 18/21/21
f 21/37/22 26/32/22 25/31/22 28/36/22 30/35/22 22/38/22
f 25/30/22 27/29/22 24/11/22 23/12/22 29/34/22 28/33/22
f 15/34/18 17/33/17 28/33/23 29/34/24
f 11/30/12 10/29/11 27/29/25 25/30/26
f 17/36/20 16/35/4 30/35/6 28/36/27
f 10/23/11 7/11/9 24/11/9 27/23/25
f 1/1/5 3/4/28 21/4/28 22/1/5
f 3/4/28 9/27/15 26/27/29 21/4/28
f 5/12/10 15/16/18 29/16/24 23/12/10
f 9/32/15 11/31/14 25/31/30 26/32/29
