# Blender 3.6.2
# www.blender.org
o carregador
v -0.070424 -0.320935 0.039545
v -0.070424 0.365535 0.039545
v -0.070424 -0.320935 -0.029914
v -0.070424 0.365535 -0.029914
v 0.069589 -0.320935 0.039545
v 0.069589 0.365535 0.039545
v 0.069589 -0.320935 -0.029914
v 0.069589 0.365535 -0.029914
v -0.004460 -0.320935 -0.029914
v 0.003624 -0.320935 -0.029914
v -0.000418 -0.320935 -0.027909
v 0.003624 0.365535 -0.029914
v -0.004460 0.365535 -0.029914
v -0.000418 0.365535 -0.027909
v 0.003624 -0.320935 0.039545
v -0.004460 -0.320935 0.039545
v -0.000418 -0.320935 0.037540
v -0.004460 0.365535 0.039545
v 0.003624 0.365535 0.039545
v -0.000418 0.365535 0.037540
v -0.078797 -0.344159 -0.034067
v -0.078797 -0.344159 0.043698
v 0.077962 -0.344159 0.043698
v 0.077962 -0.344159 -0.034067
v -0.000418 -0.344159 -0.031822
v -0.004943 -0.344159 -0.034067
v 0.004108 -0.344159 -0.034067
v -0.000418 -0.344159 0.041453
v 0.004108 -0.344159 0.043698
v -0.004943 -0.344159 0.043698
vn 1.0000 -0.0000 -0.0000
vn -0.0000 -1.0000 -0.0000
vn -1.0000 -0.0000 -0.0000
vn -0.0000 -0.1760 -0.9844
vn -0.0000 -0.0000 -1.0000
vn -0.0000 -0.0000 1.0000
vn -0.9407 -0.3391 -0.0000
vn 0.4444 -0.0000 0.8958
vn -0.4444 -0.0000 0.8958
vn 0.4444 -0.0000 -0.8958
vn -0.4444 -0.0000 -0.8958
vn -0.0000 1.0000 -0.0000
vn 0.4394 -0.1493 -0.8858
vn 0.4394 -0.1493 0.8858
vn -0.4394 -0.1493 -0.8858
vn -0.0000 -0.1760 0.9844
vn 0.9407 -0.3391 -0.0000
vn -0.4394 -0.1493 0.8858
vt 0.375000 0.000000
vt 0.375000 0.250000
vt 0.625000 0.250000
vt 0.625000 0.000000
vt 0.625000 0.500000
vt 0.625000 0.750000
vt 0.742783 0.750000
vt 0.750000 0.742783
vt 0.750000 0.507217
vt 0.742783 0.500000
vt 0.375000 0.500000
vt 0.375000 0.750000
vt 0.375000 0.882217
vt 0.375000 1.000000
vt 0.375000 0.867783
vt 0.625000 0.867783
vt 0.750000 0.507217
vt 0.750000 0.742783
vt 0.757217 0.750000
vt 0.875000 0.750000
vt 0.875000 0.500000
vt 0.757217 0.500000
vt 0.375000 0.382217
vt 0.625000 0.382217
vt 0.625000 1.000000
vt 0.625000 0.882217
vt 0.625000 0.367783
vt 0.375000 0.367783
vt 0.257217 0.500000
vt 0.250000 0.507217
vt 0.250000 0.507217
vt 0.242783 0.500000
vt 0.250000 0.742783
vt 0.257217 0.750000
vt 0.242783 0.750000
vt 0.250000 0.742783
vt 0.125000 0.500000
vt 0.125000 0.750000
s 0
f 1/1/1 3/2/1 4/3/1 2/4/1
f 8/5/2 6/6/2 19/7/2 20/8/2 14/9/2 12/10/2
f 7/11/3 5/12/3 6/6/3 8/5/3
f 16/13/4 30/13/4 22/14/4 1/14/4
f 5/12/5 15/15/5 19/16/5 6/6/5
f 14/17/2 20/18/2 18/19/2 2/20/2 4/21/2 13/22/2
f 10/23/6 7/11/6 8/5/6 12/24/6
f 16/13/5 1/14/5 2/25/5 18/26/5
f 7/11/7 24/11/7 23/12/7 5/12/7
f 12/24/1 19/16/1 15/15/1 10/23/1
f 18/26/3 13/27/3 9/28/3 16/13/3
f 3/2/6 9/28/6 13/27/6 4/3/6
f 10/29/8 12/10/8 14/9/8 11/30/8
f 11/31/9 14/17/9 13/27/9 9/32/9
f 17/33/10 20/8/10 19/16/10 15/34/10
f 16/35/11 18/19/11 20/8/11 17/36/11
f 21/37/12 22/38/12 30/35/12 28/36/12 25/31/12 26/32/12
f 25/30/12 28/33/12 29/34/12 23/12/12 24/11/12 27/29/12
f 15/34/13 29/34/13 28/33/13 17/33/13
f 11/30/14 25/30/14 27/29/14 10/29/14
f 17/36/15 28/36/15 30/35/15 16/35/15
f 10/23/16 27/23/16 24/11/16 7/11/16
f 1/1/17 22/1/17 21/2/17 3/2/17
f 3/2/16 21/2/16 26/28/16 9/28/16
f 5/12/4 23/12/4 29/15/4 15/15/4
f 9/32/18 26/32/18 25/31/18 11/31/18
