# Blender 3.6.2
# www.blender.org
o balinhas
v 1.010051 0.092031 -0.028184
v 1.010051 0.076360 -0.023985
v 1.010051 0.064888 -0.012513
v 1.010051 0.060689 0.003158
v 1.010051 0.064888 0.018829
v 1.010051 0.076360 0.030301
v 1.010051 0.092031 0.034500
v 1.010051 0.107702 0.030301
v 1.010051 0.119174 0.018829
v 1.010051 0.123373 0.003158
v 1.010051 0.119174 -0.012513
v 1.010051 0.107702 -0.023985
v 1.155332 0.092031 -0.005576
v 1.148551 0.092031 -0.016880
v 1.130026 0.092031 -0.025155
v 1.155332 0.087664 -0.004406
v 1.148551 0.082012 -0.014195
v 1.130026 0.077875 -0.021361
v 1.155332 0.084467 -0.001209
v 1.148551 0.074677 -0.006861
v 1.130026 0.067511 -0.010998
v 1.155332 0.083296 0.003158
v 1.148551 0.071993 0.003158
v 1.130026 0.063718 0.003158
v 1.155332 0.084467 0.007526
v 1.148551 0.074677 0.013177
v 1.130026 0.067511 0.017315
v 1.155332 0.087664 0.010723
v 1.148551 0.082012 0.020512
v 1.130026 0.077875 0.027678
v 1.155332 0.092031 0.011893
v 1.148551 0.092031 0.023197
v 1.130026 0.092031 0.031471
v 1.155332 0.096398 0.010723
v 1.148551 0.102050 0.020512
v 1.130026 0.106188 0.027678
v 1.155332 0.099595 0.007526
v 1.148551 0.109385 0.013177
v 1.130026 0.116551 0.017315
v 1.155332 0.100766 0.003158
v 1.148551 0.112069 0.003158
v 1.130026 0.120344 0.003158
v 1.155332 0.099595 -0.001209
v 1.148551 0.109385 -0.006861
v 1.130026 0.116551 -0.010998
v 1.155332 0.096398 -0.004406
v 1.148551 0.102050 -0.014195
v 1.130026 0.106188 -0.021361
v 1.004457 0.092031 -0.028184
v 1.004457 0.076360 -0.023985
v 1.004457 0.064888 -0.012513
v 1.004457 0.060689 0.003158
v 1.004457 0.064888 0.018829
v 1.004457 0.076360 0.030301
v 1.004457 0.092031 0.034500
v 1.004457 0.107702 0.030301
v 1.004457 0.119174 0.018829
v 1.004457 0.123373 0.003158
v 1.004457 0.119174 -0.012513
v 1.004457 0.107702 -0.023985
v 1.015105 0.092031 -0.028184
v 1.015105 0.076360 -0.023985
v 1.015105 0.107702 -0.023985
v 1.015105 0.064888 -0.012513
v 1.015105 0.060689 0.003158
v 1.015105 0.064888 0.018829
v 1.015105 0.076360 0.030301
v 1.015105 0.092031 0.034500
v 1.015105 0.107702 0.030301
v 1.015105 0.119174 0.018829
v 1.015105 0.123373 0.003158
v 1.015105 0.119174 -0.012513
v 1.010051 0.092031 -0.024450
v 1.010051 0.078227 -0.020751
v 1.010051 0.068121 -0.010646
v 1.010051 0.064422 0.003158
v 1.010051 0.068121 0.016963
v 1.010051 0.078227 0.027068
v 1.010051 0.092031 0.030767
v 1.010051 0.105835 0.027068
v 1.010051 0.115941 0.016963
v 1.010051 0.119640 0.003158
v 1.010051 0.115941 -0.010646
v 1.010051 0.105835 -0.020751
v 1.015105 0.078227 -0.020751
v 1.015105 0.068121 -0.010646
v 1.015105 0.064422 0.003158
v 1.015105 0.068121 0.016963
v 1.015105 0.078227 0.027068
v 1.015105 0.092031 0.030767
v 1.015105 0.105835 0.027068
v 1.015105 0.115941 0.016963
v 1.015105 0.119640 0.003158
v 1.015105 0.115941 -0.010646
v 1.015105 0.092031 -0.024450
v 1.015105 0.105835 -0.020751
v 1.101742 0.092031 -0.028184
v 1.107598 0.092031 -0.027839
v 1.107598 0.076532 -0.023686
v 1.101742 0.076360 -0.023985
v 1.107598 0.065186 -0.012340
v 1.101742 0.064888 -0.012513
v 1.107598 0.061034 0.003158
v 1.101742 0.060689 0.003158
v 1.107598 0.065186 0.018657
v 1.101742 0.064888 0.018829
v 1.107598 0.076532 0.030003
v 1.101742 0.076360 0.030301
v 1.107598 0.092031 0.034156
v 1.101742 0.092031 0.034500
v 1.107598 0.107530 0.030003
v 1.101742 0.107702 0.030301
v 1.107598 0.118876 0.018657
v 1.101742 0.119174 0.018829
v 1.107598 0.123029 0.003158
v 1.101742 0.123373 0.003158
v 1.107598 0.118876 -0.012340
v 1.101742 0.119174 -0.012513
v 1.107598 0.107530 -0.023686
v 1.101742 0.107702 -0.023985
v 1.106806 0.077786 -0.021516
v 1.100950 0.077613 -0.021814
v 1.100950 0.092031 -0.025677
v 1.106806 0.092031 -0.025333
v 1.106806 0.067357 -0.011087
v 1.100950 0.067059 -0.011259
v 1.106806 0.063540 0.003158
v 1.100950 0.063196 0.003158
v 1.106806 0.067357 0.017404
v 1.100950 0.067059 0.017576
v 1.106806 0.077786 0.027832
v 1.100950 0.077613 0.028130
v 1.106806 0.092031 0.031649
v 1.100950 0.092031 0.031994
v 1.106806 0.106277 0.027832
v 1.100950 0.106449 0.028130
v 1.106806 0.116705 0.017404
v 1.100950 0.117003 0.017576
v 1.106806 0.120522 0.003158
v 1.100950 0.120866 0.003158
v 1.106806 0.116705 -0.011087
v 1.100950 0.117003 -0.011259
v 1.106806 0.106277 -0.021516
v 1.100950 0.106449 -0.021814
vn -0.0000 -0.0000 -1.0000
vn -0.0000 -0.5000 -0.8660
vn 0.1188 -0.8599 0.4965
vn 0.1188 -0.9929 -0.0000
vn 0.2375 -0.9714 -0.0000
vn 0.2375 -0.8412 0.4857
vn 0.1188 -0.4965 0.8599
vn 0.2375 -0.4857 0.8412
vn 0.1188 -0.0000 0.9929
vn 0.2375 -0.0000 0.9714
vn 0.1188 0.4965 0.8599
vn 0.2375 0.4857 0.8412
vn 0.1188 0.8599 0.4965
vn 0.2375 0.8412 0.4857
vn 0.1188 0.9929 -0.0000
vn 0.2375 0.9714 -0.0000
vn 0.1188 0.8599 -0.4965
vn 0.2375 0.8412 -0.4857
vn 0.1188 0.4965 -0.8599
vn 0.2375 0.4857 -0.8412
vn 0.1188 -0.8599 -0.4965
vn 0.1188 -0.4965 -0.8599
vn 0.2375 -0.4857 -0.8412
vn 0.2375 -0.8412 -0.4857
vn -0.0000 0.8660 -0.5000
vn -0.0000 0.5000 -0.8660
vn 0.1188 -0.0000 -0.9929
vn 0.2375 -0.0000 -0.9714
vn 0.5786 -0.0000 -0.8156
vn 0.5786 -0.4078 -0.7063
vn 0.9456 -0.0000 -0.3254
vn 0.9456 -0.1627 -0.2818
vn -0.0000 -0.8660 -0.5000
vn 0.5786 -0.7063 -0.4078
vn 0.9456 -0.2818 -0.1627
vn -0.0000 -1.0000 -0.0000
vn 0.5786 -0.8156 -0.0000
vn 0.9456 -0.3254 -0.0000
vn -0.0000 -0.8660 0.5000
vn 0.5786 -0.7063 0.4078
vn 0.9456 -0.2818 0.1627
vn -0.0000 -0.5000 0.8660
vn 0.5786 -0.4078 0.7063
vn 0.9456 -0.1627 0.2818
vn -0.0000 -0.0000 1.0000
vn 0.5786 -0.0000 0.8156
vn 0.9456 -0.0000 0.3254
vn -0.0000 0.5000 0.8660
vn 0.5786 0.4078 0.7063
vn 0.9456 0.1627 0.2818
vn -0.0000 0.8660 0.5000
vn 0.5786 0.7063 0.4078
vn 0.9456 0.2818 0.1627
vn -0.0000 1.0000 -0.0000
vn 0.5786 0.8156 -0.0000
vn 0.9456 0.3254 -0.0000
vn 0.5786 0.7063 -0.4078
vn 0.9456 0.2818 -0.1627
vn 0.5786 0.4078 -0.7063
vn 0.9456 0.1627 -0.2818
vn -1.0000 -0.0000 -0.0000
vn 1.0000 -0.0000 -0.0000
vn 0.9536 -0.3012 -0.0000
vn 0.9536 -0.2609 -0.1506
vn 0.9536 0.2609 -0.1506
vn 0.9536 0.3012 -0.0000
vn -0.9536 0.2609 -0.1506
vn -0.9536 0.1506 -0.2609
vn -0.9536 -0.1506 0.2609
vn -0.9536 -0.0000 0.3012
vn -0.9536 -0.0000 -0.3012
vn -0.9536 -0.1506 -0.2609
vn 0.9536 -0.1506 0.2609
vn 0.9536 -0.2609 0.1506
vn 0.9536 -0.0000 -0.3012
vn 0.9536 0.1506 -0.2609
vn -0.9536 0.1506 0.2609
vn -0.9536 0.2609 0.1506
vn -0.9536 -0.2609 -0.1506
vn -0.9536 -0.3012 -0.0000
vn 0.9536 0.1506 0.2609
vn 0.9536 -0.0000 0.3012
vn 0.9536 -0.1506 -0.2609
vn 0.9536 0.2609 0.1506
vn 0.0587 -0.4991 -0.8645
vn 0.0587 -0.0000 -0.9983
vn 0.0587 -0.8645 -0.4991
vn 0.0587 -0.9983 -0.0000
vn 0.0587 -0.8645 0.4991
vn 0.0587 -0.4991 0.8645
vn 0.0587 -0.0000 0.9983
vn 0.0587 0.4991 0.8645
vn 0.0587 0.8645 0.4991
vn 0.0587 0.9983 -0.0000
vn 0.0587 0.8645 -0.4991
vn 0.0587 0.4991 -0.8645
vn -0.9536 -0.2609 0.1506
vn -0.9536 0.3012 -0.0000
vt 1.000000 0.517397
vt 1.000000 0.815565
vt 0.916667 0.815565
vt 0.916667 0.517397
vt 0.667125 0.845622
vt 0.749542 0.845622
vt 0.745974 1.000000
vt 0.670693 1.000000
vt 0.583791 0.845622
vt 0.666209 0.845622
vt 0.662640 1.000000
vt 0.587360 1.000000
vt 0.500458 0.845622
vt 0.582876 0.845622
vt 0.579307 1.000000
vt 0.504027 1.000000
vt 0.417125 0.845622
vt 0.499542 0.845622
vt 0.495974 1.000000
vt 0.420693 1.000000
vt 0.333791 0.845622
vt 0.416209 0.845622
vt 0.412640 1.000000
vt 0.337360 1.000000
vt 0.250458 0.845622
vt 0.332876 0.845622
vt 0.329307 1.000000
vt 0.254027 1.000000
vt 0.167125 0.845622
vt 0.249542 0.845622
vt 0.245974 1.000000
vt 0.170693 1.000000
vt 0.083791 0.845622
vt 0.166209 0.845622
vt 0.162640 1.000000
vt 0.087360 1.000000
vt 0.833791 0.845622
vt 0.916209 0.845622
vt 0.912640 1.000000
vt 0.837360 1.000000
vt 0.750458 0.845622
vt 0.832875 0.845622
vt 0.829307 1.000000
vt 0.754027 1.000000
vt 0.166667 0.500000
vt 0.083333 0.500000
vt 0.000458 0.845622
vt 0.082876 0.845622
vt 0.079307 1.000000
vt 0.004027 1.000000
vt 0.364202 0.459400
vt 0.255798 0.488446
vt 0.250000 0.403443
vt 0.326721 0.382885
vt 0.250000 0.316886
vt 0.283443 0.307925
vt 0.916667 0.815565
vt 0.833333 0.815565
vt 0.833333 0.517397
vt 0.453602 0.374245
vt 0.374245 0.453601
vt 0.382885 0.326721
vt 0.307925 0.283443
vt 0.750000 0.815565
vt 0.750000 0.517397
vt 0.488446 0.255798
vt 0.459400 0.364202
vt 0.403443 0.250000
vt 0.316885 0.250000
vt 0.666667 0.815565
vt 0.666667 0.517397
vt 0.459400 0.135798
vt 0.488446 0.244202
vt 0.382885 0.173279
vt 0.307925 0.216557
vt 0.583333 0.815565
vt 0.583333 0.517397
vt 0.374245 0.046399
vt 0.453601 0.125755
vt 0.326721 0.117115
vt 0.283443 0.192075
vt 0.583333 0.815565
vt 0.500000 0.815565
vt 0.500000 0.517397
vt 0.255798 0.011554
vt 0.364202 0.040600
vt 0.250000 0.096557
vt 0.250000 0.183115
vt 0.416667 0.815565
vt 0.416667 0.517397
vt 0.135798 0.040600
vt 0.244202 0.011554
vt 0.173279 0.117115
vt 0.216557 0.192075
vt 0.333333 0.815565
vt 0.333333 0.517397
vt 0.046399 0.125755
vt 0.125755 0.046399
vt 0.117115 0.173279
vt 0.192075 0.216557
vt 0.250000 0.815565
vt 0.250000 0.517397
vt 0.011554 0.244202
vt 0.040600 0.135798
vt 0.096557 0.250000
vt 0.183115 0.250000
vt 0.166667 0.815565
vt 0.166667 0.517397
vt 0.040600 0.364202
vt 0.011554 0.255798
vt 0.117115 0.326721
vt 0.192075 0.283443
vt 0.083333 0.815565
vt 0.083333 0.517397
vt 0.125755 0.453602
vt 0.046399 0.374245
vt 0.173279 0.382885
vt 0.216557 0.307925
vt 0.000000 0.815565
vt 0.000000 0.517397
vt 0.244202 0.488446
vt 0.135798 0.459400
vt 0.750000 0.490000
vt 0.870000 0.457846
vt 0.957846 0.370000
vt 0.990000 0.250000
vt 0.957846 0.130000
vt 0.870000 0.042154
vt 0.750000 0.010000
vt 0.630000 0.042154
vt 0.542154 0.130000
vt 0.510000 0.250000
vt 0.542154 0.370000
vt 0.630000 0.457846
vt 1.000000 0.500000
vt 0.916667 0.500000
vt 0.416667 0.500000
vt 0.333333 0.500000
vt 0.666667 0.500000
vt 0.583333 0.500000
vt 0.000000 0.500000
vt 0.833333 0.500000
vt 0.250000 0.500000
vt 0.500000 0.500000
vt 0.750000 0.500000
vt 0.999542 0.845622
vt 0.917125 0.845622
vt 0.995973 1.000000
vt 0.920693 1.000000
s 1
f 61/1/1 97/2/1 100/3/2 62/4/2
f 105/5/3 103/6/4 24/7/5 27/8/6
f 107/9/7 105/10/3 27/11/6 30/12/8
f 109/13/9 107/14/7 30/15/8 33/16/10
f 111/17/11 109/18/9 33/19/10 36/20/12
f 113/21/13 111/22/11 36/23/12 39/24/14
f 115/25/15 113/26/13 39/27/14 42/28/16
f 117/29/17 115/30/15 42/31/16 45/32/18
f 119/33/19 117/34/17 45/35/18 48/36/20
f 101/37/21 99/38/22 18/39/23 21/40/24
f 103/41/4 101/42/21 21/43/24 24/44/5
f 11/45/25 12/46/26 60/46/26 59/45/25
f 98/47/27 119/48/19 48/49/20 15/50/28
f 18/51/23 15/52/28 14/53/29 17/54/30
f 17/54/30 14/53/29 13/55/31 16/56/32
f 62/4/2 100/57/2 102/58/33 64/59/33
f 21/60/24 18/61/23 17/54/30 20/62/34
f 20/62/34 17/54/30 16/56/32 19/63/35
f 64/59/33 102/58/33 104/64/36 65/65/36
f 24/66/5 21/67/24 20/62/34 23/68/37
f 23/68/37 20/62/34 19/63/35 22/69/38
f 65/65/36 104/64/36 106/70/39 66/71/39
f 27/72/6 24/73/5 23/68/37 26/74/40
f 26/74/40 23/68/37 22/69/38 25/75/41
f 66/71/39 106/70/39 108/76/42 67/77/42
f 30/78/8 27/79/6 26/74/40 29/80/43
f 29/80/43 26/74/40 25/75/41 28/81/44
f 67/77/42 108/82/42 110/83/45 68/84/45
f 33/85/10 30/86/8 29/80/43 32/87/46
f 32/87/46 29/80/43 28/81/44 31/88/47
f 68/84/45 110/83/45 112/89/48 69/90/48
f 36/91/12 33/92/10 32/87/46 35/93/49
f 35/93/49 32/87/46 31/88/47 34/94/50
f 69/90/48 112/89/48 114/95/51 70/96/51
f 39/97/14 36/98/12 35/93/49 38/99/52
f 38/99/52 35/93/49 34/94/50 37/100/53
f 70/96/51 114/95/51 116/101/54 71/102/54
f 42/103/16 39/104/14 38/99/52 41/105/55
f 41/105/55 38/99/52 37/100/53 40/106/56
f 71/102/54 116/101/54 118/107/25 72/108/25
f 45/109/18 42/110/16 41/105/55 44/111/57
f 44/111/57 41/105/55 40/106/56 43/112/58
f 72/108/25 118/107/25 120/113/26 63/114/26
f 48/115/20 45/116/18 44/111/57 47/117/59
f 47/117/59 44/111/57 43/112/58 46/118/60
f 63/114/26 120/113/26 97/119/1 61/120/1
f 15/121/28 48/122/20 47/117/59 14/53/29
f 14/53/29 47/117/59 46/118/60 13/55/31
f 16/56/32 13/55/31 46/118/60 43/112/58 40/106/56 37/100/53 34/94/50 31/88/47 28/81/44 25/75/41 22/69/38 19/63/35
f 49/123/61 50/124/61 51/125/61 52/126/61 53/127/61 54/128/61 55/129/61 56/130/61 57/131/61 58/132/61 59/133/61 60/134/61
f 1/135/1 2/136/2 50/136/2 49/135/1
f 8/137/48 9/138/51 57/138/51 56/137/48
f 5/139/39 6/140/42 54/140/42 53/139/39
f 12/46/26 1/141/1 49/141/1 60/46/26
f 2/136/2 3/142/33 51/142/33 50/136/2
f 9/138/51 10/143/54 58/143/54 57/138/51
f 6/140/42 7/144/45 55/144/45 54/140/42
f 3/142/33 4/145/36 52/145/36 51/142/33
f 10/143/54 11/45/25 59/45/25 58/143/54
f 7/144/45 8/137/48 56/137/48 55/144/45
f 4/145/36 5/139/39 53/139/39 52/145/36
f 67/77/61 68/84/61 90/84/61 89/77/61
f 12/46/62 11/45/62 83/45/62 84/46/62
f 4/145/62 3/142/62 75/142/62 76/145/62
f 68/84/61 69/90/61 91/90/61 90/84/61
f 11/45/62 10/143/62 82/143/62 83/45/62
f 3/142/62 2/136/62 74/136/62 75/142/62
f 69/90/61 70/96/61 92/96/61 91/90/61
f 10/143/62 9/138/62 81/138/62 82/143/62
f 2/136/62 1/135/62 73/135/62 74/136/62
f 70/96/61 71/102/61 93/102/61 92/96/61
f 9/138/62 8/137/62 80/137/62 81/138/62
f 63/114/61 61/120/61 95/120/61 96/114/61
f 74/136/2 85/4/2 86/59/33 75/142/33
f 73/135/1 95/1/1 85/4/2 74/136/2
f 83/45/25 94/108/25 96/114/26 84/46/26
f 82/143/54 93/102/54 94/108/25 83/45/25
f 81/138/51 92/96/51 93/102/54 82/143/54
f 80/137/48 91/90/48 92/96/51 81/138/51
f 79/144/45 90/84/45 91/90/48 80/137/48
f 78/140/42 89/77/42 90/84/45 79/144/45
f 77/139/39 88/71/39 89/77/42 78/140/42
f 76/145/36 87/65/36 88/71/39 77/139/39
f 75/142/33 86/59/33 87/65/36 76/145/36
f 84/46/26 96/114/26 95/120/1 73/141/1
f 5/139/62 4/145/62 76/145/62 77/139/62
f 62/4/61 64/59/61 86/59/61 85/4/61
f 1/141/62 12/46/62 84/46/62 73/141/62
f 66/71/61 67/77/61 89/77/61 88/71/61
f 6/140/62 5/139/62 77/139/62 78/140/62
f 61/1/61 62/4/61 85/4/61 95/1/61
f 65/65/61 66/71/61 88/71/61 87/65/61
f 7/144/62 6/140/62 78/140/62 79/144/62
f 72/108/61 63/114/61 96/114/61 94/108/61
f 64/59/61 65/65/61 87/65/61 86/59/61
f 8/137/62 7/144/62 79/144/62 80/137/62
f 71/102/61 72/108/61 94/108/61 93/102/61
f 116/101/63 114/95/64 138/95/64 140/101/63
f 106/70/65 104/64/66 128/64/66 130/70/65
f 117/34/67 119/33/68 143/33/68 141/34/67
f 107/14/69 109/13/70 133/13/70 131/14/69
f 98/146/71 99/147/72 121/147/72 124/146/71
f 120/113/73 118/107/74 142/107/74 144/113/73
f 110/83/75 108/82/76 132/82/76 134/83/75
f 111/22/77 113/21/78 137/21/78 135/22/77
f 101/42/79 103/41/80 127/41/80 125/42/79
f 100/3/81 97/2/82 123/2/82 122/3/81
f 114/95/64 112/89/83 136/89/83 138/95/64
f 104/64/66 102/58/84 126/58/84 128/64/66
f 99/147/22 98/146/27 15/148/28 18/149/23
f 122/3/85 123/2/86 124/146/86 121/147/85
f 126/58/87 122/57/85 121/38/85 125/37/87
f 128/64/88 126/58/87 125/42/87 127/41/88
f 130/70/89 128/64/88 127/6/88 129/5/89
f 132/76/90 130/70/89 129/10/89 131/9/90
f 134/83/91 132/82/90 131/14/90 133/13/91
f 136/89/92 134/83/91 133/18/91 135/17/92
f 138/95/93 136/89/92 135/22/92 137/21/93
f 140/101/94 138/95/93 137/26/93 139/25/94
f 142/107/95 140/101/94 139/30/94 141/29/95
f 144/113/96 142/107/95 141/34/95 143/33/96
f 123/119/86 144/113/96 143/48/96 124/47/86
f 97/119/82 120/113/73 144/113/73 123/119/82
f 103/6/80 105/5/97 129/5/97 127/6/80
f 113/26/78 115/25/98 139/25/98 137/26/78
f 102/58/84 100/57/81 122/57/81 126/58/84
f 112/89/83 110/83/75 134/83/75 136/89/83
f 119/48/68 98/47/71 124/47/71 143/48/68
f 99/38/72 101/37/79 125/37/79 121/38/72
f 109/18/70 111/17/77 135/17/77 133/18/70
f 108/76/76 106/70/65 130/70/65 132/76/76
f 118/107/74 116/101/63 140/101/63 142/107/74
f 105/10/97 107/9/69 131/9/69 129/10/97
f 115/30/98 117/29/67 141/29/67 139/30/98
